<svg xmlns="http://www.w3.org/2000/svg" viewBox="0 0 90.34 93.42"><defs><style>.cls-1{fill:#f5c300;}</style></defs><g id="Layer_2" data-name="Layer 2"><g id="Слой_1" data-name="Слой 1"><path class="cls-1" d="M41.44,43.08a17.29,17.29,0,0,0-2.72-8.65,20.31,20.31,0,0,0-6.58-6.84,19.67,19.67,0,0,0-18.42-1.24C7.29,29.2,3.49,36.08,1.2,42.43-1.52,50,1,58.36,2.92,65.82a155.48,155.48,0,0,0,9,25,2,2,0,0,0,2.73.72,2.05,2.05,0,0,0,.72-2.74,148.18,148.18,0,0,1-7.48-20q-1.45-4.92-2.56-9.92C4.57,55.34,3.74,51.72,4,48.08c.21-3.39,1.71-6.57,3.27-9.54a20.88,20.88,0,0,1,5.39-7.06A15.75,15.75,0,0,1,28.1,29.75a19.63,19.63,0,0,1,7.14,5.5c2.11,2.47,3.21,5.36,4.48,8.3.39.88,1.7.37,1.72-.47Z"/><path class="cls-1" d="M40.33,43.74c1.72.18,3.29-.39,5-.61A23.34,23.34,0,0,1,50.47,43a18,18,0,0,1,8.85,3.29,15.45,15.45,0,0,1,5.06,6.26,14.75,14.75,0,0,1,.34,9.66c-3.32,12.39-15.52,19.53-27,22.91a114.45,114.45,0,0,1-11.42,2.63c-4,.75-8.16,1.78-12.25,1.61-2.57-.11-2.56,3.89,0,4,4.08.17,8.22-.82,12.21-1.54s7.68-1.48,11.45-2.52c7.17-2,14-5,19.85-9.7A32.25,32.25,0,0,0,68.59,63.32c1.92-7.15,0-14.57-5.83-19.34a19.85,19.85,0,0,0-11-4.41,23.21,23.21,0,0,0-6.44.38c-2,.39-4.15.87-5.54,2.45a.79.79,0,0,0,.55,1.34Z"/><path class="cls-1" d="M18.77,22.73c-1.42-.38-2.9-2-3.78-3.09a11.25,11.25,0,0,1-2.05-4.55A12.72,12.72,0,0,1,13,9.7a11.57,11.57,0,0,1,2.1-4.86c1.91-2.21,5.31-.71,6.75,1.25,2,2.7,2.59,6.62,2.74,9.88.08,1.79.07,3.63-1.64,4.64s-3.88.74-5.87,1.26a1.7,1.7,0,0,0,0,3.26,11.76,11.76,0,0,0,7.53-1.08,7.18,7.18,0,0,0,3.76-5.75,25,25,0,0,0-.63-7.56A16.72,16.72,0,0,0,25.3,4.45C22.88,1,18-1.28,14,1.21c-2.12,1.34-3.19,3.89-3.9,6.2a17,17,0,0,0-.59,7.25,14.38,14.38,0,0,0,2.93,6.93c1.55,2,3.9,4,6.51,2.72a.88.88,0,0,0-.21-1.58Z"/><path class="cls-1" d="M34.74,23c-.08-4.32-.43-8.65.94-12.83a15.14,15.14,0,0,1,2.65-5,6,6,0,0,1,1.76-1.67c.89-.44,1.87.15,2.68.55,1.55.77,3.25,1.61,4,3.27a8.89,8.89,0,0,1,.51,4.54C47,15.27,45.87,19.43,43.54,22a6.07,6.07,0,0,1-4.39,2.26c-1.82,0-2.76-1-3.86-2.33-1.26-1.44-3.41.12-3,1.77.51,2.21,2.77,3.72,4.87,4.26a8.86,8.86,0,0,0,6.72-1.08c4.36-2.62,6.2-7.85,7.1-12.6a15.48,15.48,0,0,0,0-7A8.92,8.92,0,0,0,46.61,2C44.52.83,41.74-.58,39.33.25,37.1,1,35.48,3.51,34.45,5.5c-2.78,5.38-3,12-1.74,17.78a1,1,0,0,0,2-.27Z"/><path class="cls-1" d="M51.68,31.92c1.37-3.8,2.59-7.52,5-10.82,2-2.7,5.45-6.71,9.23-6,3.53.67,3.53,6,3.12,8.72a16,16,0,0,1-5.15,9.56A6.44,6.44,0,0,1,58,35.12a8.94,8.94,0,0,1-5.2-3.71,1.91,1.91,0,0,0-2.1-.85,2.4,2.4,0,0,0-.82.47,1.88,1.88,0,0,0-.29,2.26c3,4.56,8.67,7.47,14,5.08,4.51-2,7.68-6.91,9-11.54,1.21-4.43,1.32-10.95-2.62-14.11C65.34,9,59.6,12.35,56.27,16c-3.68,4.06-6.74,10.05-6.12,15.67a.78.78,0,0,0,1.53.21Z"/><path class="cls-1" d="M69,43.88a16,16,0,0,1,3.79-3.11c1.59-1,3.1-2.15,4.76-3.06A11,11,0,0,1,82.7,36.1a3.15,3.15,0,0,1,2.74,1.63c1.51,2.46.65,5.31-1.16,7.49-1.94,2.35-5.23,5.22-8.51,4.79a5.33,5.33,0,0,1-3.9-2.55c-1-1.61-.46-3.72-1.67-5.13a1.33,1.33,0,0,0-1.59-.21c-2.33,1.24-1.41,4.8-.54,6.69a9.26,9.26,0,0,0,5.13,4.67c4.72,1.84,9.45-.89,12.81-4.12,3.19-3.07,5.44-7.64,3.75-12a8,8,0,0,0-3.9-4.52,9,9,0,0,0-7.19.13,26.69,26.69,0,0,0-7.19,4.48c-1.81,1.49-3.88,3.35-4,5.85a.9.9,0,0,0,1.52.63Z"/></g></g></svg>