<svg xmlns="http://www.w3.org/2000/svg" viewBox="0 0 83.85 83.13"><defs><style>.cls-1{fill:#f5c300;stroke:#f5c300;stroke-miterlimit:10;fill-rule:evenodd;}</style></defs><g id="Layer_2" data-name="Layer 2"><g id="Слой_1" data-name="Слой 1"><path class="cls-1" d="M42.48,4.4c.4.64-.6,1.36-.87,1.91C41.1,5.55,42.41,5.14,42.48,4.4Z"/><path class="cls-1" d="M30.84,17.78c0,.6-.06,1.33.52,1.39-1.94,3.5-6,4.87-6.78,9.55-1.64,1.49-.93,5.33-2.61,6.78-3,0-3.32-3.57-5.9-4.52-.62.15-1.59.64-2.26.18-.92.3-1.26,1.17-2.26,1.39C8.1,36.71,11.56,42.7,14,46.1a20.75,20.75,0,0,0,12.51,7.82c.5.61-1.47,1.22,0,1.39-1.1,1.95-3.34,2.44-4.69,4.18-1.77,2.26-2.37,5.24-2.95,8.86-1,.09-.89.74-1.39,1.56-1.33-.06-1.58-1.2-2.78-1.39-.31-1.31-1.51-1.59-2.44-2.43C10.18,64.21,9.53,61,6.85,60c-.15-1.39-1-1.49-1.56-2.44S4.16,54.82,3.38,53.4C2.32,51.48,1.34,50.29,1,48-.78,37.94,2.78,31.93,7,25.77c.84-1.21,2.17-3.59,2.08-4.34C9,20,6.64,19.14,5.47,19c-.19-1.12-.65-1.87-.18-2.95C13.2,13.33,24.24,14.51,30.84,17.78ZM15.89,15.52c-.13,0-.34,0-.35.17C15.68,15.65,15.89,15.69,15.89,15.52Zm3.83.87C15.2,16.06,8.65,15.27,6,17.78a22.73,22.73,0,0,1,6.25,4.86C6.38,26.16-.22,35.21,2.34,44.71c.11-2.32.12-4.74.87-6.43.32,0,.38.2.69.18.53-3.34,3.3-6.59,5.91-8.52a14,14,0,0,1,6.6-3c1.37.54,2.07,1.75,3.48,2.26,2.46-4.14,4.74-8.47,9.73-10.08-2.62-2.66-8.08-3.39-12.68-3.48C17.92,15.86,19.34,15.61,19.72,16.39Zm.69,13.38a6.32,6.32,0,0,1,.17,1.91,74.65,74.65,0,0,1,5.22-8.34c.64-.79,1.78-1.52,1.56-2.43A25.72,25.72,0,0,0,20.41,29.77Zm-2.61.35c-.45-.07-.52-.52-1-.53C16.68,30.1,17.76,30.31,17.8,30.12ZM14,30.46c.42-.1,1.26.22,1.39-.17C15,30,14.12,29.75,14,30.46Zm5.21.52c-.43,0-1-.88-1.21-.52C18.46,30.55,18.86,31.81,19.19,31Zm1.22,3.13c-.08-.33.24-1-.35-.87C19.79,33.51,20.07,34,20.41,34.11ZM7,40.72c-.5.85.33-.57,0,0Zm1.91.34c.2.69.2-.68,0,0Zm-2.43,4.7c.53-1.33,2.16-2.48,1.73-4.17A13.22,13.22,0,0,0,6.51,45.76ZM6,42.45c.11.12-.08-.07,0,0Zm-.87,1.74c.2.69.2-.68,0,0Zm4.34,0c-1.13,2-3.08,3.91-3.13,6.43,1.38-1.89,3.19-4.2,3.65-6.43ZM3.73,45.41c0-.26.06-1.42-.18-.87C3.56,44.8,3.49,46,3.73,45.41Zm1.21-.18c-.14,1,.1-.69,0,0ZM6,56.36c0-.61.58-.57.69-1-2.61-1.81-2.92-5.84-4.17-9.38C2.54,49.47,4.25,53.46,6,56.36ZM6.16,46.1Zm-.35.7c.12.11-.07-.07,0,0Zm.35,2.26A18.91,18.91,0,0,0,7,46.62H6.51C6.39,47.5,5.47,48.38,6.16,49.06Zm4.69-2.26c.2.69.2-.69,0,0Zm.87.17ZM9.64,48.36c0-.2,0-.49-.18-.52a11.39,11.39,0,0,0-1.91,5,10.48,10.48,0,0,0,3.13-5.73C10.13,47.35,10.43,48.4,9.64,48.36Zm-8-.69c.12.11-.07-.08,0,0Zm8,0ZM8.77,56c1.17-2.79,4-5.14,3.47-8.52A16.33,16.33,0,0,0,8.77,56ZM1.82,48.19c.11.11-.08-.07,0,0Zm8.34,10.43c.61.31.73,1.12,1.39,1.39.36-3.82,2.77-7.41,2.26-10.95C11.71,51.84,11.38,55.18,10.16,58.62ZM2.34,49.75c.11.12-.08-.07,0,0ZM7,52.36c-.07-.94.79-1.87.52-2.43C7.11,50.78,6,51.36,7,52.36Zm4.69,8c-.79.15-1-1.16-1.56-.69,2,2,3.23,4.76,6.25,5.73,1.28-4.22,2.64-8.37,6.61-9.9-2-1.22-3.73-2.64-5.74-3.83-.84,3.8-2.29,7-3.3,10.61.09.72,1.18.44,1.22,1.21A4.4,4.4,0,0,0,13.63,63c.56-4.42,2.29-7.68,3.13-11.82a3.9,3.9,0,0,0-1.91-1C14,53.43,12.89,56.91,11.72,60.35Zm-6.43-9c0-.36.47.26.52-.35-.41.07.1-.79-.52-.52C5.52,50.88,4.78,51.17,5.29,51.32Zm.52.34c.2.69.2-.68,0,0Zm2.43,3.48c0-.8.68-1.75.35-2.26C8.27,53.47,7.15,54.69,8.24,55.14Zm.53,1.74c.28.41.5.89,1,1,.17-1.63,1.24-3.28,1-4.69C10.37,54.66,9.26,55.46,8.77,56.88Zm16.16-2.43c-.89.07-1.53-1-2.26-.53A2.29,2.29,0,0,0,24.93,54.45ZM6.16,57.05c.36.51.59,1.15,1.22,1.39.81-1-.16-2.13-.7-2.78C6.8,56.42,6.18,56.44,6.16,57.05Zm1.39,1.74a15.22,15.22,0,0,0,3.13,3.13c-.34-1.19-1.91-2.6-2.78-3.82C8,58.57,7.55,58.45,7.55,58.79Zm11.3,2.26c-1,1.69.77.41.52-.7C19.18,60.74,19,60.85,18.85,61.05Zm-8.17,1.74c1,1.89,2.88,2.91,4.17,4.52.82-.61.74,0,1.39.34V66.26c-2.37-.7-3.45-2.69-5.21-4C11,62.54,10.58,62.4,10.68,62.79Z"/><path class="cls-1" d="M74.28,16.56c3,1.23,4.46-.92,6.09-2.09,2,2.32,2,8.08,1.39,12.17a81.86,81.86,0,0,1-4.35,15.64c-1,.19-.56-1.05-1-1.39-1.25-1.59-2.2-3.47-4.17-4.34-1.73-2.74-4.84-4.08-7.13-6.26-2-.46-3-1.88-5-2.26.09-1-.49-1.4,0-2.78,1.41-1,3.94-.16,5.74-.87.94-.37,2.62-1.75,2.61-2.61S65.89,19,65.25,18.65c-3-1.79-7.6-2.23-11.82-2.09-4,.13-8.25.86-10.08,2.61-1.57-.55-2.85,1.24-4.34.87-1.73-.43-1.24-3-1.74-4.87a19.78,19.78,0,0,0-1.91-3.3c-1.38-2.36-2.63-5.31-5-6.26.55-.85-.48-.67-.52-1.39.27-.07.14-.55.69-.35,0-.64-1.11-.28-.87-1.21C34.26,1,40.23.66,45.44.57c3.5-.06,7.71-.27,11,.52A32.67,32.67,0,0,1,62.64,3.7c2,1,4.21,1.9,5.56,3.13.43.39.57,1,1,1.56.61.67,1.58,1.1,2.08,1.74C72.7,11.91,73.25,14.36,74.28,16.56ZM43.52,1.44A24.83,24.83,0,0,0,37.09,2,31.37,31.37,0,0,0,43.52,1.44Zm1.92,0c-.14,0-.35,0-.35.17C45.22,1.57,45.43,1.61,45.44,1.44ZM55.52,2c.11.12-.08-.07,0,0ZM36.75,2c-.14,0-.35,0-.35.18C36.53,2.1,36.74,2.13,36.75,2Zm-.87.18c-1.12-.21-.38.53,0,0Zm18.24.34c-.65.07-1.49-.58-1.91-.17C52.84,2.33,53.74,3.31,54.12,2.48Zm-9.55-.17c-.73.32-.92,2.09-1.74,1.74.05-.82.88-.86.87-1.74-4.7.36-8.9.28-12.52,1.22,4.58,2.78,6.12,8.6,9.22,12.86,4.83-.61,8.7-2.3,13-1.92.14-.49-.24-.45-.17-.86,1.86-2.6,3.57-5.35,5.21-8.17-.28-.24-.9-.15-1-.52-2.85,2.19-4.27,6.73-7.3,8.16a90.51,90.51,0,0,0,6.26-8.51c-.63-.29-1.71-.89-2.27-.7-2.78,3.82-5.8,8.33-9,11.13,2.76-3.85,5.9-7.31,8.34-11.47a16.16,16.16,0,0,1-2.26-.7c-2.53,3.32-4.94,7.69-8,9.91A78.6,78.6,0,0,0,50.3,2.66a5.5,5.5,0,0,0-1.73-.18c-2.78,2.26-4.65,6.36-7,8.52,1.7-2.94,4.32-5.88,5.56-8.69C46.89,2.42,45.4,2.23,44.57,2.31ZM60.9,4.74c-.57-.3-1.54-1.12-2.25-.69C59.4,4.17,60.31,5,60.9,4.74ZM34,6.83a3.89,3.89,0,0,0-1.74-2.26A2.82,2.82,0,0,0,34,6.83Zm30.93-1c.42.39-.92-1.08-1.22-.53C64.12,5.41,64.37,5.74,64.9,5.79Zm-2.78,0c.11.11-.07-.08,0,0ZM73.07,16.21c-1-2.73-2.89-5.57-4.87-6.77C70.51,11.18,70.67,15.05,73.07,16.21ZM62.47,5.79c.53,1.5,2,2,3,3,2.69,2.75,4.24,6.56,5.91,10.08-.35,1,.2,2.26,0,3.65-1.91,3.07-5.39,4.69-9.56,5a40.19,40.19,0,0,1,12,9.73c1.11.19,2.22,2.16,2.78,1.74,1.41-5.55,4.21-13.46,1.92-19.47-1,1.15-2.68.91-4.18,1.22C71.36,14.74,68.72,8.46,62.47,5.79Zm-3,.17a28.18,28.18,0,0,0-5.39,8.17C56,14,57.06,12.17,58,11c1-1.36,1.89-2.9,2.95-4.17C60.36,6.62,60.15,6.08,59.51,6ZM68,7.87c-.38-.27-1-1.16-1.39-.87C67.14,7.15,67.6,8.24,68,7.87ZM61.6,7.35c-2,2-3.52,4.59-5.39,6.78.53-.13.63.18,1,.17,2.31-1.58,3.28-4.48,5.39-6.26C62.53,7.57,62.16,7.36,61.6,7.35Zm1.56,1c-1.7,1.94-3.18,4.11-4.86,6.08.53-.12.63.18,1,.18,1.49-.94,2.07-3.13,3.13-4.52.39-.51,1.29-.72,1.21-1.39A.47.47,0,0,0,63.16,8.39Zm-2.95,6.43c.49-.14.45.25.87.18a26,26,0,0,0,3.47-5.22C62.23,10.87,61.87,13,60.21,14.82Zm3.13.87c1.09-.22,2.88-3,2.6-4C65.06,13,63.85,14,63.34,15.69ZM62,15.34c1.57-.51,1.93-2.23,2.78-3.47C63.18,12.41,62.76,14.07,62,15.34ZM37.27,13.78c-.14-.39-.1-.94-.52-1A1,1,0,0,0,37.27,13.78Zm27.28,2.43c1.36-.25,2.32-2.6,2.09-3.3C66,14.06,65.11,15,64.55,16.21Zm1.39.52a4.55,4.55,0,0,0,1.39-2.43C67,15.19,66.06,15.58,65.94,16.73ZM38,15.17c.42.89.45-.6,0,0Zm28.85,1.91a1.1,1.1,0,0,0,.87.17c0-.53.7-1.25.18-1.73A9.46,9.46,0,0,0,66.81,17.08Zm-28.32-.35c.2.69.2-.68,0,0ZM64,17.25c-1-.5-.46.43,0,0Zm4.17.53Zm12.17,1c-.17-.32.52-.58,0-.7C80.22,18.43,79.79,18.66,80.37,18.82Zm-4.87.69h.35v-.34H75.5Zm1.39-.34c-.13,0-.34,0-.35.17C76.68,19.3,76.89,19.34,76.89,19.17Zm-6.6,2.95c.2.69.2-.69,0,0Zm10.25,3.3c-.12-1.13.43-1.9-.17-2.6C80.57,23.66,80,25.38,80.54,25.42Zm-18.42.18c-.23-.06-.33-.25-.69-.18C61.15,25.91,62.18,25.9,62.12,25.6Zm17.73,4.52c.18-1.12,1-3.41.34-4.18C79.81,27.64,79.49,28.56,79.85,30.12Z"/><path class="cls-1" d="M82.45,46.45c.74-.27,0,1,.7.7a100.3,100.3,0,0,1-4.52,14.07c-.39.1-.25-.33-.52-.34-.09.87-.73,1.41-1.22,2.26s-.61,1.75-1,2.43-1.46,1.26-2.09,2.08c-1.05,1.39-1.22,2.61-3.12,3A28.33,28.33,0,0,1,60,75.82c-4.21,1.09-9.85.47-13,2.61-.22,1.54.61,3.13-.17,4.17-4.45-.6-6.31-3.77-9.74-5.39-.39-1.57-2-2.32-3-3.47C31.91,71,30,67.94,29.45,64c7.77,0,14.37-3.35,19.81-6.77C48,61,44.81,69,52.91,68.18a17,17,0,0,0,7.82-3.48c4.18-3.8,6-11.63,5.21-16.86.86-.17.83.53,1.74-.17,4.54,2.11,11,1.15,14.6-1.22Zm-.35,1.22c.12.11-.07-.08,0,0Zm-2.6,1.56Zm-5.56.35c.79-.07,2,.22,2.26-.35C75.4,49.2,73.88,49.34,73.94,49.58Zm-.87,0ZM67.51,50.8c.07,3-1.14,6-1.57,8.34-.64,3.49-1.19,6-2.43,8.34-.3.55-.6,1.23-.87,1.74-2,3.62-5.22,4.33-8.69,6.43-.18-.19-1.24-.36-1.39,0,15.93-.23,25-10.6,27.29-25-3.44,1.44-9.41,1.76-12.34-.34ZM46.13,60.53c1.07-.21.44-.84,0,0Zm-4.34,1.74c0-.22.27-.36-.18-.35a23.67,23.67,0,0,1-9.56,2.61C35.54,65.35,39,63.27,41.79,62.27ZM35,68.87C35.2,68,36,67.64,36.4,67c-1.51.65-3.15,2.27-.87,3.13,2-2.6,4.5-4.66,6.78-7,0-.22.27-.36-.18-.35C39.3,64.36,37.67,67.13,35,68.87ZM45.44,63c-.48.53.52-.47,0,0Zm-9,9a.47.47,0,0,1,.52.35c1.32-.94,3.27-2.18,3.82-3.31-.16.31-.54.39-1,.35,1.5-2,4.51-3.49,5-5.91C42.39,66.75,39.15,69.13,36.4,72Zm-2.78-3.82c1.34-1,3.34-2.34,4-3.48C35.75,65.26,33.73,66.42,33.62,68.18Zm2.26,2.95c2.58-1.36,4.06-3.81,5.73-6.08-.13,0-.34,0-.35.17C39.35,67.07,37.25,68.73,35.88,71.13ZM37.79,73a1.39,1.39,0,0,0,1,.87c1.56-1.61,3.28-4,5-5.73.91-.9,2.54-1.31,1.74-2.61A55.85,55.85,0,0,1,37.79,73Zm-6.95-7.12c-.26,1.29.12-.62,0,0Zm1.91-.18c-.13,0-.34,0-.35.18C32.54,65.88,32.74,65.91,32.75,65.74ZM33.1,67c.19-.56.9-.6,1-1.22C33.52,65.77,32.92,66.71,33.1,67Zm-2.26.35c.17,0,.21.14.34.17,0-.27,0-.6-.34-.52ZM42.66,68c-.09-.54.46-.46.52-.87C42.73,67.05,42.19,67.75,42.66,68Zm1.73,2.26c.46-.88,2-.62,2.09-1.91C45.8,68.23,44.5,69.81,44.39,70.26ZM58,69.91c.32-.55,1.5-1.15,1.22-1.73C58.78,68.59,57.73,70,58,69.91Zm-2.26-.17c.15,0,.88-.35.35-.52C56.19,69.58,55.15,69.56,55.69,69.74ZM45.26,71.65c.81-.7,1.68-1.33,2.44-2.08C46.48,69,45.47,71.78,45.26,71.65Zm-3.3.7c-.55,1-1.82,1.3-2.08,2.6,1.54-.66,2.31-2.08,3.3-3.3-.3-.07-.45.26-.52,0a1.1,1.1,0,0,1,.17-.87.66.66,0,0,0,.87,0c0-.33-.2-.38-.18-.69-.73.13-.79.94-1.39,1.21,0-.34.74-.74.35-.87C42.18,71.06,40.92,72.44,42,72.35Zm6.61-1.92c.3,0,.86.18.69-.34C48.86,70,48.61,70.13,48.57,70.43Zm4.34.18c.43,0,.54-.27.69-.52h-.52A.81.81,0,0,1,52.91,70.61Zm.87,1c-.9.42.6.45,0,0ZM40.22,72.87c.19.66-.94.89-.52,1.21.13-.63,1.49-.94,1.22-1.39C40.89,73,40.5,72.85,40.22,72.87Zm3.83,0Zm2.43,1.39c-.49-.28.88-1.08.35-1.39C46.23,73.71,44.69,75.75,46.48,74.26Zm-1.57-1c-.91.45.67-.34,0,0Zm11,.34Zm-12.16,1c0-.4,1-.68.52-1C44.23,74,43.27,74.33,43.7,74.61ZM48,74.43Zm-3.65.7c0-.21.31-.4,0-.52C44.37,74.81,44.08,75,44.39,75.13Zm-3.47,0c.11.11-.07-.08,0,0ZM43.18,75c-.44.49-1.17.69-1.39,1.39A5.25,5.25,0,0,0,43.18,75Zm1,2.09c.15-.38,1.05-.91.52-1.39C44.9,76.33,43.73,76.59,44.22,77Zm4.17-1c.48.23.6-.69.35-.18C48.49,75.81,48.07,75.86,48.39,76Zm1.39-.18a1,1,0,0,1-.69-.17C48.81,76.13,49.84,76.13,49.78,75.82Zm.7-.17c-.21,0-.5,0-.53.17C50.16,75.8,50.45,75.85,50.48,75.65Zm-7.13.87c-.14,0-.34,0-.35.17C43.14,76.65,43.35,76.69,43.35,76.52ZM46,81c-.22,0-.24-.23-.52-.18C45.17,81.29,46,81.37,46,81Z"/></g></g></svg>