<svg xmlns="http://www.w3.org/2000/svg" viewBox="0 0 1707.96 1706.61">
  <g id="Layer_2" data-name="Layer 2">
    <g id="Layer_1-2" data-name="Layer 1">
      <g>
        <path d="M0,1453.08c0-73.93-.24-147.87.42-221.81.06-6.64,4.6-14.59,9.44-19.63Q69.42,1149.8,130,1088.93c15.75-16.15,31-32.28,53.61-37.43,4.89-2.81,11.39-8.32,11.61-12.89,1.62-34.07-3.07-69.24,3.87-102,7.22-34.11,24.19-66.41,38.92-98.58,7.34-26.2,48.1-55.77,28.23-82.66C242,729,219.89,702,208.67,666.93c-3.23-10.09-11.71-23.14-28.24-13-2.65,1.63-9.78-.39-12.54-3.08C114.52,598.71,61.28,546.4,8.7,493.46c-4.88-4.91-7.29-14.35-7.31-21.69Q.87,254.09,1.32,36.41C1.34,15.16,15,1.76,36.3,1.73,161.85.63,287.6,3.52,413.06.1c17.76-1.25,29.13,9,40.36,18.87C514.18,75.66,581.79,126.07,636,189.23c1.21,8.33-2.48,19.34-3.13,28.25.19-2.58,65.31-3.79,71.5-3.32,20.76,1.6,41.89,6.85,62,12.06,51.78,13.4,92.68,40.89,140,63.5,42.93,40.1,79.39-25.15,113.71-46.42,15.74-12.21,33.26-22.12,49.9-33.19,1.54-1,3.76-3.63,3.37-4.57-10.94-26.7,13.29-36.55,26.12-49.24,30.9-30.57,64.58-58.34,97.22-87.15,31.25-23,56.22-63.83,97-68.13,124-.32,248.07.28,372.11.62,26.74.08,39.22,12.4,39.3,38.87.44,139.94.45,279.88,1.87,419.81.2,19.29-7.28,33.18-19.1,45.32-55.43,49.86-98.66,117.93-167.06,150-4.44,2.72-8.89,9.26-9.19,14.3-1.76,58.37,1.37,116.47-29,168.95-15.79,37.52-37.6,72.11-57.74,107.39-11.22,19.69-31.89,38.07-13.25,60.55,22.45,24.05,35.35,54.38,49.85,83.64,4.84,9.94,8.19,10.35,15.93,2,17.27-14.89,37.64-49.59,63.54-35,53,52.8,110.39,102.13,158.51,159.45,18.8,147.93,0,305.67,5.51,456.76-.09,18-15.7,31.9-35.53,31.92q-173.55.17-347.09.18c-30.12,2.93-55.14-.55-76.34-24.81-27.11-27.31-57.62-51.23-86.3-77-28.23-19.55-71.08-81-103.44-78.91-86.4,11.87-177.36,9.27-251.78-41.27-104-54.51-67.86-56.35-168.57,12.49-1.46,1.13-3.4,3.73-3,4.87,10.4,28.4-15.16,38-29.12,51.3-43.18,41.07-88.45,79.95-132.93,119.65-15.36,10.89-26.8,31.47-46.52,33.34q-192,.63-383.91.13c-26.94-.06-39.2-12.32-39.22-38.94q0-106.75,0-213.51ZM1253.32,310.85v-.24C1310.15,370,1369.2,427.2,1427.7,484.94q43.63,43.16,87,86.6c9.78,9.84,17.08,11.81,28.12-.18,24.75-26.88,50.61-52.87,77.49-77.63,13.65-12.57,10.87-20.8-.45-32.1-30.86-30.81-61.86-61.57-90.81-94.13-5.71-6.42-6.86-23.47-2.33-30.84,6.2-10.1,19.16-23.31,33.62-11.15,27.63,23.06,52.41,49.46,79.53,73.18,15.48-103.42,2.12-213.06,7.56-318.55,1.3-22.74-16.46-22-33.4-19.8-105.77,1.53-212.89-2.2-318.1,1.93-35.91,24.23-66.29,55.33-98.62,83.94-14.53,13-27.6,29.14-44.46,37.67-16.21,8.19-9.14,19.56-4.92,24.09C1181.81,243.4,1219.06,275.69,1253.32,310.85Zm-280,1167.86a180.5,180.5,0,0,0,28.23-2c26.36-3.8,54.7-4.36,81-11.46,30-8.09,47.87-26.06,69.14-47.3,24.57-24.56,47.88-50.38,73.39-74,58.08-57.8,115.75-116,174.52-173.08,49.73-56-34.9-121.36-68.5-163-127-126.15-252.21-255-380.39-379.72-43.29-25.86-92.33,26.63-53.92,67.75,73.58,74,146.57,148.63,220.67,222.11,24.89,19.78,1.81,47.38-21.8,44.22-109.73-76.13-194.31-190.38-294-280.54C773,643.07,707.37,676,726.37,719.46c72.11,92.9,163.14,168.95,244.9,253.07,24.61,31.31-3.34,67.78-38,42.25C845.46,926,754.58,840.23,667.63,750.54c-37.68-49.63-111-3.06-77.81,41.89,61.31,68.08,129.72,129.24,192.61,195.81q56.76,54.39,112.8,109.53c8.11,7.75,13.09,34.64,3.64,41.67-16.38,10.38-39,7.79-51.34-9.57-26.81-24.63-51.88-51-77.26-77.1C721.79,1004,670,957.83,622.79,908.05c-19.69-25.74-46.07-29.92-69.74-8.62-47.31,37.19,22.1,78.09,44.81,108C653.8,1063.57,710.4,1119.09,766.65,1175c32.63,37.14,78.55,67.22,101.58,111.09,4.21,16.36-12.84,30.57-34,27.06-46.38-2.77-126.33-51.42-144.88,16.19,4.43,49.08,82.47,65.19,117.55,91.2,36.91,27.27,81,43.17,125.48,53C947.15,1476.71,960,1478.53,973.31,1478.71ZM678.5,272.09c-33.24-2.35-66.81,1-100.3,12.15-37.23,12.45-65.37,40.64-89.7,70.37C410,435.19,331.12,515.37,250.56,594c-3.17,3.16-5.51,11.08-3.77,14.59,14,28.14,16.84,61.21,41.07,84.92,62,62.81,122.72,127,185.34,189.22,16.26,20.18,53.5-36.3,67.67-46.06,8.59-15.65-11.2-32.78-11.19-48.87-6.33-46.27,7.87-83,51.12-106.89,25.39-14,50.47-12.76,76.92-7.13,17,1.45,20.08-21.74,30.89-30.89,25.68-28.77,58.2-40,96.13-33.64,73.75,31.87,31.88,7.53,91.07-30.51,9.12-6.9,11.32-18.45,2.84-27-25.9-26.18-51.06-53.1-76.76-79.49-10.82-11.12-2.33-21.88,3.66-28.06,22.26-21.77,52.31-2,77.65,2.72,19.8,3.35,39.81,9.56,59.45,8.63,35.59-5.75,40.55-55,9.72-73C869.31,333.84,776.64,279.06,678.5,272.09ZM1458,693.4c-.55-34-1-78.12-16.08-109.23-11-22.8-33-37.33-50.46-54.73Q1352,490.14,1312,451.37c-29.66-31.33-59.32-62.6-91-91.88-24.09-18.1-93.48-116.55-119.25-94.72-42.08,16.39-74.3,45.53-106,76.72-.54.5.37,3.95,1.5,4.71,22.06,15,27.49,38.3,29.48,62.21,7.66,103.07-84,84.85-93.93,121.46,84.91,81.47,166,166.91,250.3,249.07,28.13,21.46,41.77,68.21,78.64,31.36,20.33-7.65,37.93,11.15,34.16,38-3.11,22.05-9.36,42.83,14.23,59.34,18.55,10,32,52,56.3,29.67,8.48-7.78,14.34-26.38,20.09-36.57,7-12.51,14.18-25,21.08-37.55,13.92-25.38,27-51.33,36.56-78.7C1454.89,753.57,1458.5,723.57,1458,693.4Zm188.32,751.86-.09-20q-.21-50.68-.2-101.38c0-16.45,1-33.18,0-49.61-.45-8.24-.24-33.44-6-39.47-26.64-27.74-54-54.82-81-82.16-31.55-31.87-30.87-31.23-62.77.85-114.82,115.94-231.58,230-346.6,345.72-3.71,3.88-4.08,17.45-.57,20.72,33.23,31,68.3,60.11,101.49,91.18,25.79,24.15,26.91,26.31,49.09,6.1,30-27.37,58.49-56.48,87.24-85.23,10.21-10.21,28.4-12.64,38.89-3.86,35.5,40.76-47.93,79.8-65.59,113,85.9,13.84,178.59.38,266.69,5.37,16.12.11,20.71-6.22,20.59-21.16Q1646.84,1535.28,1646.33,1445.26ZM60.39,265.33c5.45,52.81-13.52,176.88,12.2,214,29.39,31.23,61,60.35,90.28,91.67,11.6,12.41,19.28,9.86,29.17,0C313,450.5,434.55,330.64,554.64,209.29c4.38-4.44,7.48-17.33,4.68-20.41-39-36.07-80.62-70.06-119.23-106.8-20.7-17.61-35.09,10.48-49.16,22.34-26.79,18.16-78.71,100.17-110.53,74.78-35.59-40.8,45.89-80.46,65.08-112.95-18-12.28-40.59-3.78-61-5.62q-102.49-.5-205-1.43C65.38,59.07,60,64.89,60.17,79.34,60.73,141.33,60.41,203.33,60.39,265.33ZM238.59,1646.2v-.11c232.58.47,143.19,20.61,314.51-122.71,13.11-9.28,9.66-17.36,3.41-23.84-121.09-122.47-243.87-243.33-365.67-365.09-4.38-4.27-17.22-7.3-20.12-4.56-31.92,30.25-62.64,61.77-93.73,92.91-11.51,11.53-15.71,19.47.5,33.93,34.08,30.39,64.11,65.27,97.06,97,12.44,12,13.3,23.6,4,35.19-13.77,17.16-27.23,17.51-41.12,3.82-14.16-8.18-81.43-99.53-76.77-46.48-.18,94.24-.16,188.47-.57,282.7-.06,12.75,4.4,17.58,17.47,17.45C131.23,1645.9,184.91,1646.2,238.59,1646.2Zm7.46-643.65c-3.74,53.88,5.13,111.37,40.05,146.66,21.73,22,43.74,43.67,65.64,65.47q64.78,64.46,129.34,129.14c27.73,28.08,54.63,57,83.26,84.13,8,7.63,14.74,23.23,30.87,16.22,22.43-9.74,44.56-20.17,66.59-30.8,1.33-.64,1.8-6.34.58-8.51-56.52-71.24-16.61-161.19,71.51-175.89C604.82,1087.56,463.47,955.24,330.5,816.68c-17.65-18.39-69.31,104.91-71.86,113.83A355.79,355.79,0,0,0,246.05,1002.55Z"/>
        <path d="M1253.32,310.85c0-.08,0-.16,0-.24A1.93,1.93,0,0,0,1253.32,310.85Z"/>
        <path d="M1413.87,239.52c31.39-45.47,53.26-10.15,79.61,19,10.26,14,6.73,29.78-5.86,40.74-12.22,10.65-24.32,4.18-34.28-5.91C1437.88,274.72,1417.66,266.2,1413.87,239.52Z"/>
        <path d="M1459.12,1466.32c9.5-12,27.45-43.12,47.37-47.89,29.25-6.32,38.39,21.11,29.75,41.37C1517.71,1486.59,1463.53,1531.28,1459.12,1466.32Z"/>
        <path d="M165.45,271.36c2.29-36.38,55.68-92,77.78-50.6C253.77,259.31,190.08,316.36,165.45,271.36Z"/>
        <path d="M292.38,1484.21c-6.61,7-13.22,18.27-22.93,22.55-23.86,2.33-47.16-27.84-58.91-46.09-7.06-17.71,12.05-55.67,35.29-32.8C263,1448.31,288.35,1454.22,292.38,1484.21Z"/>
      </g>
    </g>
  </g>
</svg>
