<svg xmlns="http://www.w3.org/2000/svg" viewBox="0 0 1420.22 1570.57">
  <g id="Layer_2" data-name="Layer 2">
    <g id="Layer_1-2" data-name="Layer 1">
      <g id="gXzy0Y.tif">
        <path d="M695.8,273.31c0-33.71-.17-67.42.14-101.13.06-6.65-1.89-10.25-8.08-13.27-35-17.07-52.28-55-43.52-94.31,8-35.83,42.2-63.7,79.24-64.58A84.37,84.37,0,0,1,807,62.41a81.48,81.48,0,0,1-42.18,94c-10.24,5.17-12.83,11-12.75,21.83.52,65.11.39,130.23.08,195.34,0,8.55,1.83,11.39,11.16,12.34q129.78,13.13,228.57,98.76a376.12,376.12,0,0,1,62.77,69.92c3.57,5.14,6.45,5.84,11.91,2.66q90.39-52.59,181-104.72c4.32-2.49,6.89-4.67,6-10.68-5.89-41.43,21-80.77,62-91.55,40.27-10.57,83.55,11.47,98.64,50.26,21.14,54.32-16.7,112.77-74.9,115.09a78.52,78.52,0,0,1-48.93-14.29c-4.52-3.16-7.9-3.12-12.45-.49q-91.18,52.92-182.57,105.5c-6,3.41-6.4,6.75-3.73,12.49,28.71,61.64,39.63,126.71,35.46,194.25a385.25,385.25,0,0,1-43.58,156.1c-3.71,7.08-3.46,10.36,4,14.58q87.84,50.07,175.16,101c5.77,3.36,9.67,3.11,15.43-.42,27.17-16.62,55.73-18.25,83.87-3.28,28.82,15.33,43.58,40.66,44.58,73.08,1.3,42.18-33.28,80.56-74.86,84.4-44.76,4.15-83.81-25.42-91.42-69-1.35-7.75-2.51-15.62-.74-23.16,1.64-7-1.42-9.91-6.68-12.91-30.76-17.58-61.41-35.36-92.1-53.06-28.44-16.41-57-32.69-85.26-49.35-5.53-3.25-8.63-3-12.84,2.24C976.63,1116,891.06,1165.33,787,1183a197.64,197.64,0,0,1-24,2.82c-8.31.39-11,3.62-10.87,12.23.51,39.47.22,79,.23,118.42,0,26.8.32,53.6-.19,80.38-.16,8.09,2.45,12.17,9.76,15.72,32.9,16,50.59,48.07,47.2,84-3,31.56-27.9,61-59.63,70.5a84.66,84.66,0,0,1-98.19-40.61c-18.9-34.78-10.55-77,20.61-103.06a99.73,99.73,0,0,1,17-11.76c5.44-2.87,7-6.53,7-12.38q-.24-101.13,0-202.26c0-7.1-1.65-10.17-9.23-10.92a398,398,0,0,1-147.19-44c-57.12-30-104.85-70.84-142.12-123.55-5.09-7.2-8.71-8.13-16.43-3.6q-87.53,51.46-175.64,101.93c-8.09,4.64-11.11,9-10.49,19.21,2,32.84-11.65,59.14-39.83,76.31-28.55,17.4-58.14,16.83-86.87-.15-32.1-19-47.08-57.1-37.41-93.32,9.53-35.74,42.37-61.81,79.24-62.25,16.74-.2,32.6,4.08,46.59,13.55,5.27,3.57,9.39,3.58,14.91.37q91.9-53.4,184.14-106.23c6.34-3.63,6.63-6.86,3.89-13a399.9,399.9,0,0,1-35.37-178,394.36,394.36,0,0,1,28.75-137c4.7-11.64,4.72-11.61-5.89-17.74Q245.24,559.86,143.52,501c-5.12-3-8.75-3.12-14,.13-27.33,17.06-56,18.95-84.59,4C15.63,489.68,1,464.05,0,431.35-1.24,390,32.7,352.13,73.79,347.62c44.2-4.84,84.14,24.13,92.26,66.87,1.58,8.27,2.9,16.69,1.11,24.87-1.46,6.71.83,9.95,6.32,13.08q63.75,36.48,127.3,73.33c25,14.39,50.06,28.51,74.77,43.31,6.67,4,9.77,3.44,14.16-3.2,52.73-79.79,124.41-134.9,215.7-164.06a359,359,0,0,1,82.86-16.17c7.12-.53,7.61-4,7.59-9.48C695.74,341.89,695.8,307.6,695.8,273.31ZM975.49,669.09c-1.22-1.5-2.55-3.34-4.08-5q-15.93-17.05-31.93-34c-8.64-9.14-8.7-9.14-17.57-.07Q811.08,743.38,700.39,856.87c-5.85,6-9.22,6-15,0-34.16-35.46-68.78-70.49-103-105.88-3.81-3.94-6-3.85-9.66-.18-12,12-24.18,23.89-36.63,35.44-4.38,4.06-3.66,6.45.17,10.35q75.38,76.71,150.39,153.81c4.65,4.79,7.22,4.43,11.65-.06,26.07-26.45,52.48-52.56,78.66-78.9q96.54-97.12,193-194.37C972,674.89,974.91,673.12,975.49,669.09Z"/>
      </g>
    </g>
  </g>
</svg>
