<svg xmlns="http://www.w3.org/2000/svg" viewBox="0 0 1070.9 1726.61">
  <g id="Layer_2" data-name="Layer 2">
    <g id="Layer_1-2" data-name="Layer 1">
      <g id="FRkD19.tif">
        <g>
          <path d="M535.27,1391.62q-61.08,0-122.17,0c-38.37,0-62.77-24.62-63.29-62.75-.4-30.07,2.72-60.31-1.93-90.19-4.8-30.94-16.51-59.18-37.14-83.25-43-50.11-79.45-104.33-108.49-163.82C160.69,906.5,156,818.9,181.82,729c32.3-112.28,97.26-199.37,202.82-252.31,123.94-62.15,273.86-40.88,377.61,51.16,79.26,70.3,123,158.79,137.86,263.13,9.95,69.89-2.61,135.39-32.14,198.49-28.2,60.23-65.38,114.5-108.4,165.1-24.87,29.25-38.5,63.46-39.29,102.33-.56,27.69,2,55.48-1.37,83.06-3.68,29.94-28.09,51.33-58.38,51.56C618.78,1391.84,577,1391.61,535.27,1391.62Zm-284.9-564.9c0,5.13-.24,10.28,0,15.39A38.17,38.17,0,0,0,278,876.72c26.24,7.78,51.08-11.12,51.35-39.78.39-41.89,9.76-81.5,30.4-117.91,35.81-63.13,87.95-102.7,162.09-109.39,8.49-.77,17.25-.84,25.36-3.11,18.6-5.19,29.52-24.27,26.5-44.29-2.85-19-20.06-33.36-41.22-32.82-29.51.76-58.54,5.16-86.41,15.53C331.17,587.69,252.19,701.4,250.37,826.72Z"/>
          <path d="M863,445a46.74,46.74,0,0,1-41.09-69.43,64.14,64.14,0,0,1,11.36-14.46Q909.8,284.6,986.29,208c10.56-10.58,22.29-17.65,38-17.23,18.48.5,32.35,8.52,40.82,24.63,8.61,16.41,7.62,33-2.59,48.64a45.37,45.37,0,0,1-5.81,7.16Q977.29,350.7,897.79,430.07C888.28,439.55,876.92,445.48,863,445Z"/>
          <path d="M46.27,188.93c14.12.4,25,4.75,33.78,13.77,52.63,54.26,105.42,108.38,157.65,163,20.07,21,19.3,49.43-.28,67.92s-47.76,17.69-67.94-3.09Q91.18,350,13.42,268.86C-.41,254.47-3.81,234,4.43,216.53,13,198.32,28.12,189.92,46.27,188.93Z"/>
          <path d="M581.37,159.81c0,37.28.07,74.55,0,111.83-.06,28.11-20.06,49.39-46.47,49.68-26.11.28-47.16-21.35-47.21-49.17q-.23-111.84,0-223.66C487.69,20.25,507.79-.13,535,0c27,.13,46.27,19.92,46.37,48C581.46,85.26,581.36,122.54,581.37,159.81Z"/>
          <path d="M644,1532.2c26.35-.3,45.65,15.13,48,36.13,2.89,25.33-11.32,45.78-36.62,49.41-34.45,4.93-69.13,8.22-103.73,12.1-40,4.49-80.11,8.46-120.08,13.42-26.79,3.32-50.14-12.13-52.77-36.29-3-27.66,14.61-47.34,43.06-50.24,52.63-5.35,105.16-11.65,157.73-17.51C602,1536.72,624.39,1534.33,644,1532.2Z"/>
          <path d="M430.3,1529.29c-30.59.54-49.93-15-51.57-37.48-1.93-26.32,12.7-44.93,39.32-48.11,54.22-6.48,108.52-12.27,162.79-18.35,20.69-2.31,41.42-4.37,62.07-7,23.27-2.94,45.66,12.89,49,35.08,3.76,25.17-11.78,47.65-36.42,50.7-43.69,5.41-87.5,9.94-131.26,14.8C491.3,1522.6,458.39,1526.2,430.3,1529.29Z"/>
          <path d="M535.32,1726.56c-21.2,0-42.4.14-63.6,0-28.89-.25-49.28-22.37-47.89-51.21.28-5.86,2.3-8.72,8.22-9.36q67.23-7.18,134.41-14.63,33.09-3.66,66.14-7.63c13-1.55,14.27-.63,14.34,12.32,0,7.53.08,15,0,22.57-.38,27.8-20.35,47.76-48,48-10.6.09-21.2,0-31.8,0S545.93,1726.58,535.32,1726.56Z"/>
        </g>
      </g>
    </g>
  </g>
</svg>
