<svg xmlns="http://www.w3.org/2000/svg" viewBox="0 0 2000 1263.32">
  <defs>
    <style>
      .cls-1 {
        fill: #fff;
      }
    </style>
  </defs>
  <g id="Layer_2" data-name="Layer 2">
    <g id="Layer_1-2" data-name="Layer 1">
      <path d="M963,246.71c6.86-6.29,6.78-15.36,17.1-14.6,1,.08,2.75-5.09,3.62-8,.42-1.4-.79-3.22-.59-4.76,1.09-8.35,4.75-12.89,13.94-9.08,1.86.77,4.06.72,7.46,1.27-3.15-8.44-6.38-15.86-8.67-23.56-3.63-12.21,2.75-19.59,14.62-15,12.24,4.71,23.54,12.34,34.37,19.94,2.8,2,4.31,9.41,2.93,13a236.38,236.38,0,0,1-15.31,31.29c-6.86,12.12-20.69,10.65-29.16,13.91-.78,6.81-.76,12.57-2.41,17.8-.59,1.88-5.19,2.54-8,3.68s-5.82,2.27-8.73,3.4c1.21,2.92,1.65,7,3.84,8.47,2.42,1.65,6.58,1.72,9.71,1.11,2.81-.55,5.09-3.41,7.91-4.35,1.46-.49,3.57.95,7.15,2.07,3.18-4.22,6.94-10,11.48-15.1,14.1-15.82,28.72-30.91,51.92-32.43,2.59-.17,4.92-2.89,7.59-3.74,5.28-1.69,10.73-2.89,16.1-4.29,1.41,6,4.18,12,3.85,17.88-.39,6.89-6.68,5.18-11.56,4.71-5.87-.57-12.52-2.67-17.53-.73-17.14,6.62-21,15.84-16.44,35.59,9.94-2.84,19.9-5.7,30.72-8.81.49,5.32.82,8.85,1.15,12.29,3.08.88,6.07,1.33,8.69,2.57,11.06,5.23,12.13,14.5,2.55,22.13-5.57,4.43-13.21,6.87-13.54,15.94,0,.95-3.53,1.6-5.22,2.7-5.32,3.45-10.79,6.74-15.64,10.78-1.54,1.29-2.56,5.81-1.6,6.92,1.82,2.09,5.45,4.1,8,3.74,4.07-.59,7.74-3.53,11.79-4.77,7.83-2.38,15.81-4.24,23.72-6.39,2-.53,3.84-1.36,5.78-2,4.32-1.37,8.59-3.42,13-3.75a11.17,11.17,0,0,1,8.28,3.72c.88,1.07-1.39,5.23-2.93,7.54-.9,1.35-3.17,1.78-7.28,3.88l13.65,12c2.1-3.62,3-6.83,5-8.23,2.42-1.63,7.1-3.28,8.7-2.09,3.59,2.65,6.25,6.86,8.34,10.92.41.79-3.32,4-5.41,5.71-2.42,2-5.13,3.65-7.72,5.46.23,1.14.47,2.28.7,3.42,4.54-.27,9.16-.11,13.62-.91,9.09-1.62,18-4.51,27.16-5.39,5.51-.52,6.18,4.54,5.47,9.33-2.14,14.49-2.08,14.51,12.19,16.86a16,16,0,0,0,4.54.46c10.92-1.38,18.74,3.28,23.81,13.53l2.57-1.95c-3.2-7.71-6-15.64-9.71-23.08-5.84-11.61-11.7-23.3-18.78-34.16-4.9-7.51-7.73-16.32-15-22.53-5.55-4.75-6.91-12.13-2.76-18.31,4.26-6.35,10.93-6.73,18.65-2.68-8,6.19-4,12,0,17.53,5.73,8.05,12.62,15.4,17.41,23.95,4,7.09,5.62,15.47,8.29,23.28,6.66-1.95,13.91,3.52,14,13,0,12.22,7.74,20.52,12.76,30,10.66,20.15,22.33,39.79,34.07,59.34,6.89,11.46,14.7,22.35,22.14,33.47.67,1,2,1.62,2.49,2.65,15.67,29.7,45.29,46.46,66.16,71.33,4.65,5.55,9,11.38,13.91,16.68a116.3,116.3,0,0,0,12.2,10.93c7.92,6.45,16.56,12.12,23.88,19.17,10.07,9.72,14.91,11,28.5,6.48,17.47-5.85,35.56-10.08,52.62-16.93,10.74-4.31,22.15-5.27,32.43-9.07,8.45-3.12,14.38-13.1,21.42-20-.65-.67-1.29-1.35-1.94-2l-7,6.72-1.34-.71c2.18-4.49,4-9.24,6.66-13.38,2.93-4.48,7.5-8,3.78-14.38-.55-.94,1.47-3.4,2.3-5.15,5.94,2.82,6.62-4.3,10.35-5.49,13.31-4.24,13.36-15.46,15.09-26.46.74-4.72,4.17-11.86,7.63-12.69a32.68,32.68,0,0,1,20,2.16c5.22,2.39,3.57,10.7-1.48,14.3-3.57,2.54-6.84,5.49-11,8.86,6.3,6.62,11.1,12.11,16.42,17,2.42,2.25,5.15,6.77,9.62,1.84.49-.53,4.1,1.58,6.14,2.68,6.15,3.3,12.19,6.8,18.36,10,11,5.77,21.83,6.29,33.1,0,3.72-2.08,8.81-1.73,11.63-2.21,3.14-11.4,6.3-23.3,9.78-35.11.55-1.86,2.55-4.65,4-4.7,11-.38,16-10.54,24.69-14.37,5.8-2.55,11-7.07,18.79-1.85,3.7,2.46,11.14-.86,16.91-1.27,21.28-1.54,42.55-3.45,63.86-4.09,5.48-.17,11.87,2.68,16.48,6,12.31,8.92,20.73,10,33.41,2.3,9.64-5.83,20.74-2.42,27.39,7.76,1.87,2.85,5.9,4.21,8.23,6.87,8.46,9.7,14.52,4.31,22.36-1.61,4.14-3.12,11.66-1.77,19.69-2.66-2.32,5-3.33,7.14-3.86,8.26l11.82,4.94c-1.74,3.11-3.47,6.21-5.83,10.41,2.68,8.25,10.12,12.1,21.19,7-1.29,5.81-1.17,10.7-3.34,14.17-12.07,19.35-25.27,26.14-50.38,20.13-9.57-2.3-18.89-5.61-29.09-8.69-2,2.7-4.51,5.38-6.1,8.54-3.71,7.39-.77,12.67,7.26,14.81,2.18.59,5.82,3.58,5.6,4.07a34.3,34.3,0,0,1-6.49,10.43c-1.06,1.08-5.4.56-6.89-.76-3.08-2.76-5.26-6.53-8.64-9.91,5.24,9.5,3.16,17.32-2.67,25.85-3.29,4.81-2.37,12.35-4,18.5-1.67,6.38-4.11,12.56-5.75,17.47l-11.73,2.19c1.53,3,2.3,7,4.71,8.74,14.45,10.52,16,26.72,19,42.13,2,10.35,1.11,20.87,13.35,26.89,5.82,2.87,1.27,9.68-2.44,13.07A256.77,256.77,0,0,1,1891,785.58c-12.86,9.46-27.88,12.83-43.3,11.86-13.21-.82-22.06,7.39-32.44,12.46-1.9.92-2.56,5.2-3,8.06-.88,5.32-3.59,7.45-8.87,6.43-2.1-.41-4.24-.56-6.33-1-20.78-4.41-41.61-8.62-62.29-13.5-4-1-7.49-4.53-11.32-7l-36,15.48c6.54,6.25,3.29,9.66-3.22,10.9-13.47,2.54-27,4.43-40.57,6.68-3,.5-6.19.86-8.85,2.18-8.45,4.2-15.11,4-19.36-5.83-.7-1.6-3.55-2.15-5-3.57-2.41-2.32-5.64-4.59-6.57-7.51-8.1-25.18-26.26-39.42-50.44-47.28-5.49-1.79-11.54-2.24-16.69-4.67-28.62-13.48-56.81-8.56-85.42.3-21,6.5-33.38,20.1-38.21,40.94-.54,2.3,1.73,7.12,3.72,7.8,6.31,2.15,8.73,6.8,7,11.92-1.29,3.74-5.57,7.54-9.42,9.1-8.52,3.47-17.62,5.54-24.78,7.67,1.08,6.29,3.14,10.54,1.93,13.41-1.3,3.11-5.37,6.32-8.75,7.05-10.4,2.24-21.06,3.2-31.59,4.86-6.38,1-10.18,4.26-10.81,11.41-.8,9-5.58,15-15,17.18-16.89,3.94-24.56,16.25-28.35,32.12-2.3,9.66-5.23,19.2-8.32,28.64-.64,1.95-3.33,3.19-5,4.86-4,4.1-8.72,7.76-11.63,12.53-3,4.95-4.18,11-11.8,10.61-8.35-.41-15.67-2.84-20.14-10.46a35.48,35.48,0,0,1-3.39-8.46c-2.78-10.17-9.28-15.31-19.84-15.63a37.36,37.36,0,0,1-8.06-1.48c-10.33-2.67-15.39-1-20.16,8.57-2.6,5.22-5.85,6-10.94,5.46-30.31-3.42-60.22-.07-89.82,6.27-8.64,1.85-16.55,5.39-21.71,13.87-2.1,3.45-7.26,5.21-11.26,7.3-6.43,3.37-13,6.5-19.64,9.47-2.12.94-5.47,2.26-6.78,1.32-6.7-4.77-11.23,0-16.36,2.81-9.82,5.45-19.65,10.9-29.59,16.14-12.07,6.36-22.71,13.47-27.37,27.76-2,6.06-8.35,10.72-12.83,15.93-1.16,1.35-3.16,2.12-4,3.6-11,19.5-22.24,38.85-32.29,58.81-2.22,4.42-.75,11.26.42,16.69,2.62,12-.55,16.21-12.08,11.84-7.73-2.92-11.47,0-15.45,4.84-8,9.71-18.2,14.76-30.6,16.49a61,61,0,0,0-17.4,5.28,22.76,22.76,0,0,0-9.1,8.45c-5.08,8.41-9.32,17.32-13.92,26-.7,1.32-1.86,2.48-2.25,3.87-4,14.3-4.54,13.64-19.1,16.13-16.43,2.81-34.18,4.55-48.32,12.3-16.17,8.86-30.64,7.46-46.24,3.26-17.48-4.71-34.07-3-51.15,2.69-10.14,3.36-21.38,4.22-32.18,4.49-8.49.21-15-4.8-17.27-13.7-1.91-7.36-6.45-10.68-14.12-9.53-8.29,1.23-12.42-3-14.24-10.65-1.21-5-2.63-10-4.3-14.93-5-14.76-19.49-24.49-35-24.44-5.37,0-10.75-1.5-16.12-2.38-7.44-1.22-14.84-3.25-22.31-3.51-6.06-.2-9.76-2-12-7.6-3-7.59-8.5-12.4-15.5-17.07-10.45-7-19.55-16.18-28.35-25.27-2.59-2.67-4.08-9-2.73-12.19s6.67-6.18,10.62-6.77c7.32-1.11,15.2.68,18.37-9.16.5-1.55,5.42-2.48,8.24-2.36,21.61.92,32.33-13.49,39.66-30.08A131,131,0,0,0,515,1017.62c-.43-19.81.11-39.64.08-59.46,0-7.39,2-12.39,10.72-12.34,6.72,0,9.4-4.61,10.29-10.68a287.38,287.38,0,0,0-4.76-110.69c-2.66-10.9-4.72-22-7.18-32.91-1.53-6.79-2.53-13.73-10.33-17.14-2.33-1-4-4.54-5.06-7.28-4.09-10.53-9.57-19.33-22-21.16a6.9,6.9,0,0,1-3.83-2.35c-6.58-7.81-13-15.76-19.52-23.62-3.5-4.2-6.88-6.08-13.5-5.79-22.1,1-39.14,12.58-56.57,23.77-10.32,6.63-22.45,3.52-30.72-5.66-7.16-7.95-16.38-14.1-24.88-20.8-20.27-16-42.29-30.18-53.76-54.8-1.13-2.41-3.1-4.46-4.88-6.51-14.73-17-29.36-34.13-44.41-50.86-2.59-2.88-7-5.84-10.6-5.85-35,0-69.94-.12-104.83,1.5-7,.32-14.29,7-20.21,12.21-12.22,10.66-16.45,10.58-31.91,4.6C52,606,35.89,603,20.3,598.56c-2.75-.79-7.19-2.91-7.23-4.49-.07-3.49,2.06-7.07,3.5-10.52,1-2.48,3.71-5.12,3.24-7.13s-3.68-3.9-6.08-5c-4-1.78-9.54-1.76-12-4.6-2.07-2.44-2.44-9.35-.48-11.65,8-9.42,17.23-17.86,26-26.63,3.18-3.17,7.29-5.76,9.49-9.49,5.22-8.85,11.91-14.23,22.62-14.71,3.25-.15,7.19-2.41,9.42-4.93,10.09-11.42,21.74-18.89,37.44-20.59,5.48-.59,11.44-4.79,15.46-9,9.61-10,21.14-13.61,34.51-14,17.2-.49,23.39-7.16,20.5-23.93-.89-5.19,0-5.73,3.81-7.38,2.39-1,4-3.93,6.37-5,4.93-3,10.47-5.36,14.67-9.17,10.37-9.4,20.07-19.28,34.85-21.95,3-.55,4.91-5.81,8-7.88,3.94-2.64,8.68-4.07,12.89-6.36,4.37-2.37,8.32-5.63,12.83-7.65,13.2-5.93,26.28-12.41,40-16.79,10.22-3.26,16.88-8.79,19.6-19.73,2.11-8.45,5.65-16.54,9.42-27.23,5.15,5.46,8.06,9.27,11.67,12.2a209.27,209.27,0,0,0,18.21,13.1,7.1,7.1,0,0,0,6.1.3c7-3.91,13.7-8.35,20.55-12.53,2-1.21,4.2-2.08,6.22-3.27,7.24-4.25,14.1-9.37,21.76-12.66,10.58-4.54,15-14.27,21.83-22.11,5.44-6.24,13-8.21,21.74-5.5,4.06,1.26,8.84.22,11.5.22,1.45-6.81,2.37-11.18,3.3-15.56l18,9.88c4.42-8.38,13.91-.69,21.62-4.2.47-8.5,3.13-16.18,14.35-16.28.57,0,1.52-.12,1.65-.44,5.84-14,17.42-7.23,26.86-7.09,7.86.11,14.9-4.53,18-12.57,1.19-3.13,3.93-5.77,6.26-8.36s5.33-4.49,7.38-7.2,3.45-6.16,5.74-10.43c3,2.81,5.13,4.82,7.31,6.76,4.7,4.2,10.55,4.4,13.35-.61,1.59-2.83-1-8.69-3-12.54-.92-1.79-4.79-2.86-7.35-2.9-17.59-.32-35.39-2.92-52.42,4.14a14.84,14.84,0,0,1-3.73.46c-2-5.81-2.67-10.25,5.28-11.18,19.3-2.24,38.54-5,57.88-6.8,2.5-.24,6.18,3.51,8,6.28,3.57,5.4,6.2,11.42,10.37,16.73-4-9.49-13.68-18-3.7-28.55-1.37-3.51-2.76-7.1-4.32-11.09-3.14,10.44-12.7,10.56-21.07,11.34A385.64,385.64,0,0,1,561,173.59c9.42-7.86,17.08-15.16,12.44-28.45-1.7-4.9-3.16-7.63-9-8.16C554,136,547.94,122.33,554,113.7a10.14,10.14,0,0,1,6.68-3.75c6-.48,6.7-4.53,5.21-8.31-3.82-9.73-8.73-19-12.7-28.7-.9-2.2.07-7.52.47-7.56,11.11-.87,10.32-14.71,19.29-18L559.3,50.06c-1.57-8.58-2.9-16.39-4.5-24.13-.39-1.9-1.21-4.22-2.63-5.3-5.45-4.16-4.45-9.36-1.73-13.85,2.32-3.82,5-10.1,11.59-4.65,14.07-6.12,18,6.52,26.37,12.76,9.29,7,12.93,14.87,16,25.34C608.12,53.34,619.3,59.57,634,61.32l-4,12.42,8.37,3c11.53-12.39,2.19-29.43,8-42.58,6,3.63,11.23,7.15,16.79,10.09,9.62,5.08,12.58,13.84,7.34,23a34.2,34.2,0,0,1-2,3.08c-10.62,14.37-10.69,14.44,3.28,27,9.68,8.69,17,18.5,17.1,32.23a7,7,0,0,0,1.41,3.2c.25.4,1,.46,2.24.94.48-7.78.95-15.3,1.45-23.35,6.81-7.15,12.55-16,26.57-16.65,12.26-.57,23.7-5.27,33,6.45,4.54-6,7.4-3.12,10.27,1.24,2.3,3.5,4.58,7.15,7.54,10.05,3.36,3.3,6.9,4.33,12.23,1.82,5.58-2.63,12.9-4.29,16.45,4.55.37.93,3.07.89,4.66,1.37,11.51,3.46,23.35,6.18,34.33,10.87,3.32,1.42,5.29,8.17,6.09,12.79,1.12,6.53,0,13.42,1,20,.52,3.44,3.44,6.53,5.28,9.78l3.2-1.52a32.68,32.68,0,0,0-1.91-5.6c-4.08-7.39-5.27-14.15.7-21.64,2.36-2.95,1.8-8.23,2.56-12.45l-2.54-1.75c3.32-.89,7.59-3.43,9.69-2.22s2.42,6.12,3.25,9.47c.36,1.44,0,3,.07,4.56.57,14.44,3.91,22.29,19.06,22.31-3.76-7.84,6-31.51,14.57-33.89,2.14-.59,5.94,1.9,7.82,4,2.78,3.11,4.47,7.18,6.74,10.77,2.41,3.83,5.7,7.3,7.31,11.43,7.06,18.06,19.6,31.12,35.57,41.58,2.78,1.82,5.53,6.1,5.56,9.28.1,10.89-1.13,21.8-1.59,32.71C961.4,241.93,962.43,244.34,963,246.71ZM1238.43,422c-2.25,8.45-6.92,14.89,3,20.26,2,1.09,1.46,7.05,1.89,10.78a28.36,28.36,0,0,1,0,4.44c3.82-.52,7.92-1.36,8-1.07,2.23,8,4.31,16,5.85,24.11,1.48,7.76,2.28,15.64,3.44,23.45.52,3.51,2.68,7.62,1.53,10.38-3.8,9.12-9.51,16.94-19.63,20.39-2.79.95-5.13,3.18-7.85,4.44-3.76,1.73-7.7,3.09-13.77,5.49a79.13,79.13,0,0,0,7,41.75c1.28,2.74,6.63,3.58,10.11,5.29.88-5.36-.27-8.24-.43-11.16-.12-2.39.94-4.85,1.47-7.28,2.25,1.1,5,1.71,6.66,3.4,4.82,5,9.23,10.31,13.7,15.6.91,1.08,2.26,3,1.87,3.78-4.18,8.08,3,9,7.14,10,8.83,2.29,17.82,3.18,26.44-2.12,2.28-1.39,6.54-1.27,9.11-.12,5.8,2.61,10.85,6.92,16.68,9.44,19.15,8.27,39,14.72,57.17,25.5,7.41,4.39,11.14,7.45,7.83,15.9-2.14,5.46-1.65,10.19,5.05,10.73,17.61-5.58,35.06-11.39,54.7-4.77-20.09-20.71-40-40.93-62-58.53A349,349,0,0,1,1327.11,545c-4.58-5.81-8.51-12.18-13.44-17.67-3.83-4.26-9.68-6.88-12.92-11.45-4.06-5.71-6.35-12.68-9.42-19.1-4.4-9.21-8.81-18.41-12.14-25.35-2.76-2.24-5.49-3.53-5.38-4.5,1.34-11.92-8.69-17.29-14.53-24.74C1253.84,435.28,1246.58,429.75,1238.43,422Z"/>
      <polygon class="cls-1" points="949.32 488.67 949.32 405.68 949.32 399.63 949.32 362.81 654.73 362.81 654.73 399.63 654.73 405.68 654.73 488.67 612.4 488.67 612.4 531.54 697.6 531.54 697.6 526.04 697.6 488.67 697.6 405.68 780.04 405.68 780.04 531.54 738.27 531.54 738.27 574.96 865.23 574.96 865.23 531.54 822.91 531.54 822.91 405.68 906.45 405.68 906.45 488.67 906.45 526.04 906.45 531.54 991.64 531.54 991.64 488.67 949.32 488.67"/>
      <g id="EGOHu3.tif">
        <g>
          <path class="cls-1" d="M886.85,900.51H802c-2.64,0-2.68,0-2.6-2.7.74-25.76,2.8-51.38,9.08-76.48,2.24-9,5.21-17.73,10.2-25.66,5.53-8.79,14.06-13.09,23.64-15.84a2.44,2.44,0,0,1,2.42.72,58.74,58.74,0,0,0,31.54,14.26c19.37,2.46,37.24-1.08,52.46-14.14a3.1,3.1,0,0,1,3.18-.72c11.53,3.23,20.69,9.32,26,20.57,5,10.56,8,21.69,10.2,33.07a358.6,358.6,0,0,1,5.46,44q.69,9.93,1.13,19.87c.13,3.09.06,3.09-3,3.09Z"/>
          <path class="cls-1" d="M699.88,900.51H615.44c-3.05,0-3.12,0-3-3,.55-15.38,1.57-30.73,3.56-46,1.81-13.87,4.23-27.59,8.79-40.85,2.2-6.37,4.79-12.6,9.07-17.87,5.63-6.92,13.36-10.47,21.79-12.72a2.11,2.11,0,0,1,2,.74A59.42,59.42,0,0,0,691,795.25c18.55,1.83,35.75-1.6,50.31-14.14a3.83,3.83,0,0,1,3.91-.85c13.47,3.63,22.59,11.92,27.66,25a180,180,0,0,1,9.44,36.28c1.94,11.75,3.16,23.58,4,35.45.48,6.9,1,13.79,1,20.71,0,2.84,0,2.85-2.8,2.85Z"/>
          <path class="cls-1" d="M810.83,771.64c-2.35-1.56-4.7-3-7-4.63a89.43,89.43,0,0,1-14.93-12.81c-8-8.82-8.76-19-4.37-29.29,5.44-12.83,15.69-19.61,29.64-20.72a34.5,34.5,0,0,1,7-.22c1.38.17,1.54-.23,1.45-1.54-.48-7.34-.32-14.65,2-21.74,3.73-11.39,11.32-19.69,21.08-26.22a71.44,71.44,0,0,1,34.12-12c20.64-1.78,39.1,3.79,54.93,17.14A44.69,44.69,0,0,1,951,690.49a68.79,68.79,0,0,1,.13,12.09c-.11,1.32.23,1.48,1.41,1.39a46.33,46.33,0,0,1,12.64,1,33,33,0,0,1,26.25,28.11,25.5,25.5,0,0,1-7.44,22.14,115.56,115.56,0,0,1-19.76,15.65c-.39.25-.87.74-1.28.39-.6-.5-.07-1.16.11-1.7a64.71,64.71,0,0,0,3.24-23.87c-.62-10.41-4.52-19.09-13.4-25.1-.62-.43-1.29-.78-1.93-1.17-1.24-.77-1.9-.62-2.21,1-1.25,6.45-2.88,12.81-4.61,19.15-5.54,20.32-19.07,32.5-39,37.68-16.93,4.41-33.61,3.19-49.37-4.78a48.47,48.47,0,0,1-25.53-30.43c-2.08-7-3.79-14-5.22-21.11-.46-2.29-.67-2.37-2.75-1.12a28.86,28.86,0,0,0-14.35,21.42,61.21,61.21,0,0,0,2.74,27.94c.19.59.35,1.18.49,1.78C811.13,771.09,811,771.23,810.83,771.64Z"/>
          <path class="cls-1" d="M703.5,779.33c-16.69-.06-28.92-2.91-39.9-10.2-11.14-7.4-17.86-17.81-21.2-30.68-2.78-10.75-5.38-21.51-6.42-32.58-.75-8-.85-16,1.37-23.84,2.94-10.34,9.15-18.47,17.54-24.94,13.52-10.42,28.92-15.21,46-15,16.79.23,31.91,5.3,45,15.87,9.73,7.84,16.2,17.71,17.86,30.37a85,85,0,0,1-.43,21.91,213.8,213.8,0,0,1-6.36,29.67c-4.95,18-16.63,29.48-33.9,35.66C715.54,778.26,707.78,779.4,703.5,779.33Z"/>
        </g>
      </g>
    </g>
  </g>
</svg>
