<?xml version="1.0" encoding="UTF-8" standalone="no"?>
<svg
   viewBox="0 0 1300.0701 200.22999"
   width="1300.0701"
   height="200.23"
   version="1.1"
   id="svg40"
   sodipodi:docname="English-Now.svg"
   inkscape:version="1.1.1 (3bf5ae0d25, 2021-09-20, custom)"
   xmlns:inkscape="http://www.inkscape.org/namespaces/inkscape"
   xmlns:sodipodi="http://sodipodi.sourceforge.net/DTD/sodipodi-0.dtd"
   xmlns="http://www.w3.org/2000/svg"
   xmlns:svg="http://www.w3.org/2000/svg">
  <sodipodi:namedview
     id="namedview42"
     pagecolor="#ffffff"
     bordercolor="#666666"
     borderopacity="1.0"
     inkscape:pageshadow="2"
     inkscape:pageopacity="0.0"
     inkscape:pagecheckerboard="0"
     showgrid="false"
     inkscape:zoom="0.67645867"
     inkscape:cx="719.18659"
     inkscape:cy="474.5301"
     inkscape:window-width="1920"
     inkscape:window-height="995"
     inkscape:window-x="0"
     inkscape:window-y="0"
     inkscape:window-maximized="1"
     inkscape:current-layer="svg40" />
  <defs
     id="defs4">
    <style
       id="style2">
      .cls-1 {
        font-size: 137px;
        font-family: Montserrat-Medium, Montserrat;
        font-weight: 500;
      }

      .cls-2 {
        fill: #42a9f7;
      }

      .cls-3 {
        fill: #fde041;
      }

      .cls-4, .cls-5 {
        fill: #fff;
      }

      .cls-4 {
        stroke: #171716;
        stroke-width: 7px;
      }

      .cls-4, .cls-6 {
        stroke-miterlimit: 10;
      }

      .cls-6 {
        fill: #6f7173;
        stroke: #181716;
        stroke-width: 4px;
      }

      .cls-7 {
        fill: #f6cc42;
      }

      .cls-8 {
        fill: #0e2268;
      }
    </style>
  </defs>
  <g
     id="Layer_2"
     data-name="Layer 2"
     transform="translate(0,-731.60999)">
    <g
       id="Dav-Collaboration_Image"
       data-name="Dav-Collaboration Image">
      <g
         id="g36">
        <g
           id="g34">
          <rect
             class="cls-2"
             y="731.60999"
             width="771.01001"
             height="200.23"
             id="rect6"
             x="0" />
          <rect
             class="cls-3"
             x="739.20001"
             y="731.60999"
             width="560.87"
             height="200.23"
             id="rect8" />
          <g
             id="g24">
            <path
               d="m 179.13,855.22 v 21.17 h -77.76 v -96.86 h 76 V 800.7 H 128.49 V 817 h 43 v 20.48 h -43 v 17.71 z"
               id="path10" />
            <path
               d="m 267.2,808.45 q 8.51,8.31 8.51,25 v 42.89 h -26.29 v -38.56 q 0,-15.35 -12.31,-15.35 a 14,14 0 0 0 -10.87,4.43 q -4.08,4.42 -4.08,13.28 v 36.25 h -26.29 v -75 h 25 v 8.16 a 29.75,29.75 0 0 1 10.51,-7 35.72,35.72 0 0 1 13.28,-2.42 q 14.03,0.02 22.54,8.32 z"
               id="path12" />
            <path
               d="m 376.71,801.4 v 61.29 q 0,20.89 -11.34,31.34 -11.34,10.45 -32.65,10.45 A 83.12,83.12 0 0 1 312,902 49,49 0 0 1 295.53,894.66 l 9.55,-18.4 a 33.73,33.73 0 0 0 11.55,5.88 46.76,46.76 0 0 0 13.77,2.14 q 10.38,0 15.22,-4.56 4.84,-4.56 4.85,-13.56 v -2.49 q -7.62,8.87 -22.28,8.86 a 38.48,38.48 0 0 1 -18.4,-4.5 34.24,34.24 0 0 1 -13.43,-12.73 38.58,38.58 0 0 1 0,-37.92 34.39,34.39 0 0 1 13.43,-12.73 38.59,38.59 0 0 1 18.4,-4.49 q 16.05,0 23.52,10.38 v -9.14 z m -30.64,45.93 a 15.54,15.54 0 0 0 0.06,-22.07 16.64,16.64 0 0 0 -11.75,-4.26 16.93,16.93 0 0 0 -11.84,4.22 15.38,15.38 0 0 0 0.07,22.07 16.81,16.81 0 0 0 11.77,4.29 16.56,16.56 0 0 0 11.69,-4.25 z"
               id="path14" />
            <path
               d="m 396.36,773.72 h 26.29 v 102.67 h -26.29 z"
               id="path16" />
            <path
               d="m 444,789.08 a 13.41,13.41 0 0 1 0,-19.92 q 4.43,-4 11.62,-4 7.19,0 11.58,3.84 a 12.29,12.29 0 0 1 4.43,9.75 13.43,13.43 0 0 1 -4.43,10.25 q -4.43,4.08 -11.62,4.08 -7.19,0 -11.58,-4 z m -1.52,12.32 h 26.28 v 75 h -26.32 z"
               id="path18" />
            <path
               d="m 497.22,875.49 a 48.8,48.8 0 0 1 -14.66,-5.61 l 7.88,-18 a 44.93,44.93 0 0 0 12.18,5.12 54.67,54.67 0 0 0 14,1.86 c 4.25,0 7.27,-0.43 9.07,-1.31 a 4.11,4.11 0 0 0 2.7,-3.8 q 0,-2.49 -3.26,-3.53 a 67.65,67.65 0 0 0 -10.31,-2 101.85,101.85 0 0 1 -15.28,-2.9 23.71,23.71 0 0 1 -10.87,-6.64 q -4.56,-4.85 -4.56,-13.56 a 20.48,20.48 0 0 1 4.29,-12.8 q 4.29,-5.61 12.52,-8.86 a 53.83,53.83 0 0 1 19.72,-3.25 79.51,79.51 0 0 1 16.19,1.66 46.92,46.92 0 0 1 13.42,4.7 l -7.89,17.85 a 43.69,43.69 0 0 0 -21.58,-5.53 c -4.16,0 -7.2,0.48 -9.14,1.45 -1.94,0.97 -2.9,2.24 -2.9,3.81 q 0,2.63 3.18,3.67 a 75.14,75.14 0 0 0 10.52,2.14 115,115 0 0 1 15.35,3.18 23.52,23.52 0 0 1 10.59,6.57 q 4.5,4.79 4.5,13.36 a 20.26,20.26 0 0 1 -4.29,12.65 q -4.29,5.61 -12.66,8.79 -8.37,3.18 -20.13,3.18 a 80.85,80.85 0 0 1 -18.58,-2.2 z"
               id="path20" />
            <path
               d="m 638.29,808.45 q 8.51,8.31 8.51,25 v 42.89 h -26.29 v -38.56 q 0,-15.35 -12.32,-15.35 a 14,14 0 0 0 -10.86,4.43 q -4.08,4.42 -4.08,13.28 v 36.25 H 567 V 773.72 h 26.29 v 34.59 a 29,29 0 0 1 10.1,-6.09 36.8,36.8 0 0 1 12.45,-2.07 q 13.94,0 22.45,8.3 z"
               id="path22" />
          </g>
          <g
             id="g32">
            <path
               d="m 926.29,779.53 v 96.86 H 903.74 L 861,824.78 v 51.61 h -26.86 v -96.86 h 22.55 l 42.76,51.61 v -51.61 z"
               id="path26" />
            <path
               d="m 969.67,871.82 a 49.53,49.53 0 0 1 0,-87.72 61.87,61.87 0 0 1 55.21,0 49.53,49.53 0 0 1 0,87.72 61.87,61.87 0 0 1 -55.21,0 z m 40.88,-19.65 a 24.75,24.75 0 0 0 9.41,-9.75 31.95,31.95 0 0 0 0,-28.92 24.81,24.81 0 0 0 -9.41,-9.75 27.22,27.22 0 0 0 -26.56,0 24.81,24.81 0 0 0 -9.41,9.75 31.95,31.95 0 0 0 0,28.92 24.75,24.75 0 0 0 9.41,9.75 27.22,27.22 0 0 0 26.56,0 z"
               id="path28" />
            <path
               d="m 1216.86,779.53 -31.41,96.86 h -29.34 l -18.53,-58.94 -19.38,58.94 h -29.33 l -31.41,-96.86 h 28.23 l 19.51,61.85 20.47,-61.85 h 25.19 l 19.51,62.41 20.33,-62.41 z"
               id="path30" />
          </g>
        </g>
      </g>
    </g>
  </g>
</svg>
