<svg xmlns="http://www.w3.org/2000/svg" viewBox="0 0 1471.01 1470.78">
  <g id="Layer_2" data-name="Layer 2">
    <g id="Layer_1-2" data-name="Layer 1">
      <g id="mxx4xS.tif">
        <g>
          <path d="M692.37,1184.88c-45.72,8.94-84.32-8.59-121.36-30.87-53.4-32.13-98.95-74-142.66-117.88-41.44-41.66-80.57-85.3-111.26-135.77-15.77-25.93-29.13-53-32.44-83.69-1.32-12.23-.22-24.73-.22-38.26-12.9,2.07-26.77,4.42-40.69,6.5-64.32,9.61-128.66,19.27-194,18.23a174.89,174.89,0,0,1-31.95-3.44c-18.92-3.87-22.57-12.67-12-29.09a186.17,186.17,0,0,1,20.88-26.67c40.06-42.38,86.08-77.89,132.59-112.67,66.26-49.56,134.07-96.87,206-138,41.06-23.5,83.13-27.11,126.87-8.57a24.36,24.36,0,0,0,2.79.8c12.15-12.76,24.27-25.66,36.56-38.38,105.24-108.83,220.6-205.17,350.85-282.94C984.34,103.3,1092,55.9,1207.48,27.16,1276.74,9.92,1346.93-.43,1418.46,0c13.92.09,27.83,1.41,41.75,2,5.85.25,8.2,2.39,8.74,8.83,5.1,60.91.34,121.26-10.09,181.24-29.49,169.61-99.69,322.23-195,464.18-77.59,115.59-169.73,218.66-271.65,313.19-5.06,4.69-6.53,8.14-3.73,15.27,14.67,37.37,14.15,75-5.47,110.16-20.77,37.18-43.32,73.48-66.91,109-48.4,72.82-99.85,143.46-158.25,208.72-12.75,14.25-26.92,27.25-40.77,40.47a95.16,95.16,0,0,1-15.37,11.37c-18.38,11.54-29.14,7.68-30.87-14-2.27-28.51-3.78-57.57-.92-85.92,5.94-59.14,15-118,22.71-176.92A17.3,17.3,0,0,0,692.37,1184.88Zm475.05-768.7a111.79,111.79,0,0,0-110.84-112.83c-61.69-.6-112.12,49-112.74,110.86s49.06,113,110.33,113.28C1116.82,527.8,1166.94,478.53,1167.42,416.18Z"/>
          <path d="M471.23,1170.51c-5.16,33-18.33,60.35-40.17,83.23-20,21-46.49,28.83-73.85,33.86-50.7,9.32-101.7,7.91-152.66,2.61-22.32-2.32-22-2.94-24.09-25.9-4.13-44.32-5.79-88.67.32-132.88a274.61,274.61,0,0,1,11-49.08c15.53-46.72,52.37-68.67,97.21-80.46,3.33-.88,6.79-1.26,11.35-2.08-8.08,57-6.16,113.16.76,170.09C357.68,1176.81,413.9,1179.21,471.23,1170.51Z"/>
        </g>
      </g>
    </g>
  </g>
</svg>
