<svg xmlns="http://www.w3.org/2000/svg" viewBox="0 0 1408.14 1799.26">
  <g id="Layer_2" data-name="Layer 2">
    <g id="Layer_1-2" data-name="Layer 1">
      <g id="Integrity">
        <g>
          <path d="M861.37,0c101.75,32.91,196,80.18,279.5,147.52,118.41,95.49,196.79,217.33,237.34,363.72a777,777,0,0,1,26.73,162.41c3.1,52.74-4.44,104.41-13.34,156-7.81,45.29-12.48,90.9-15.36,136.77-5.22,83.06-4.25,166.19-2.8,249.28q1.62,93.4,7.86,186.72c2.79,42,4.74,84.1,7.71,126.1,2.85,40.53,6.39,81,9.88,121.5,2.83,32.91,6.08,65.78,9.06,98.68a54.77,54.77,0,0,1-3.91,24.94c-9.4,24.32-32,31.63-54,17.56-8.31-5.31-14.54-12.67-20.3-20.45q-84.75-114.37-217-167c-30-11.94-47.9-34.24-54.7-65.89q-37.62-175-75.57-349.91Q940.58,994.2,898.72,800.37c-1-4.58-1.82-9.19-3-13.71-2.8-10.67-8.3-13.76-19-10.69a84.89,84.89,0,0,0-9,3.51c-47.43,19.84-96.65,31-148.2,32.89-58.84,2.1-113.7-11.07-165-39.59-15.69-8.71-15.76-8.75-19.77,8.75q-63,275-125.91,550-23.1,100.93-46.1,201.89c-7.22,31.84-25.67,53.72-56.12,65.78-54.16,21.45-100,55.57-143,94.11a824.32,824.32,0,0,0-80.21,83.56,65.1,65.1,0,0,1-21.06,16.91c-30.81,15.21-60.65-2.48-62.18-37-.76-17.06,2.29-33.85,4.34-50.65,7-57.45,15-114.78,21.87-172.26,4-33.43,11.59-66.21,16.53-99.46,6.07-40.81,9.53-81.85,12-123,4.42-72.82,4.2-145.7,2.89-218.55-1.09-60.52-4.34-121-7.78-181.45-3.26-57.21-9.3-114.22-10-171.65-.9-76.27,11.49-150.3,32.3-223.23C102,412.62,147.93,317,217.07,233.21,295.28,138.48,392.52,70.49,507.33,27.36,532.26,18,557.39,8.89,583.76,4.65c36.6-5.9,72,19.39,79.47,55.94,4,19.44,2.18,39.17,1.1,58.66-1.5,27.19-.94,54.4-2.32,81.59-1.83,36.23-1.51,72.56-2.48,108.83-1.42,52.94-3.13,105.87-4.79,158.8-.47,14.78-.17,29.37,8.67,42.19,9.94,14.4,23.38,22.65,41.15,23.11,5.26.14,10.56-.25,15.8.19,35.08,2.95,60.67-26.16,60.41-59.87-1-131.45-.42-262.9-.46-394.35,0-9.67-.26-19.36,2.17-28.8,5.89-22.86,19.88-38.69,41.8-47.47,3-1.2,6-2.32,9-3.47Zm346.78,700.21c-1.1-30.41-3.4-60.7-8.14-90.79-16.35-103.75-55.21-197.41-124.6-277.23-30.13-34.65-64.1-65-104.25-87.85-14.51-8.25-30.64-4.19-38.23,8.88s-2.59,29.14,11.68,37.64c32.26,19.2,60.23,43.58,85,71.57,76.21,86.23,113,188.51,122.35,302,1,12.56,1.16,25.12,1.81,37.67.85,16.17,13.72,28.45,28.26,27.68C1197.2,728.94,1208.69,716.07,1208.15,700.21ZM504.42,267c-.15-15.14-10.84-25.6-26-26.27-11.57-.52-20,6.1-28.62,11.87C359.94,312.7,300.33,396.15,263.21,496.61c-24.37,66-34.51,134.61-36.86,204.59a25.91,25.91,0,0,0,6,17.91c7.9,9.51,18.66,12.85,29.81,9.16,11.37-3.77,18.65-14.59,18.86-28.84.81-54.14,8.58-107.27,24.74-158.93C338.5,435.92,396.2,349.68,490.88,291,499.65,285.51,504.84,277.74,504.42,267Z"/>
          <path d="M688.6,1545.35c0-46.84-.08-93.67.07-140.51.05-14.69,10.29-26.27,24-28.07,15-2,27.53,5.84,32.19,19.87,1.33,4,1.16,8.09,1.16,12.17q0,137.43,0,274.87c0,19.11-11.51,31.48-28.93,31.36-17.19-.13-28.45-12.21-28.48-30.94Q688.5,1614.73,688.6,1545.35Z"/>
          <path d="M576.17,1474.66c0-22.24,0-44.49,0-66.73.05-19.26,11.31-31.41,28.91-31.35,17.13.06,28.48,12.23,28.51,30.9q.1,68.05,0,136.11c0,18.71-11.28,30.82-28.43,30.91-17.37.1-28.95-12.38-29-31.35Q576.12,1508.9,576.17,1474.66Z"/>
          <path d="M858.48,1475.54c0,22.82.07,45.65,0,68.47-.09,18.38-11.76,30.58-28.93,30.5-16.7-.06-28.43-12.27-28.47-30.07q-.13-68.93,0-137.84c0-18,11.53-29.91,28.42-30,17.15-.1,28.91,12.16,29,30.46C858.54,1429.88,858.47,1452.71,858.48,1475.54Z"/>
        </g>
      </g>
    </g>
  </g>
</svg>
