<svg xmlns="http://www.w3.org/2000/svg" viewBox="0 0 1241.16 1539.85">
  <g id="Layer_2" data-name="Layer 2">
    <g id="Layer_1-2" data-name="Layer 1">
      <g id="KpKnua.tif">
        <g>
          <path d="M449.17,479.84q147.34,0,294.68,0c25.25,0,48,6.73,65.17,26.18,21.61,24.41,27.23,52.67,15.13,82.84S788.79,636.51,756,638.07c-67.26,3.21-134.59.68-201.89,1.3-21.73.2-43.47.45-65.18-.15-9.47-.26-11.84,3.1-11.82,12.19.25,124.24-.49,248.48.62,372.71.27,30.71-5.59,58.52-19.88,85.35-9.45,17.77-18.89,35.82-20.57,56.53-2,25-3.95,50-6,74.94q-5.26,65.34-10.59,130.67c-2.59,32-5.11,64-7.75,96-3.3,40-36.83,71.6-77.07,72q-54.61.56-109.24,0a78.22,78.22,0,0,1-77.23-70.79c-5.2-55.68-9.83-111.42-14.8-167.12q-6.1-68.48-12.44-136.94c-1.15-12.53-6.4-23.47-13.39-33.74-29.79-43.75-59-87.88-89.48-131.18C1.94,975-3.53,949.46,2.17,919.32c23.38-123.45,45.31-247.18,68-370.76,7.9-43.07,39-68.59,83.42-68.67Q301.38,479.65,449.17,479.84Z"/>
          <path d="M954.65,395.68l-249.64,0c-24.44,0-35.42-10.8-35.44-35.24q-.11-155.12,0-310.22c0-28.57,9.93-38.46,38.9-38.49q150.52-.11,301,0,95.91,0,191.82.05a106.53,106.53,0,0,1,13.72.73c23.84,3.11,34.06,26.58,19.26,45.58-12.21,15.67-25.64,30.39-38.58,45.47q-34.65,40.4-69.35,80.75c-11,12.9-11,25.58.22,38.85q52,61.19,104.3,122.08c8.73,10.13,13.11,20.75,7.1,33.53-6.1,13-17.26,17-30.92,17Q1080.85,395.57,954.65,395.68Z"/>
          <path d="M286.48,0c104.31.34,185.7,83,185.29,188.27-.39,100.78-85.2,184.59-187.26,183.1-104.31-1.53-183.85-83.86-184.2-186.3S184.17-.33,286.48,0Z"/>
          <path d="M791.1,1136.47q0,170.27,0,340.53c0,30.25-17.74,53.84-45,60.79-38.82,9.89-74.69-19.18-74.8-61-.18-69.45-.06-138.91-.06-208.36q0-235.44,0-470.88c0-21.55,6.89-39.81,24.63-52.65,19.57-14.17,41-15.87,62.41-5.11s32.62,29.41,32.74,53.41c.36,68.84.14,137.68.15,206.52Q791.12,1068.09,791.1,1136.47Z"/>
        </g>
      </g>
    </g>
  </g>
</svg>
