<svg xmlns="http://www.w3.org/2000/svg" viewBox="0 0 1843.7 1730.99">
  <g id="Layer_2" data-name="Layer 2">
    <g id="Layer_1-2" data-name="Layer 1">
      <g id="ztlBg3.tif">
        <path d="M1843.7,1730.34c-3.59.21-7.17.61-10.76.61q-181,0-362.08,0c-12.83,0-12.87,0-12.87-13.08q0-178.79,0-357.57c0-13.23,0-13.22-13.44-13.22q-158.52,0-317,0c-12.91,0-12.94,0-12.94,12.74q0,178.79,0,357.57c0,13.53,0,13.57-13.18,13.57H10.62a36,36,0,0,1-3.6,0c-2.29-.24-5.23.87-6.6-1.58s1-4.42,2.31-6.35c7.75-11.79,15.83-23.37,23.31-35.32C93.53,1579.9,142.85,1463.86,182,1343.24c26.89-82.91,47.63-167.29,59.19-253.79.72-5.34,1.88-10.74,1.71-16.08-.28-8.43,3.89-11.73,11.44-14.4Q486,977.22,669.53,813.76C747.84,743.85,816.34,665.31,877.29,580c3.83-5.37,4.22-11,4.22-17q-.06-225.61,0-451.24c0-33.33.27-66.65-.15-100-.11-9.06,2.76-12,11.89-11.74,19.5.62,39,.41,58.54.07,7.11-.13,9.73,2.61,9.45,9.48-.29,7.2.08,14.41,0,21.62-.07,4.91,2.07,7.18,7,7,4.2-.14,8.4,0,12.61,0h350.36c14,0,14,0,14,13.79q0,103.58,0,207.16c0,11.78-.29,12.1-12.16,12.1q-178.79,0-357.58,0c-14.21,0-14.25,0-14.25,14.38q0,144.57-.06,289.12c0,6.17.95,11.6,4.68,16.88,93.32,131.89,204.23,246,339.44,335.44,85.91,56.82,178,100.89,276.78,130.26,12.76,3.8,17.91,10,20.49,22.77A2417.76,2417.76,0,0,0,1732,1510.44c28.63,70.46,61.47,138.87,102.17,203.29,2.86,4.53,5.23,9.49,9.51,13ZM499,1347.1c-34.5,0-69,.21-103.49-.15-8-.08-11,2-11,10.55q.48,84.59,0,169.18c0,8.54,3.08,10.58,11,10.55q103.5-.37,207,0c7.69,0,10.46-2,10.42-10.09q-.45-85.05,0-170.08c.05-8.11-2.8-10.18-10.46-10.11C568,1347.27,533.45,1347.09,499,1347.1Zm345,190c34.5,0,69-.24,103.49.17,8.49.1,11.41-2.21,11.35-11.06q-.54-84.15,0-168.3c0-8.94-3-11-11.39-11q-102.6.43-205.2,0c-8.86-.05-12,2.15-11.93,11.51q.6,83.68,0,167.39c-.06,9.42,3.17,11.58,12,11.46C776.19,1536.82,810.1,1537.09,844,1537.1Zm40-404c0,15.61.39,31.23-.16,46.81-.3,8.37,1.91,11.79,10.94,11.46,17.69-.65,35.43-.66,53.11,0,9,.33,11.07-3.07,11-11.43-.41-30.91.08-61.83-.3-92.74-.11-8.49,2.46-11.58,11.23-11.46,31.81.41,63.62,0,95.44.24,6.64,0,9-2.2,8.86-8.86-.31-18.6-.43-37.22.07-55.82.22-7.94-2.42-10.35-10.29-10.25-31.21.37-62.43-.17-93.64.32-9.23.14-11.82-3-11.69-11.94.44-30.91-.06-61.82.3-92.73.09-7.93-1.79-11.3-10.48-11q-27,.93-54,0c-8.67-.3-10.58,3-10.49,11,.36,30.9-.14,61.82.31,92.73.12,8.94-2.48,12.08-11.71,11.94-31.5-.48-63,0-94.53-.29-7.06-.06-9.48,2.26-9.34,9.33q.56,27.9,0,55.82c-.17,7.48,2.4,9.86,9.82,9.78,31.51-.31,63,.14,94.54-.27,8.77-.12,11.51,3,11.22,11.46C883.56,1102.49,883.94,1117.81,884,1133.12Z"/>
      </g>
    </g>
  </g>
</svg>
