<svg xmlns="http://www.w3.org/2000/svg" viewBox="0 0 1542.21 1781.52">
  <g id="Layer_2" data-name="Layer 2">
    <g id="Layer_1-2" data-name="Layer 1">
      <g id="WHZUS9.tif">
        <path d="M756.45,1781.52c-38.26-1.92-76.89,0-114.66-7-133.88-24.63-241.1-92.36-321.94-201.93-41.11-55.72-68.21-117.93-88.6-183.81-32-103.33-65.61-206.16-98.53-309.2Q75.47,900.39,18.22,721.2C11.63,700.58,2.8,680.68.62,658.74c-3.71-37.2,9.23-66.43,40.59-87a140.08,140.08,0,0,1,51-20.51c44.88-8.52,84.1,21.52,97.66,57.77,20.63,55.14,42,110,67.45,163.09,14.77,30.87,30.32,61.3,49.58,89.67,4.68,6.89,9.42,13.75,15.52,19.51,8.07,7.62,14.44,7,20.3-2.44,6.05-9.75,7-20.63,5.72-31.82-4-35.28-14.74-69.11-22.85-103.47Q279.9,550.12,233.12,357c-7.61-31.36-14.22-62.63-12.29-95.05,1.48-24.78,7.23-48.25,24.19-67.52,30.74-35,103.58-47.8,144.59,11.38,10.23,14.75,15.71,31.16,20.68,48Q480,490.67,550,727.5c2.69,9.12,5.9,18.08,9.13,27a61.41,61.41,0,0,0,10,17.81c4.46,5.55,10,8.55,17.14,6.95,6.66-1.49,10.9-6,12.77-12.43,3.68-12.72,4.14-25.79,3.14-38.89q-5.05-66.62-10.4-133.22c-3.92-49.13-8-98.26-11.9-147.4-2.68-34-5-68.11-7.7-102.16-3.26-41.74-6.83-83.46-10-125.21-2.08-27.54-4.56-55-7.25-82.52C553,117.77,556.08,98.2,562,79.39c14.49-45.92,46.92-70.6,93.81-77.8C673.14-1.08,690.2-.51,707,4.24,747.45,15.63,777,54.3,780.21,98c3.42,46.19,8,92.3,11.95,138.45,3.24,37.57,6.26,75.16,9.53,112.73,3.85,44.37,7.93,88.72,11.78,133.09,2.7,31.07,4.88,62.18,7.85,93.22,4.86,50.83,6.76,101.93,14.22,152.52a74.92,74.92,0,0,0,5.57,19.67c2.61,5.86,6.72,7.74,13,5.18,8.8-3.6,14.36-10.25,18.67-18.31,9.82-18.36,10.73-38.76,13.37-58.72,6.49-48.86,12.74-97.75,19-146.63q9.35-72.45,18.64-144.89c5.6-43.29,11.63-86.52,16.78-129.86,2.32-19.49,3.77-39,10.29-57.73,5.52-15.85,12.87-30.62,24-43.41,22.72-26.06,51.67-32.91,84.7-28.5,42.38,5.67,71.28,29.46,80.35,66.56,4.48,18.33,2,36.6.15,54.94-4.12,41.65-8,83.34-12,125-4,40.79-8,81.56-11.89,122.35-3.85,40.5-7.47,81-11.32,121.51C1101,656,1096.89,696.73,1093,737.53c-3.31,34.88-5.78,69.85-9.88,104.64-3.37,28.65-2.68,56.84,3.83,84.9,1.14,4.91,2.61,9.76,4.09,14.58,12.29,39.93,41.56,44,75.68,28.68,13-5.86,22.27-16.55,30.27-28.31q56.21-82.57,112.6-165c10.4-15.22,20.19-30.91,31.39-45.52,22.32-29.16,51-48.77,88-54.1,29.18-4.2,53.78,6.46,75.42,24.93,32.43,27.68,40.75,64,36.86,104.73-2.94,30.81-17.32,57-31.62,83.55q-99.79,184.82-199.17,369.85c-47.53,88.19-93.42,177.32-143.36,264.13-47.76,83-113.43,150.17-196.49,199.11-55.13,32.48-114.58,51.68-178.62,56.4C780.18,1780.93,768.34,1781.38,756.45,1781.52Zm3.4-327.33c-3.74,4.66-7.82,4.86-11.33,6q-46.66,15-93.42,29.79c-4.34,1.37-8.2,2.8-10.28,7.54Q631,1529,616.75,1560.17c-2.91,6.39-1.12,8.83,5.75,8,15.33-1.83,30.72-3.22,46-5.48,54.42-8.08,107.13-21.9,155.94-48.11,56.49-30.34,98.84-73.77,121.94-134.34,18.17-47.62,21.53-97.11,17-147.45-6.12-68.55-25.44-133.39-54.27-195.67-3.73-8-7.8-11.83-16.87-8.93-4.46,1.42-9.39,1.34-14.1,2-70.06,9.32-138.72,24.36-203.93,52.35-43.2,18.55-83.22,42.31-116.08,76.64-59.91,62.61-75.91,137.78-62.48,221.06,8.95,55.49,29.25,107,55.9,156.22,1.38,2.54,2,6.68,5,6.87,3.77.24,4.41-4.27,5.92-6.94,42.2-74.56,87.12-147.41,136-217.81,4.12-5.94,5.12-11.33,3.71-18.15-4.56-22.11-8.71-44.3-13-66.46-.34-1.8-1.81-3.9.72-5.46,3,1.61,3.52,4.73,4.77,7.31,7.1,14.73,14.07,29.51,21.09,44.28,4,8.5,4.06,8.52,9.76,1,22.59-29.94,46.23-59,73.55-84.79,2.36-2.23,4.29-5.47,9.15-5.85-1.44,3-2.31,5.19-3.45,7.21-21.2,37.54-42.61,75-63.6,112.59-25.91,46.48-50.43,93.7-74.57,141.13-2.89,5.68-3.41,8.61,4.52,8,13.91-1.14,27.85-2,41.78-2.76C728.13,1455.67,743.35,1455,759.85,1454.19Z"/>
      </g>
    </g>
  </g>
</svg>
