<svg id="Слой_1" data-name="Слой 1" xmlns="http://www.w3.org/2000/svg" viewBox="0 0 500 500"><defs><style>.cls-1,.cls-2{fill:#283069;}.cls-2,.cls-4{stroke:#f5c300;stroke-miterlimit:10;}.cls-2{stroke-width:5px;}.cls-3{fill:#f5c300;}.cls-4{fill:none;stroke-width:4px;}</style></defs><rect class="cls-1" width="500" height="500"/><ellipse class="cls-2" cx="250" cy="249.94" rx="190.16" ry="185.04"/><polygon class="cls-1" points="84.77 338.24 82.65 334.42 248.09 67.09 252.34 67.1 416.78 334.43 414.65 338.24 84.77 338.24"/><path class="cls-3" d="M250.21,68.41,414.65,335.74H84.77L250.21,68.41M246,65.78,80.52,333.1l4.25,7.64H414.65l4.26-7.62L254.47,65.79Z"/><rect class="cls-1" x="174.99" y="190.03" width="148.04" height="148.04"/><path class="cls-3" d="M320.53,192.53v143h-143v-143h143m5-5h-153v153h153v-153Z"/><circle class="cls-1" cx="249.42" cy="263.63" r="72.1" transform="translate(-81.9 115.52) rotate(-22.5)"/><path class="cls-3" d="M249.42,193.53a70.11,70.11,0,1,1-70.1,70.1,70.18,70.18,0,0,1,70.1-70.1m0-4a74.11,74.11,0,1,0,74.1,74.1,74.09,74.09,0,0,0-74.1-74.1Z"/><polyline class="cls-4" points="193.67 306.67 249.01 194.33 306.33 306.67"/><line class="cls-4" x1="214.15" y1="263.63" x2="285.63" y2="264.05"/></svg>