<?xml version="1.0" standalone="no"?>
<!DOCTYPE svg PUBLIC "-//W3C//DTD SVG 1.1//EN" "http://www.w3.org/Graphics/SVG/1.1/DTD/svg11.dtd">
<svg xmlns="http://www.w3.org/2000/svg" id="Layer_1" data-name="Layer 1" viewBox="0 0 1000 1000" width="1000" height="1000">
  <g id="VBfMAP.tif">
    <g>
      <path d="M445.68,351.06c-13.64,6.73-20.25,5-27.62-8.81-7.81.13-16.21.87-17.8-10.09-13.71.17-18.78-2.91-21.52-13.58,5.42,0,10.72.35,15.95-.06,19.24-1.52,38.49-3,57.68-5.11,6.82-.74,13.39-3.54,20.19-4.77,4.27-.78,6.93,1.72,9.1,5.75,1.8,3.33,5.4,5.69,8.21,8.48l1.87-1.21c0,11.36.1,22.72-.12,34.07,0,1.34-1.69,3.7-2.75,3.79-8.75.75-17.71,2.31-26.24,1.08C457,359.78,452,354.77,445.68,351.06Z"/>
      <path d="M553.25,350a36.38,36.38,0,0,1-42.15,9.48c-1.3-.56-2.43-3.14-2.46-4.81-.22-10.76-.11-21.52-.11-32.28l2,1.06c3-3.57,5.93-7.28,9.16-10.65,1.61-1.68,3.73-3.63,5.82-3.89,3.58-.44,7.72-.62,10.9.76,18.31,7.95,37.74,7.91,57,8.73,9.25.39,18.53.07,27.85.07-1.26,10.08-7.68,14.15-20.93,13.65-2.42,8.11-5.09,9.94-13.69,10.33-2,.09-4.79,1.11-5.68,2.62-5.62,9.52-14.29,12.26-24.13,7.09C555.59,351.46,554.42,350.66,553.25,350Z"/>
      <path d="M492.18,445.19l-18.43,9.47c-16.11-7.89-19.41-24.38-7.25-38.1,9-10.11,20.82-13.07,33.73-14.51a268.09,268.09,0,0,0,35.59-6.78c3.26-.83,5.78-5,8.3-8,.45-.53-1-3.66-1.17-3.63-3.8.89-7.53,2-11.28,3.14-3.29.95-6.61,2.74-9.85,2.6s-8.8-1.45-9.5-3.54c-1.11-3.3.28-8,1.94-11.5a11.89,11.89,0,0,1,7-5.62c11.39-2.93,22.64-2,32.66,4.61,8.05,5.27,9.16,16.74,2.82,25.43C548.9,409.52,537.53,415,525.15,418c-8.75,2.12-17.9,2.58-26.86,3.82-2.24.31-4.48.71-6.68,1.22-4.31,1-8.67,2.3-9.41,7.57s1.59,9.24,5.92,12.1C489.31,443.51,490.56,444.21,492.18,445.19Z"/>
      <path d="M536,419.77c7.69,10.33,6.49,23.44-4.37,30.81-7.55,5.13-16.4,8.34-24.78,12.17-3.35,1.53-7.07,2.22-10.48,3.64-11.81,4.9-12.76,11.13-3,19.34l-16.06,8.41c-14.8-9.1-16.31-22.7-2.39-33.3,7.22-5.49,16.25-8.58,24.51-12.65,3.68-1.81,7.75-2.93,11.18-5.1,8-5.09,9-10.67,3.95-18.17Z"/>
      <path d="M505.46,398H494.85c0-7.45,0-14.82,0-22.19-.13-19.88-.18-39.76-.63-59.63a11.6,11.6,0,0,0-3.65-7.42c-6.58-5.94-7.71-15.08-2.12-21.59a15.23,15.23,0,0,1,22.05-.76c6,5.95,6.2,16.25-.46,21.5-3.91,3.08-4.4,6.3-4.4,10.57,0,24.44-.1,48.87-.17,73.31Z"/>
      <path d="M505.29,469.35c-2.16,5.75,3.4,16.26-9.46,15.43V470.61c8.89-3.17,17.76-6.42,26.72-9.39,1.12-.37,3.13.42,4.08,1.34,10,9.75,8.16,26.22-4.24,32.65-7.8,4-16.47,6.38-24.65,9.72-7.48,3.07-8.11,4.58-6.15,12.14l-11.35,7.36c-9.46-4.65-7.8-19.72-.1-26.06,4.2-3.45,9.46-5.67,14.44-8.05,3.88-1.85,8.39-2.53,12-4.77,3-1.89,7.18-5.3,7.15-8,0-3.11-4.12-6.17-6.44-9.25Z"/>
      <path d="M482,399.94c-6.13,4.22-11.77,8.21-17.55,12-1,.63-3,1-3.7.46-6.4-5-13.94-9.29-18.58-15.67-7.32-10.06-2.86-23,9-26.62,7.86-2.42,16.58-2,24.92-2.84a4.21,4.21,0,0,1,1.77.49c6.08,2.38,10,6.69,10.48,13.31.14,2.09-.94,5.48-2.48,6.26-5.57,2.83-11.51,3-17.07-.56-1.21-.77-2.21-2.4-3.43-2.54-3.1-.36-7.93-1.35-9.07.18-2.33,3.12-.24,7,3.47,8.44,6.29,2.48,12.79,4.43,19.22,6.55A20.24,20.24,0,0,0,482,399.94Z"/>
      <path d="M506.9,508.83l-10.24,7.95c-2.4-5.47-1-7.89,3.4-9.3,7-2.24,13.92-4.8,20.82-7.21,6.64,12.11,2.41,25-9.8,29.92a75,75,0,0,1-12.39,3.65c-4.44.95-6,3.24-5.94,7.8,0,2.44-1.73,4.91-2.69,7.36-2.15-1.27-4.69-2.16-6.4-3.88-6.67-6.73-6.35-14.07,1.39-19.37,5.54-3.81,11.95-6.31,17.87-9.6C505.83,514.53,509.67,513,506.9,508.83Z"/>
      <path d="M474.07,563.3l16.29-11.06,16.13-11-1.29-1.86-9.27,6.36v-7l25.12-8.95c3.37,3.95,1.88,8.81-1.4,13a25.08,25.08,0,0,1-8.6,6.82c-10.93,5.21-22.08,10-33.17,14.82a12,12,0,0,1-2.85.47Z"/>
      <path d="M524.72,564.44l-19.17-6.31c-.79,8.5-1.42,16.73-2.43,24.9-.2,1.6-1.89,3-2.9,4.51-1-1.54-2.44-3-2.93-4.66-.61-2.15-.44-4.51-.61-6.78-1.22-15.5-1.14-15.33,12.22-22.1,3.39-1.71,5.67-1.35,8.27.9,2.87,2.48,5.84,4.84,8.76,7.26Z"/>
      <path d="M495.39,444c0-3.74,0-6.83,0-9.92-.11-9,.18-9.23,9.37-8.12C506.61,441.31,506,442.57,495.39,444Z"/>
    </g>
  </g>
  <path d="M966.78,309.86C949.58,252,917.76,203.65,870,166.4c-57.4-44.78-122.74-63.74-195-56.43-64.46,6.52-119.23,34.37-165.26,79.69a99.43,99.43,0,0,0-7,8.25l-4.78-.06a53.3,53.3,0,0,0-4.24-5.09c-7.08-6.78-13.87-13.93-21.45-20.1-72.66-59-154.71-78.64-245.44-54.9C149.82,137.9,93,185.32,55.58,255,22.79,316.12,13.17,381.25,27.69,449.46c2.14,10,4.89,20,7.35,29.92l1.52-.27c0-2.66.06-5.31,0-8-.35-13.1-1.36-26.23-1-39.31C36.71,390.75,46.85,351.91,67,316c17.42-31.07,40.2-57.5,70.51-76.81,36.82-23.45,77.53-34.66,120.8-36.48,54.94-2.31,107.32,8.28,156.35,33.71a13.83,13.83,0,0,0,3.23,1.26c15.31,8.43,82.08,40.22,156.79.48l1.3-.7a21.65,21.65,0,0,0,5.23-2.76c39.17-25.05,81.73-35.69,128-29.23C786.72,216.3,844.71,257,883.67,324c35.3,60.75,39.05,126.06,21.84,193.05C893.58,563.54,871,604.85,841.7,642.6a36.16,36.16,0,0,0-7.77,19.84c-.66,7.81-1.8,15.57-2.7,23.36-.28,2.44-.45,4.89-.67,7.33l1.65.84c3.78-3.3,7.67-6.5,11.34-9.93,20.58-19.19,38.7-40.53,55.32-63.2,34.38-46.9,60.1-97.8,72.21-155C982.14,413.46,982.1,361.37,966.78,309.86Z"/>
  <path d="M764.22,619.82c-1.91-9-5.21-17.34-14-22.05-13.29-7.11-22.56-1.6-22.21,13.18,0,.78,0,1.56.07,2.35.72,20.41-.16,40.74-4.31,60.77Q703.68,771,634.88,842.16c-4.28,4.45-9.07,8.4-13.62,12.58l1.3,1.45c1.28-.74,2.63-1.39,3.84-2.23,27.51-19.1,55.07-38.11,82.46-57.36,20.53-14.44,34.45-33.79,42.73-57.53,7.67-22,11.67-44.69,14-67.75C767.32,654.11,767.81,636.88,764.22,619.82Z"/>
  <path d="M799,608.24c-4.56-2.14-9.8-3.23-13.2.37-2.5,2.64-3.44,7.6-3.47,11.54-.05,6.41,1.7,12.82,1.85,19.25a300.75,300.75,0,0,1-15.38,101.69c-.88,2.67-1.37,5.46-2.35,9.46,2.58-1.5,4-2.07,5.15-3,10.35-9,20.6-18,31-27a31.74,31.74,0,0,0,10.94-20.84c1.71-14,4-28,4.52-42a101.32,101.32,0,0,0-3.48-28.32C812.32,620.67,808,612.47,799,608.24Z"/>
  <path d="M708.41,661.29c2.74-18.28,4.15-36.64,1.75-55.09-1.18-9.12-4.7-17.25-12.47-22.45-13-8.71-30.91-3.35-37.64,11.37a91.79,91.79,0,0,0-6.29,20.16c-8.36,42.4-25.9,80.37-53.29,113.9-17.43,21.34-37.57,38.94-63.52,49-37.67,14.67-76,13.48-114.51,4-2.31-.56-4.43-1.89-6.64-2.87.07-.51.14-1,.2-1.52a46.13,46.13,0,0,1,4.78-.88c10.74-.85,21.52-1.4,32.23-2.49,34.55-3.54,67.52-12.29,97.07-31.24,13.34-8.56,24.5-19,26.56-36.14a27.11,27.11,0,0,0-25-30.37c-13.17-1-25.26,2.55-37.16,7.33-18.3,7.36-37,13-56.87,13.91-44.92,2.13-87.77-5.74-128.46-25.43-38-18.39-73.34-40.69-105.2-68.43-23.45-20.42-45.11-42.44-62.36-68.49C132,491,116.7,441.77,114.68,388.43c-1.93-50.58,10.56-97.14,40.09-138.71.95-1.33,1.6-2.87,3.21-5.82a56.7,56.7,0,0,0-5.49,2.73c-17.44,11.87-33.41,25.46-46.57,42-39.1,49.16-57,105.1-54.13,168,2.15,47.41,15.55,91.34,37.68,133,20.82,39.14,48.08,73.47,78.88,105,41.18,42.19,86.29,79.89,133.46,115.21,36.41,27.25,74.27,51.82,117.26,67.7,23.59,8.71,47.83,14,72.92,14.54,43.2.84,79.6-17,112.42-43.15C627,830.9,644.28,808,660.07,784,684.74,746.43,701.72,705.88,708.41,661.29Z"/>
  <g>
    <path d="M697.69,583.75a24.7,24.7,0,0,0-13.8-4.2,26.34,26.34,0,0,0-23.84,15.57,91.79,91.79,0,0,0-6.29,20.16,268.84,268.84,0,0,1-11.14,40.09l0,.1q-3.33,9.1-7.32,17.89c0,.11-.11.22-.16.34q-2.61,5.71-5.51,11.31a3.24,3.24,0,0,1-.17.32q-1.39,2.7-2.87,5.37c-.12.2-.23.4-.34.6q-3,5.34-6.19,10.54c-.13.21-.26.43-.4.64-1,1.66-2.09,3.31-3.17,4.95l-.54.81c-1.11,1.67-2.23,3.33-3.38,5l0,0q-1.69,2.44-3.47,4.84l-.61.85c-1.15,1.55-2.31,3.09-3.5,4.62l-.7.9q-1.85,2.37-3.75,4.71-3.27,4-6.67,7.82c-15.88,17.8-34.14,32.38-56.85,41.22l-.08,0c-1.19.46-2.38.91-3.56,1.34l-1.24.43-2.41.84-1.47.48L526,782l-1.56.46-2.1.62-1.61.44-2,.55-1.64.4c-.68.17-1.35.34-2,.49l-1.65.38-2,.43-1.67.34-2,.38-1.67.3-2,.34-1.67.26-2,.28-1.67.23-2,.24-1.65.19-2,.19-1.64.15-2.08.16-1.61.11-2.15.11-1.54.08-2.27.07-1.42,0c-.87,0-1.75,0-2.63,0h-2.06l-2.49,0-1.33,0-2.15-.07-1.45-.06-2-.1-1.51-.09-2-.13-1.54-.12-1.95-.17-1.57-.14-1.92-.2L454,788l-1.93-.23-1.58-.2-1.93-.26-1.57-.22L445,786.8l-1.57-.24-2-.33L440,786l-2-.36-1.53-.28-2-.4-1.47-.29-2.12-.45-1.39-.29-2.33-.53-1.18-.26c-1.17-.27-2.33-.55-3.5-.84a14.77,14.77,0,0,1-2.54-.9c-1.37-.61-2.72-1.36-4.1-2,.07-.51.14-1,.2-1.52a46.13,46.13,0,0,1,4.78-.88q4-.32,8.06-.59c5.38-.38,10.76-.73,16.13-1.17q4-.33,8-.73a277.63,277.63,0,0,0,38.11-6.45c1-.25,2.07-.51,3.1-.78q9.27-2.41,18.28-5.63l3-1.1a184.07,184.07,0,0,0,34.59-17.28c6.67-4.28,12.79-9,17.51-14.84.59-.73,1.16-1.48,1.7-2.24a41.82,41.82,0,0,0,3-4.8,40.46,40.46,0,0,0,4.38-14.26,27.42,27.42,0,0,0-.28-8.46,26.28,26.28,0,0,0-1.08-4,26.92,26.92,0,0,0-5.5-9.15,27.32,27.32,0,0,0-18.18-8.8h0c-.78-.06-1.55-.1-2.33-.13h-.79c-.52,0-1,0-1.56,0h-.82l-1.47,0-.9.05-1.38.09-.92.07-1.34.14-.92.11-1.36.19-.87.13-1.44.25-.77.14c-.58.11-1.17.23-1.75.36l-.44.09c-.73.16-1.45.33-2.18.52l-.61.16-1.56.41-.81.23L526,680l-.87.26-1.29.42-.88.28-1.29.44-.86.3-1.32.48-.81.3-1.45.55-.67.25-2.11.83c-5.72,2.3-11.47,4.43-17.3,6.3-3.49,1.12-7,2.15-10.55,3.06a148.05,148.05,0,0,1-21.62,4c-2.45.26-4.91.45-7.4.57s-4.87.2-7.3.25c-.78,0-1.56,0-2.35,0-1.5,0-3,.06-4.5.06H443c-1.19,0-2.37,0-3.55,0s-2.61,0-3.91-.07c-1.11,0-2.21-.08-3.32-.13-1.37-.05-2.73-.09-4.09-.17-1,0-2-.13-3.06-.2-1.45-.09-2.89-.18-4.32-.29l-2.77-.26c-1.53-.14-3.06-.28-4.58-.44-.82-.09-1.63-.2-2.45-.3-1.62-.19-3.24-.38-4.85-.6-.71-.09-1.41-.21-2.12-.31-1.72-.25-3.44-.5-5.15-.79-.59-.09-1.18-.21-1.77-.31-1.82-.32-3.64-.64-5.46-1-.48-.09-.95-.2-1.43-.3q-2.88-.57-5.75-1.21l-1.12-.26c-2-.47-4-.94-6-1.45l-.83-.22c-2.09-.55-4.18-1.11-6.26-1.7l-.57-.18q-3.25-.93-6.49-2l-.33-.11q-3.35-1.06-6.67-2.23l-.17-.06q-3.41-1.2-6.79-2.5l-.06,0q-3.44-1.32-6.86-2.75h0q-6.61-2.76-13.15-5.91c-38-18.39-73.34-40.69-105.2-68.43q-7.28-6.33-14.29-12.9h0q-4.8-4.51-9.46-9.16l-.61-.6c-.86-.86-1.72-1.73-2.57-2.6l-1.05-1.08c-.8-.83-1.61-1.66-2.4-2.49l-1.11-1.17c-1.42-1.51-2.82-3-4.22-4.55L187,568.25c-.62-.68-1.22-1.36-1.83-2l-1.68-1.91c-.57-.65-1.13-1.31-1.69-2L180,560.18l-1.51-1.82c-.79-1-1.57-1.91-2.35-2.88l-.94-1.16c-1.06-1.33-2.1-2.67-3.14-4l-1.08-1.43c-.72-1-1.44-1.91-2.14-2.87q-.58-.78-1.14-1.56c-.72-1-1.43-2-2.13-3-.33-.46-.66-.92-1-1.39q-1.51-2.17-3-4.41a285.56,285.56,0,0,1-15.13-25.59q-1.14-2.18-2.23-4.36c-18.26-36.43-27.93-75.6-29.51-117.27a241.9,241.9,0,0,1,3.23-50.7q.78-4.47,1.73-8.89a213.49,213.49,0,0,1,35.13-79.12c.95-1.33,1.6-2.87,3.21-5.82-1.44.71-2.51,1.19-3.38,1.59l-.61.29a11.62,11.62,0,0,0-1.5.85c-1.09.74-2.17,1.49-3.25,2.24s-2.15,1.52-3.21,2.29q-2.82,2-5.56,4.14-3.51,2.68-6.91,5.48A193.52,193.52,0,0,0,111,282.56q-2.6,3-5.06,6.07c-2.44,3.07-4.81,6.17-7.08,9.3s-4.48,6.28-6.59,9.45c-1.06,1.59-2.09,3.19-3.11,4.79q-5.37,8.49-10,17.22c-1.28,2.42-2.53,4.86-3.73,7.32q-2.42,5-4.6,10.09-1.76,4.11-3.34,8.26c-.43,1.12-.86,2.25-1.27,3.37-.94,2.57-1.84,5.14-2.69,7.73q-2.1,6.43-3.85,13c-.76,2.85-1.46,5.73-2.12,8.62q-1.41,6.28-2.51,12.68-1.8,10.6-2.7,21.52a272.64,272.64,0,0,0-.59,34.63q.41,8.89,1.33,17.62,1.16,10.9,3.1,21.58c.52,2.85,1.07,5.68,1.67,8.5q2.25,10.59,5.25,20.95c.4,1.38.81,2.76,1.22,4.14q1.26,4.13,2.63,8.22c.46,1.37.92,2.73,1.4,4.09a344.31,344.31,0,0,0,21.08,47.87,412.41,412.41,0,0,0,40.73,61.85q12.72,16.11,26.77,31.21,5.59,6.06,11.38,12,3.72,3.81,7.48,7.57l3.4,3.37,4.09,4,4.54,4.39c1,.95,2,1.91,3,2.85,1.78,1.71,3.58,3.41,5.38,5.1l2.1,2q3,2.83,6.1,5.64c.46.44.93.87,1.4,1.3q3.33,3,6.69,6.07l.82.74q3.58,3.23,7.19,6.4l.35.31q3.78,3.33,7.59,6.63c1.89,1.63,3.77,3.26,5.67,4.88q4.68,4,9.4,7.94,16,13.34,32.38,26.17,4.55,3.56,9.12,7.08,8.36,6.44,16.8,12.76,13.15,9.84,26.61,19.13l3.7,2.51,2.5,1.68,3.57,2.37,2.79,1.82,3.42,2.21c1.86,1.2,3.74,2.38,5.62,3.55,1,.61,2,1.22,3,1.82,1.17.72,2.33,1.43,3.51,2.13q1.5.91,3,1.8c1.25.74,2.5,1.47,3.76,2.19l2.75,1.58c2.06,1.17,4.13,2.33,6.21,3.46l2.06,1.11q2.34,1.26,4.7,2.49l2.56,1.31c1.52.78,3,1.54,4.57,2.3l2.31,1.14c2.25,1.09,4.5,2.16,6.77,3.21l1.07.48q3,1.35,6,2.65l2.26,1q2.55,1.08,5.13,2.12l2.19.89c2.39.95,4.78,1.88,7.2,2.77h0a248.47,248.47,0,0,0,31.35,9.37q4.53,1,9.11,1.86A202.82,202.82,0,0,0,492,892.05c1.17,0,2.33,0,3.49,0l1.88,0,2.07,0,1.87-.07,2.05-.1,1.85-.12,2-.16,1.84-.17,2-.2,1.84-.22,2-.25,1.81-.26,2-.31,1.79-.31,1.94-.35c.6-.12,1.19-.23,1.78-.36l1.92-.4,1.77-.39,1.9-.46,1.75-.43,1.88-.5,1.73-.48,1.88-.54,1.7-.52,1.87-.59,1.69-.56,1.84-.63,1.68-.6,1.83-.68,1.66-.63,1.81-.72,1.65-.67,1.8-.76,1.63-.7,1.79-.81,1.61-.73,1.78-.85,1.59-.77,1.77-.89c.53-.26,1.05-.53,1.57-.8l1.77-.92,1.55-.83,1.76-1,1.53-.85,1.76-1,1.5-.87c.59-.35,1.18-.7,1.76-1.06l1.48-.89,1.75-1.1,1.47-.92,1.73-1.13,1.46-1,1.74-1.17,1.42-1,1.76-1.22,1.38-1,1.81-1.3,1.3-.94,1.92-1.42,1.18-.88c.71-.53,1.42-1.08,2.13-1.62l.94-.72,3.06-2.4h0c1.31-1,2.59-2.1,3.86-3.17l1.24-1.07c.85-.73,1.7-1.46,2.54-2.21l1.42-1.28,2.28-2.11,1.43-1.35c.76-.73,1.5-1.46,2.25-2.2l1.32-1.3c.93-.94,1.84-1.89,2.75-2.84l1.52-1.6c.8-.85,1.59-1.7,2.38-2.57l1.56-1.74,1.67-1.89,1.69-1.95c.48-.57,1-1.14,1.45-1.72s1.18-1.4,1.76-2.11l1.23-1.51,1.89-2.34.44-.57q3.76-4.77,7.36-9.69L647,803c.76-1,1.52-2.09,2.26-3.14l.42-.58c.79-1.11,1.58-2.23,2.36-3.35h0q4.13-5.92,8.08-12c24.67-37.53,41.65-78.08,48.34-122.67,2.74-18.28,4.15-36.64,1.75-55.09C709,597.08,705.46,589,697.69,583.75Z"/>
    <path d="M766.47,750.55c2.58-1.5,4-2.07,5.15-3,10.35-9,20.6-18,31-27a31.74,31.74,0,0,0,10.94-20.84c.5-4.07,1-8.15,1.59-12.22-1.79-11.19-4.26-22.3-6.3-33.46S804.13,631.42,803,620q-.48-5-.76-10a25.49,25.49,0,0,0-3.26-1.83,18.33,18.33,0,0,0-7.46-2,7.55,7.55,0,0,0-5.74,2.35c-2.5,2.64-3.44,7.6-3.47,11.54-.05,6.41,1.7,12.82,1.85,19.25a300.75,300.75,0,0,1-15.38,101.69C767.94,743.76,767.45,746.55,766.47,750.55Z"/>
    <path d="M750.21,597.77a22.85,22.85,0,0,0-10.51-3.08c-6.92,0-11.35,5.09-11.69,14.3a4.32,4.32,0,0,1,.7,1.34c.91,4.48,2.24,8.94,2.49,13.46a44.73,44.73,0,0,0,8.55,23.76,31.53,31.53,0,0,1,2.94,5.19,20,20,0,0,1,1.6,5c2.94,17.69,5.86,35.38,8.64,53.09a50.7,50.7,0,0,0,3.51,12.51,322.65,322.65,0,0,0,9.15-52c1.73-17.21,2.22-34.44-1.37-51.5C762.31,610.78,759,602.48,750.21,597.77Z"/>
    <path d="M693.3,797.9c.42-1.88,2.45-3.4,3.68-5.12s3.45-3.58,3.63-5.52c1.31-13.87,3.69-27.79,1.64-41.71-.13-.91-.23-1.8-.33-2.7a334.24,334.24,0,0,1-49.66,79.91c0,4.46-.1,8.93-.19,13.4q19.38-13.44,38.73-26.92Q692,803.57,693.3,797.9Z"/>
    <path d="M846.71,407c-.91-2.68-2.65-5.18-1.13-8.29.34-.69-.35-2-.81-2.91-2.46-4.8-4.95-9.58-7.52-14.31-.53-1-1.46-2.4-2.27-2.44-3.67-.17-4.26-2.82-4.84-5.48a37.15,37.15,0,0,0-9.72-18.34,203.24,203.24,0,0,1-13.89-15.87c-4.62-5.88-10.55-9.47-17.52-11.67-2.9-.92-5.79-1.87-8.69-2.8-10.36-3.33-20.75-6.54-31-10.07a6.83,6.83,0,0,1-3.9-3.84,30.72,30.72,0,0,1-1.33-10.4c.3-3.88.58-8.73,2.91-11.25,3.66-3.95,4.22-8.41,5.17-13,.43-2,.63-4.3-2.65-4.6a2.94,2.94,0,0,1-1.83-2.21c.27-5.15-1.6-10.52,1.52-15.43a4.87,4.87,0,0,0,.36-3c-.78-5.3-1.61-10.59-2.56-15.86-.29-1.54-.62-3.46-1.66-4.41a112.32,112.32,0,0,0-10.64-8.57c-2.08-1.49-4.23-1.22-6.38.66a13.25,13.25,0,0,1-5.48,2.56,90.34,90.34,0,0,1-9,1.43c-19.86,2.79-27.54,20-28.28,33.91a7.23,7.23,0,0,0,2.34,5.21c2.4,1.92,3.22,4.85.6,6.48-2.79,1.74-2.79,4.15-2,6.4,1.42,4.18,2.15,9,7.35,10.74a3.29,3.29,0,0,1,1.55,1.82c1.59,4.11,3.81,8,3,12.78a61,61,0,0,0-.7,9.46c0,2.94-1.41,4.48-4,5.4-10.17,3.52-20.15,7.67-30.49,10.55-13.9,3.88-24.72,10.71-29.84,25-3.08,8.58-8.58,15.8-14,23a12.57,12.57,0,0,0-2.25,5.75c-.45,3.41.35,7.12-3.92,8.87-.64.26-.89,1.58-1.23,2.44-2.77,6.86-5.36,13.65-6,21.25-.69,8.59-2.79,17.05-4,25.62-.75,5.55,1.4,10.19,5.26,14.31,11.53,12.3,24.95,21.93,41.2,26.44,8,2.22,11.55,6.58,13.09,14.13.64,3.16.46,5.51-2,7.48s-3.15,4.44-3.15,7.44c0,7.74-.39,15.48-.17,23.21.11,3.74,1.29,7.45,1.92,11.19a11.86,11.86,0,0,1,.2,3.46c-1.47,10.67-3.38,21.3-4.45,32,0,.47-.09.94-.14,1.4a38.24,38.24,0,0,1,30.22-15.07,36.75,36.75,0,0,1,20.48,6.23,38.75,38.75,0,0,1,15.35,20.52,23.62,23.62,0,0,1,3.65-4.93,22.57,22.57,0,0,1,16.33-6.68,34.44,34.44,0,0,1,16.17,4.5c5.3,2.84,12.3,7.87,17,19.74a22.09,22.09,0,0,1,4.22-6.57,19.65,19.65,0,0,1,14.46-6.1,28,28,0,0,1,10.14,2.09c-.17-5.81-.28-11.62-.44-17.43-.26-8.92-.84-17.75-3.38-26.38a6.13,6.13,0,0,1,.91-4.83c1.93-2.41,1.89-4.84,1.55-7.59-1.11-9.07-2.51-18.13-3-27.24a28.72,28.72,0,0,0-6.57-17.36c-.58-.71-1-1.51-2-2.86,1.05-.79,2.5-1.36,3-2.4.74-1.49,1.51-3.58,1-4.94-1.09-2.91-.26-4.31,2.29-5.54q7.6-3.66,15.06-7.59c12.05-6.3,23.94-12.83,34.68-21.32,5.59-4.41,8.24-9.74,8.09-16.95C852.72,424.45,849.7,415.75,846.71,407ZM659.87,451.29c-5.68-3.46-11.3-7-17-10.37-3.48-2-3.64-2.94-.88-5.94s5.27-6.12,7.77-9.29c2-2.5,3.8-5.09,2.26-8.63-.24-.55.46-1.51.72-2.28l1.41,0c1.6,5.08,3.51,10.08,4.71,15.25,1.53,6.55,2.48,13.24,3.67,19.87.14.77.22,1.55.44,3.12C661.51,452.24,660.68,451.78,659.87,451.29ZM786.61,456c-.38-.46-1-.84-1.05-1.32q-1.77-9-3.37-18a3.28,3.28,0,0,1,.31-2c3.7-6.68,3.8-14.18,5-21.43.72-4.51,1.18-9.06,1.81-13.59.16-1.1.5-2.17.76-3.26l1.24-.19c1.22,4.72,6.66,7,6.53,12.57,0,.89.83,1.89,1.47,2.69,2.2,2.74,4.54,5.37,6.71,8.13,1.66,2.1,3.23,3.42,6.39,3.3,1.67-.06,3.45,2.79,5,4.14Z"/>
    <path d="M183.72,384.77c-3,12.42-7.16,24.32-14.39,35-.36.54-.57,1.18-.88,1.76-1.2,2.14-.9,4.05.37,6.16a5.44,5.44,0,0,1,.52,4.06c-5,15.12-8,30.48-6.29,46.52.5,4.57.53,9.19,1,13.76,1.08,10.08,1.25,20.32,3.15,30.25q2.11,3.4,4.33,6.76C186.08,551,205.22,572,231.79,595.09c29.66,25.83,63.21,47.64,102.55,66.67,3.31,1.61,6.66,3.11,10,4.56.37-12.67.67-25.34-.94-38-.65-5.14-.34-10.41-.21-15.62.09-3.27.94-6.52,1-9.78,0-6.57-.33-13.14-.42-19.71a6,6,0,0,1,.84-3.63c3.45-4.07,7.16-7.9,10.69-11.89,2.3-2.6,5-5.07,6.53-8.09,2.14-4.14,3.3-8.77,5-13.12,1.24-3.1,2-7.69,4.32-8.76,3.9-1.81,5.39-4.81,7.3-7.88a5.4,5.4,0,0,0-.34-6.67,8.47,8.47,0,0,1-1.68-5.07c.64-10.15,1.58-20.29,2.41-30.43,1.28-15.73,2.83-31.45-.13-47.18-.23-1.23.82-2.7,1.28-4.05s1.78-3.29,1.33-4.39c-2.84-7-3.92-14.86-10-20.32-.72-.65-.94-1.91-1.27-2.92-2.52-7.56-4.86-15.18-7.54-22.67-1.8-5-5-9.73-5.91-14.87a42,42,0,0,0-9.86-20.75,20.47,20.47,0,0,0-7.63-5.25,73.13,73.13,0,0,0-13.24-3.8c-7.83-1.53-14.67-4.5-20.31-10.4-2.41-2.51-5.83-4-8.74-6.08a14.23,14.23,0,0,1-1.9-2.09c1.34-.79,2.32-1.44,3.36-2,11.58-5.86,17.13-15.89,14.08-28.39-3-12.31-6-24.51-7.51-37.16-.73-6.19-3.83-12.28-6.72-18-2.52-5-6.17-5.57-11.35-3.48a13,13,0,0,1-3.19.68c-4.34.54-8.69,1-13.05,1.54-6.24.71-11.67,3.2-15.69,8.05-3.84,4.62-7.44,9.46-10.88,14.39a53.12,53.12,0,0,0-4.28,8.11c-.74,1.61-.53,2.89,1.73,3.27,3.18.55,4.09,2.55,3.21,5.74-1.41,5.06-2.78,10.13-3.92,15.25-2.16,9.69-1.2,18.88,5.75,26.51,4.5,4.94,3.68,5.38,10,2.4.51,2.3-.13,3.69-2.2,4.74a28.12,28.12,0,0,0-5.23,3.3c-4,3.25-7.78,6.75-11.79,10a12.48,12.48,0,0,1-4.58,2.28c-4.13,1.07-8.33,1.91-12.51,2.75-6.24,1.25-11.94,3.1-15.72,8.95-6,9.29-12.43,18.29-18.56,27.49A17.17,17.17,0,0,0,183.72,384.77Zm142.41,52.76c1.23-6.33,2.69-12.62,4.1-18.92a10.45,10.45,0,0,1,1-1.85c.81.89,1.44,1.54,2,2.22a41.5,41.5,0,0,1,10,25.73c.16,3.06,1.24,4.77,4.69,3.67a2.43,2.43,0,0,1,2.11.4c2.88,3.44,5.89,6.93,5.35,11.85a142,142,0,0,0,.43,31.11c.81,7.38,1.61,14.85,1.32,22.24-.2,4.9-2.78,9.45-7.38,13-.75-1.32-1.63-2.24-1.82-3.29-2-10.94-5-21.74-4.27-33,.59-9.32-3.61-17.45-7-25.73-3.16-7.8-6.6-15.49-9.82-23.27A7.8,7.8,0,0,1,326.13,437.53ZM186.72,516.89c1.65-11.14,3.25-22.32,4.15-33.55a138.74,138.74,0,0,0-.19-23.24c-.5-5.65,2.35-9.3,5.3-13.21a2,2,0,0,1,1.05-.75c8.25-2.14,9.41-10.15,13.24-15.95a.85.85,0,0,0,.1-.64c-1.5-4.36,1.59-6.55,4-9.34,1.93-2.24,3-5.22,4.48-7.87l1-.06q1.72,7.1,3.44,14.21c0,.1,0,.22.06.32,3.28,9.33,2.44,17.91-3.25,26.38-4.49,6.69-4.62,15-5.64,22.76-1.76,13.45-3.2,26.94-5,40.39-.83,6.17-2.33,12.25-3.21,18.42-.27,1.88.41,3.93.87,5.85.35,1.47,1.43,2.84,1.47,4.28,0,1.05-1.1,2.13-1.71,3.2-.85-.73-2-1.3-2.48-2.22-.92-1.83-.94-4.3-2.22-5.71a75.58,75.58,0,0,0-10.39-9.77C187.08,526.82,185.89,522.53,186.72,516.89Z"/>
  </g>
</svg>