<svg xmlns="http://www.w3.org/2000/svg" viewBox="0 0 77.69 81.4"><defs><style>.cls-1{fill:#f5c300;}</style></defs><g id="Layer_2" data-name="Layer 2"><g id="Слой_1" data-name="Слой 1"><path class="cls-1" d="M76.69,38.22c.1-3.15,1.73-7.75.62-10.69a2.94,2.94,0,0,0-3.46-1.93,3,3,0,0,0-1.47-2.32c-2.16-1.37-5.75-.22-8.14.06-3.48.41-7,.84-10.46,1.15A140.48,140.48,0,0,0,52.54,4.71a1.62,1.62,0,0,0-.49-.91A3,3,0,0,0,49.33.12c-3.22-.42-6.7.38-9.95.64-4.34.35-8.7.44-13,.76a2.54,2.54,0,0,0-2.4,1.89,3,3,0,0,0-3,3C21.19,11,21.47,15.5,22,20a36.94,36.94,0,0,0,.75,5l.06.37c-3.63,0-7.26.05-10.9.11-3.47.05-7.4-.9-9.62,2.17a0,0,0,0,1,0,0A1.78,1.78,0,0,0,.37,29.41,122.14,122.14,0,0,0,.25,46.52C.5,49.84.07,55.65,4.5,56.09a2.55,2.55,0,0,0,1.58-.27,2.38,2.38,0,0,0,.83.41,76.18,76.18,0,0,0,11.67,1.39,64.29,64.29,0,0,0,6.58.51C23.8,64.51,24,70.94,24.1,77.7c.07,3.37,4.07,4.13,5.89,2.28,4.37.37,8.77.61,13.16.77.29.15.56.35.86.49a1.43,1.43,0,0,0,1.85-.42c1.15,0,2.32.1,3.47.1a2.92,2.92,0,0,0,2.93-2A2.63,2.63,0,0,0,55,75.93c-1.21-6.79-.16-13.25.84-20,2.83.2,5.66.36,8.5.51s7.59,1.5,9.75-.79A3.09,3.09,0,0,0,75,53.54a2.15,2.15,0,0,0,2-2.29,111.05,111.05,0,0,1-.3-13ZM63.27,29.63c2-.09,5.54.35,7.85-.37-.6,2.45-.32,5.43-.31,7.62,0,1.06,0,2.12.07,3.17-3.28-4.25-10-7.9-13.39-10.28,1.93,0,3.85-.06,5.78-.14ZM35.15,7.09a1.79,1.79,0,0,0,0,1.29,19.5,19.5,0,0,0,2.12,3.07c1.06,1.33,2.17,2.61,3.35,3.84S43,18.06,44.73,18A1.29,1.29,0,0,0,46,16.43c-.36-1.43-1.56-2-2.65-2.87A44.69,44.69,0,0,1,40,10.45a32.23,32.23,0,0,1-2.55-2.93,2.06,2.06,0,0,0-.5-.4l2.46,0c2.78,0,6,.19,8.81-.59a139.85,139.85,0,0,0-1,15.74c-6.42-4.66-12.79-9.38-18.86-14.47a1.27,1.27,0,0,0-1.08-.28c0-.26-.06-.52-.1-.78,2.65.17,5.3.26,8,.31Zm-27.54,44c-.14,0-.24.06-.37.08-.21-1.74-.68-3.46-.82-4.27-.24-1.5-.47-3-.7-4.52,1,1,2,2,3.09,3,2.25,2.09,4.95,4.86,8,5.66a67.24,67.24,0,0,0-9.2,0Zm12,.11-2.55-.11a1,1,0,0,0,.78-1.65c-2-2.29-5.05-3.76-7.4-5.67-1.8-1.45-3.51-3-5.2-4.59-.23-1.64-.46-3.28-.66-4.92C10.88,40.07,17.39,45.64,24,51.13c-1.53,0-3.06.07-4.35,0ZM4.19,30.87l-.06-.43c2.12,1,4.84.62,7.39.62a1.09,1.09,0,0,0,.14,1.54c12.06,9.55,24.11,20.23,37,28.6a46.35,46.35,0,0,0-.18,4.71C34.44,53.33,18.59,43,4.19,30.87ZM30.81,75.34c0-1.59-.14-3.18-.24-4.77C32,71.89,33.44,73.16,35,74.42l.68.59c-1.6.11-3.22.19-4.82.33Zm18.52-.88c-2.85,0-5.72.1-8.58.24-1-.67-2-1.32-2.92-2-2.53-1.78-5-3.64-7.48-5.55a100.86,100.86,0,0,1-.3-11c5.95,4.94,11.89,9.9,17.69,15a2.17,2.17,0,0,0,1.31.54,26.27,26.27,0,0,0,.64,2.76,2.09,2.09,0,0,0-.36-.08Zm16-23.87c-4.18.25-8.37.39-12.55.79a2,2,0,0,0-.44.12,2.6,2.6,0,0,0-2.69,2.34c-.18,1-.35,2-.5,3.09-10.37-9.87-23.48-18-35.3-25.86,4,.08,8,.13,12,.12q6.68,6,13.69,11.61c3,2.38,8,7.67,12.13,7.38a1.24,1.24,0,0,0,.87-2.09C50,45,44.56,42.85,41.29,40.48c-4.43-3.22-8.69-6.66-13-10.08a3.15,3.15,0,0,0,.51-3.49,50.36,50.36,0,0,0-.33-7c5.69,5.71,12,10.88,18.08,16.16C52.08,40.81,58.12,47.75,65,50.49c1.24.49,2.62-1.26,1.8-2.33C62.69,42.82,55.67,39.09,50.36,35c-7.48-5.7-14.57-11.91-22.07-17.57,0,0,0-.08,0-.12-.16-2.23-.38-4.45-.62-6.67,6.6,7,15.14,12.37,22.62,18.25,4.32,3.38,8.62,6.79,12.82,10.33,1.65,1.39,5.87,3.9,6.71,5.89a1.33,1.33,0,0,0,1.56.74c.18,1.49.39,3,.68,4.45-2.11-.5-4.81.14-6.72.25Z"/></g></g></svg>