<?xml version="1.0" standalone="no"?>
<!DOCTYPE svg PUBLIC "-//W3C//DTD SVG 1.1//EN" "http://www.w3.org/Graphics/SVG/1.1/DTD/svg11.dtd">
<svg xmlns="http://www.w3.org/2000/svg" viewBox="0 0 1300.07 931.84" width="1300.0699462890625" height="931.8400268554688">
  <defs>
    <style>
      .cls-1 {
        font-size: 137px;
        font-family: Montserrat-Medium, Montserrat;
        font-weight: 500;
      }

      .cls-2 {
        fill: #42a9f7;
      }

      .cls-3 {
        fill: #fde041;
      }

      .cls-4, .cls-5 {
        fill: #fff;
      }

      .cls-4 {
        stroke: #171716;
        stroke-width: 7px;
      }

      .cls-4, .cls-6 {
        stroke-miterlimit: 10;
      }

      .cls-6 {
        fill: #6f7173;
        stroke: #181716;
        stroke-width: 4px;
      }

      .cls-7 {
        fill: #f6cc42;
      }

      .cls-8 {
        fill: #0e2268;
      }
    </style>
  </defs>
  <g id="Layer_2" data-name="Layer 2">
    <g id="Dav-Collaboration_Image" data-name="Dav-Collaboration Image">
      <g>
        <g>
          <text class="cls-1" transform="translate(0 702.6)">LEARN</text>
          <rect class="cls-2" y="731.61" width="771.01" height="200.23"/>
          <rect class="cls-3" x="739.2" y="731.61" width="560.87" height="200.23"/>
          <g>
            <path d="M179.13,855.22v21.17H101.37V779.53h76V800.7H128.49V817h43v20.48h-43v17.71Z"/>
            <path d="M267.2,808.45q8.51,8.31,8.51,25v42.89H249.42V837.78q0-15.35-12.31-15.35a14,14,0,0,0-10.87,4.43q-4.08,4.42-4.08,13.28v36.25H195.87v-75h25v8.16a29.75,29.75,0,0,1,10.51-7,35.72,35.72,0,0,1,13.28-2.42Q258.69,800.15,267.2,808.45Z"/>
            <path d="M376.71,801.4v61.29q0,20.89-11.34,31.34t-32.65,10.45A83.12,83.12,0,0,1,312,902a49,49,0,0,1-16.47-7.34l9.55-18.4a33.73,33.73,0,0,0,11.55,5.88,46.76,46.76,0,0,0,13.77,2.14q10.38,0,15.22-4.56t4.85-13.56v-2.49q-7.62,8.87-22.28,8.86a38.48,38.48,0,0,1-18.4-4.5,34.24,34.24,0,0,1-13.43-12.73,38.58,38.58,0,0,1,0-37.92,34.39,34.39,0,0,1,13.43-12.73,38.59,38.59,0,0,1,18.4-4.49q16.05,0,23.52,10.38V801.4Zm-30.64,45.93a15.54,15.54,0,0,0,.06-22.07A16.64,16.64,0,0,0,334.38,821a16.93,16.93,0,0,0-11.84,4.22,15.38,15.38,0,0,0,.07,22.07,16.81,16.81,0,0,0,11.77,4.29A16.56,16.56,0,0,0,346.07,847.33Z"/>
            <path d="M396.36,773.72h26.29V876.39H396.36Z"/>
            <path d="M444,789.08a13.41,13.41,0,0,1,0-19.92q4.43-4,11.62-4T467.2,769a12.29,12.29,0,0,1,4.43,9.75A13.43,13.43,0,0,1,467.2,789q-4.43,4.08-11.62,4.08T444,789.08Zm-1.52,12.32h26.28v75H442.44Z"/>
            <path d="M497.22,875.49a48.8,48.8,0,0,1-14.66-5.61l7.88-18A44.93,44.93,0,0,0,502.62,857a54.67,54.67,0,0,0,14,1.86c4.25,0,7.27-.43,9.07-1.31a4.11,4.11,0,0,0,2.7-3.8q0-2.49-3.26-3.53a67.65,67.65,0,0,0-10.31-2,101.85,101.85,0,0,1-15.28-2.9,23.71,23.71,0,0,1-10.87-6.64q-4.56-4.85-4.56-13.56a20.48,20.48,0,0,1,4.29-12.8q4.29-5.61,12.52-8.86a53.83,53.83,0,0,1,19.72-3.25,79.51,79.51,0,0,1,16.19,1.66,46.92,46.92,0,0,1,13.42,4.7l-7.89,17.85a43.69,43.69,0,0,0-21.58-5.53c-4.16,0-7.2.48-9.14,1.45s-2.9,2.24-2.9,3.81q0,2.63,3.18,3.67a75.14,75.14,0,0,0,10.52,2.14,115,115,0,0,1,15.35,3.18,23.52,23.52,0,0,1,10.59,6.57q4.5,4.79,4.5,13.36a20.26,20.26,0,0,1-4.29,12.65q-4.29,5.61-12.66,8.79t-20.13,3.18A80.85,80.85,0,0,1,497.22,875.49Z"/>
            <path d="M638.29,808.45q8.51,8.31,8.51,25v42.89H620.51V837.78q0-15.35-12.32-15.35a14,14,0,0,0-10.86,4.43q-4.08,4.42-4.08,13.28v36.25H567V773.72h26.29v34.59a29,29,0,0,1,10.1-6.09,36.8,36.8,0,0,1,12.45-2.07Q629.78,800.15,638.29,808.45Z"/>
          </g>
          <g>
            <path d="M926.29,779.53v96.86H903.74L861,824.78v51.61H834.14V779.53h22.55l42.76,51.61V779.53Z"/>
            <path d="M969.67,871.82a49.53,49.53,0,0,1,0-87.72,61.87,61.87,0,0,1,55.21,0,49.53,49.53,0,0,1,0,87.72,61.87,61.87,0,0,1-55.21,0Zm40.88-19.65a24.75,24.75,0,0,0,9.41-9.75,31.95,31.95,0,0,0,0-28.92,24.81,24.81,0,0,0-9.41-9.75,27.22,27.22,0,0,0-26.56,0,24.81,24.81,0,0,0-9.41,9.75,31.95,31.95,0,0,0,0,28.92,24.75,24.75,0,0,0,9.41,9.75,27.22,27.22,0,0,0,26.56,0Z"/>
            <path d="M1216.86,779.53l-31.41,96.86h-29.34l-18.53-58.94-19.38,58.94h-29.33l-31.41-96.86h28.23l19.51,61.85,20.47-61.85h25.19l19.51,62.41,20.33-62.41Z"/>
          </g>
        </g>
        <g>
          <g>
            <circle class="cls-4" cx="1039.3" cy="254.02" r="250.52"/>
            <g>
              <g>
                <path d="M887.58,205.42c0-13.07,0-26.14,0-39.21,0-12.13.79-24.23,2-36.3a49.87,49.87,0,0,1,.74-5.17q1.74-8.43,3.6-16.82a18.8,18.8,0,0,1,1.32-3.68c2-4.34,5.41-6.55,10.2-6.39a21.72,21.72,0,0,1,4.71.76A74.83,74.83,0,0,1,936.61,111a70.72,70.72,0,0,1,20.63,24.11A148.35,148.35,0,0,1,969.39,166c2.93,11,4.3,22.26,2.8,33.65a86.93,86.93,0,0,1-3,13.81,124.76,124.76,0,0,1-10.36,24.89c-3.38,6.09-6.19,12.5-10.07,18.31-5.08,7.6-10.14,15.22-15.44,22.67-4.1,5.75-9.62,10.05-15.62,13.71a21.06,21.06,0,0,1-11,3.15A14.46,14.46,0,0,1,892.39,286a47.22,47.22,0,0,1-2.14-12.64q-1.31-26.1-2.46-52.21c-.24-5.22-.27-10.45-.39-15.68Zm31-11.16h-.15q0,21.57,0,43.13c0,5.23.08,10.45.18,15.68,0,1.21,0,2.67,1.33,3.23s2.49-.49,3.35-1.45a69,69,0,0,0,4.44-5.36,131,131,0,0,0,10.1-17,100.25,100.25,0,0,0,11.77-43.34c.2-5.72-.75-11.28-1.73-16.86-2.7-15.48-10.77-27.84-22.06-38.37a10,10,0,0,0-1.57-1.16,5.9,5.9,0,0,0-1.38-.62,1.72,1.72,0,0,0-2.31,1.06,8.09,8.09,0,0,0-.52,2.53c-.29,5.3-.66,10.59-.77,15.88C919,165.8,918.85,180,918.63,194.26Z"/>
                <path d="M1159.22,239.92a3.23,3.23,0,0,0,1.75-2.59c.68-2.9,1.45-5.79,1.85-8.73a231.41,231.41,0,0,1,5.21-25.82c.58-2.25,1.07-4.53,1.45-6.82,2.13-12.9,4.2-25.8,6.32-38.7.89-5.44,2-10.86,2.78-16.31.93-6.18,1.63-12.39,2.55-18.56.43-2.87,1.08-5.71,1.77-8.53a14.91,14.91,0,0,1,1.43-3.63,8.82,8.82,0,0,1,8-4.82c7.25-.19,12.42,4.68,12.4,11.93a50.47,50.47,0,0,1-1,9.07q-3.51,18.51-7.24,37c-1.68,8.32-3.53,16.62-5.3,24.92-.06.29-.14.57-.18.85-2.45,16.22-5.94,32.28-7.34,48.67-.35,4.1-1.35,8.16-2.05,12.24q-3.19,18.68-6.42,37.35a41.56,41.56,0,0,1-1.45,5.92c-1.81,5.48-5.58,8.68-11.35,9.45a21,21,0,0,1-7.58-.28,14.32,14.32,0,0,1-10-7.4c-3.73-7.15-7.34-14.35-9.08-22.33-.7-3.19-1.78-6.29-2.74-9.41-3.66-12-6.78-24-9.54-36.22-.63-2.76-1.6-5.44-2.32-8.17q-.91-3.48-1.63-7-2.9-14.07-5.7-28.17c-.47-2.34-.81-4.72-1.24-7.07-1.14-6.14-2.38-12.26-3.43-18.41-1.3-7.59-2.5-15.19-3.66-22.8-1.2-7.89-2.3-15.8-3.42-23.71a20.73,20.73,0,0,1-.27-3.68,9,9,0,0,1,7.75-8.91c5-.83,9,1.12,12.25,4.71a29.68,29.68,0,0,1,6.25,10.39,195.61,195.61,0,0,1,7.72,29.47c.73,4.21,2,8.33,2.92,12.51,1.87,8.21,3.69,16.43,5.55,24.65.7,3.11,1.44,6.22,2.17,9.33,1.45,6.22,2.89,12.45,4.37,18.66q2.84,11.87,5.73,23.72a47.22,47.22,0,0,0,1.43,4.8A18.25,18.25,0,0,0,1159.22,239.92Z"/>
                <path d="M988.87,276.46c.48-5.79,1.06-11.57,1.43-17.36.4-6.16.49-12.34.9-18.49.74-11.3,1.38-22.62,2.51-33.88,1.61-16.11,3.65-32.18,6.27-48.16,1.86-11.38,4.15-22.7,6-34.09,1.07-6.37,1.94-12.77,3.32-19.09a36.27,36.27,0,0,1,3.16-9c2.38-4.58,6.48-6.39,11.48-5.16a14.39,14.39,0,0,1,6.55,3.73c5.57,5.36,10.1,11.47,12.58,18.84,3.46,10.25,6.69,20.58,10,30.88,1.17,3.67,2.23,7.37,3.29,11.07.73,2.58,1.44,5.17,2,7.79,1.47,6.36,2.8,12.76,4.32,19.11,1.72,7.21,3.59,14.37,5.36,21.56,1,3.88,1.8,7.78,2.73,11.66q4,16.84,8.1,33.66c1.65,6.78,3.41,13.52,5,20.3a43.6,43.6,0,0,1,1.12,7.09c.68,10.14-7.55,12.81-13.72,10.72-5.89-2-9.73-6.24-12-11.86-1.57-3.9-2.77-7.95-4.08-11.95-2.44-7.38-4.87-14.75-7.23-22.15-3.87-12.1-7.5-24.27-10.47-36.64-.47-2-.74-4-1.19-6-1.16-5-3.34-6.27-8.21-4.83-2.43.72-4.83,1.55-7.25,2.32-6,1.92-9.21,6-9.66,12.3-.64,9-1.38,17.93-1.54,26.95-.27,15.09-1,30.18-1.61,45.27a29.42,29.42,0,0,1-1.22,7.27,9.33,9.33,0,0,1-9.42,6.66,7.78,7.78,0,0,1-7.66-5.39,24.37,24.37,0,0,1-1.07-6c-.18-2.38,0-4.78,0-7.17ZM1021,139.1c-.34.34-.79.62-1,1a10.64,10.64,0,0,0-.66,2.3c-.69,4.14-1.49,8.28-2,12.45-.78,6.33-1.38,12.68-2,19a12.14,12.14,0,0,0,.14,3.24,3.74,3.74,0,0,0,3.32,3.28c5.64.88,11.14-2.65,9.93-9.38-1-5.35-1.7-10.74-2.77-16.07-.88-4.4-2.07-8.74-3.19-13.09A3.82,3.82,0,0,0,1021,139.1Z"/>
              </g>
              <rect x="884.99" y="333.15" width="310.16" height="65.89"/>
              <g>
                <path class="cls-5" d="M936.82,358.1a3.75,3.75,0,0,1-.68,0,2.3,2.3,0,0,1-.66-.17,3.66,3.66,0,0,1-.67-.36,6,6,0,0,1-.73-.61,12.72,12.72,0,0,0-2.5-2,5.27,5.27,0,0,0-2.74-.7,6,6,0,0,0-1.62.24,5.37,5.37,0,0,0-1.5.67,3.77,3.77,0,0,0-1.1,1.08,2.7,2.7,0,0,0-.44,1.47,2.54,2.54,0,0,0,.71,1.73,8,8,0,0,0,1.89,1.45c.79.44,1.68.88,2.67,1.31s2,.9,3,1.38,2,1,3,1.57a14.32,14.32,0,0,1,2.66,1.94,8.73,8.73,0,0,1,1.9,2.47,7.06,7.06,0,0,1,.69,3.19,8,8,0,0,1-1.07,4.15,9.92,9.92,0,0,1-2.79,3.05,13.41,13.41,0,0,1-3.89,1.9,14.83,14.83,0,0,1-4.36.66,15.73,15.73,0,0,1-4.66-.63,12,12,0,0,1-3.41-1.64,8.52,8.52,0,0,1-2.21-2.24,7,7,0,0,1-1.07-2.43,3.43,3.43,0,0,1,.05-1.2,2.78,2.78,0,0,1,.46-1,2.46,2.46,0,0,1,.84-.72,2.7,2.7,0,0,1,1.24-.27,2.83,2.83,0,0,1,1.35.35,7,7,0,0,1,1.36,1,4.82,4.82,0,0,0,1,1.14,8.12,8.12,0,0,0,1.41,1,8.82,8.82,0,0,0,1.74.66,7.22,7.22,0,0,0,1.92.25,7.73,7.73,0,0,0,1.95-.25,6.54,6.54,0,0,0,1.78-.73,4.54,4.54,0,0,0,1.3-1.2,2.75,2.75,0,0,0,.51-1.67,2.46,2.46,0,0,0-.69-1.71,7.92,7.92,0,0,0-1.8-1.4,25.28,25.28,0,0,0-2.55-1.26c-1-.4-1.94-.83-3-1.29s-2-1-2.94-1.52a12.58,12.58,0,0,1-2.55-1.91,8.81,8.81,0,0,1-1.8-2.48,7.11,7.11,0,0,1-.7-3.23,8.21,8.21,0,0,1,.83-3.73,8.47,8.47,0,0,1,2.3-2.89,10.62,10.62,0,0,1,3.49-1.87,13.76,13.76,0,0,1,4.4-.67,11.82,11.82,0,0,1,2.4.26,14.55,14.55,0,0,1,2.41.73,16.12,16.12,0,0,1,2.2,1.1,11.66,11.66,0,0,1,1.8,1.37,7,7,0,0,1,1.24,1.56,3.42,3.42,0,0,1,.43,1.62,2.82,2.82,0,0,1-.23,1.25,2.23,2.23,0,0,1-.63.79,2.61,2.61,0,0,1-.92.43A5.26,5.26,0,0,1,936.82,358.1Z"/>
                <path class="cls-5" d="M978.86,358.44a13.12,13.12,0,0,0-3.45-2.55,9.53,9.53,0,0,0-4.27-.93,10.37,10.37,0,0,0-4.15.84,10.58,10.58,0,0,0-3.38,2.33,11.12,11.12,0,0,0-2.28,3.43,10.79,10.79,0,0,0,0,8.3,11.11,11.11,0,0,0,2.29,3.41,10.9,10.9,0,0,0,3.39,2.31,10,10,0,0,0,4.13.85,9.15,9.15,0,0,0,4.76-1.23,13.83,13.83,0,0,0,1.94-1.32c.61-.49,1.22-1,1.85-1.58a4,4,0,0,1,.83-.38,3,3,0,0,1,.92-.14,3.1,3.1,0,0,1,.92.13,2.65,2.65,0,0,1,.85.44,2.92,2.92,0,0,1,.91,1,2.68,2.68,0,0,1,.33,1.31,3.46,3.46,0,0,1-.21,1.18,3.31,3.31,0,0,1-.72,1.07,22.69,22.69,0,0,1-2.63,2.52,13.29,13.29,0,0,1-2.8,1.74,13.89,13.89,0,0,1-3.18,1,20,20,0,0,1-3.77.33,16.38,16.38,0,0,1-6.54-1.33,16.73,16.73,0,0,1-5.35-3.61,17,17,0,0,1-3.61-5.34,16.35,16.35,0,0,1-1.32-6.55,16.81,16.81,0,0,1,.6-4.44,17,17,0,0,1,1.7-4,17.36,17.36,0,0,1,2.63-3.4,16.73,16.73,0,0,1,11.89-4.93,20.71,20.71,0,0,1,3.42.27,14.13,14.13,0,0,1,3.05.9,12.74,12.74,0,0,1,2.8,1.61,18.26,18.26,0,0,1,2.66,2.4,3.46,3.46,0,0,1,.92,2.22,2.87,2.87,0,0,1-1,2.23,3,3,0,0,1-.84.54,2.58,2.58,0,0,1-1,.24,3.17,3.17,0,0,1-1.12-.16A3.87,3.87,0,0,1,978.86,358.44Z"/>
                <path class="cls-5" d="M1027.87,379.2a3.18,3.18,0,0,1-.25,1.28,3.28,3.28,0,0,1-.63,1,3,3,0,0,1-2.21.94,3,3,0,0,1-1.25-.26,2.93,2.93,0,0,1-1-.71,3.17,3.17,0,0,1-.63-1,3.69,3.69,0,0,1-.22-1.25V369.08h-15.57V379.2a3.69,3.69,0,0,1-.22,1.25,3.33,3.33,0,0,1-.62,1,2.65,2.65,0,0,1-1,.71,3.16,3.16,0,0,1-1.29.26,3,3,0,0,1-1.26-.26,2.94,2.94,0,0,1-1.58-1.76,3.66,3.66,0,0,1-.22-1.23V352.08a4.59,4.59,0,0,0-.16-1,3.73,3.73,0,0,1-.12-1,1.74,1.74,0,0,1,.07-.53.78.78,0,0,1,.31-.39,1.57,1.57,0,0,1,.62-.25,5.14,5.14,0,0,1,1.07-.09,8.72,8.72,0,0,1,1.76.16,4.25,4.25,0,0,1,1.38.5,2.68,2.68,0,0,1,.9,1,3,3,0,0,1,.32,1.46v11h15.57V352.08a7.25,7.25,0,0,0-.16-1,3.73,3.73,0,0,1-.12-1,1.28,1.28,0,0,1,.09-.53.75.75,0,0,1,.32-.39,1.73,1.73,0,0,1,.65-.25,5.27,5.27,0,0,1,1.07-.09,9.29,9.29,0,0,1,1.61.13,4,4,0,0,1,1.38.48,2.67,2.67,0,0,1,1,.94,3,3,0,0,1,.36,1.53Z"/>
                <path class="cls-5" d="M1043,365.63a16.76,16.76,0,0,1,2.31-8.46,16.66,16.66,0,0,1,2.62-3.4,17.48,17.48,0,0,1,3.41-2.64,17,17,0,0,1,4-1.69,16.88,16.88,0,0,1,8.92,0,17.45,17.45,0,0,1,4,1.69,17.06,17.06,0,0,1,3.39,2.64,16.41,16.41,0,0,1,2.64,3.4,17,17,0,0,1,1.7,4,16.88,16.88,0,0,1,0,8.92,17,17,0,0,1-1.7,4,17.18,17.18,0,0,1-6,6,17,17,0,0,1-4,1.7,16.84,16.84,0,0,1-11-.72,17.17,17.17,0,0,1-5.35-3.61,17,17,0,0,1-3.6-5.35A16.17,16.17,0,0,1,1043,365.63Zm6.18.05a10.36,10.36,0,0,0,.83,4.15,11,11,0,0,0,2.28,3.41,10.59,10.59,0,0,0,3.39,2.32,10.51,10.51,0,0,0,8.28,0,10.79,10.79,0,0,0,3.39-2.33,11.43,11.43,0,0,0,2.29-3.44,10.62,10.62,0,0,0,.83-4.16,10.4,10.4,0,0,0-.83-4.13,11.25,11.25,0,0,0-2.29-3.4,10.93,10.93,0,0,0-3.39-2.32,10.51,10.51,0,0,0-8.28,0,10.46,10.46,0,0,0-3.39,2.33,11.18,11.18,0,0,0-2.28,3.43A10.35,10.35,0,0,0,1049.14,365.68Z"/>
                <path class="cls-5" d="M1090.25,365.63a16.62,16.62,0,0,1,2.3-8.46,17.07,17.07,0,0,1,2.63-3.4,17.48,17.48,0,0,1,3.41-2.64,16.84,16.84,0,0,1,4-1.69,16.88,16.88,0,0,1,8.92,0,16.61,16.61,0,0,1,7.41,4.33,16.76,16.76,0,0,1,2.64,3.4,17,17,0,0,1,1.7,4,16.88,16.88,0,0,1,0,8.92,16.71,16.71,0,0,1-4.34,7.42,16.86,16.86,0,0,1-7.41,4.33,16.84,16.84,0,0,1-11-.72,16.93,16.93,0,0,1-9-9A16.33,16.33,0,0,1,1090.25,365.63Zm6.18.05a10.36,10.36,0,0,0,.83,4.15,10.8,10.8,0,0,0,2.28,3.41,10.55,10.55,0,0,0,3.38,2.32,10.53,10.53,0,0,0,8.29,0,10.64,10.64,0,0,0,3.38-2.33,11.07,11.07,0,0,0,2.29-3.44,10.45,10.45,0,0,0,.84-4.16,10.24,10.24,0,0,0-.84-4.13,10.89,10.89,0,0,0-2.29-3.4,10.77,10.77,0,0,0-3.38-2.32,10.53,10.53,0,0,0-8.29,0,10.42,10.42,0,0,0-3.38,2.33,11,11,0,0,0-2.28,3.43A10.35,10.35,0,0,0,1096.43,365.68Z"/>
                <path class="cls-5" d="M1163.05,379.08a3.18,3.18,0,0,1-.23,1.26,3.1,3.1,0,0,1-.63,1,2.71,2.71,0,0,1-.91.63,2.64,2.64,0,0,1-1.12.23h-17.27a3.46,3.46,0,0,1-1.39-.32,3.24,3.24,0,0,1-1.08-.76,3.18,3.18,0,0,1-.72-1.12,3.62,3.62,0,0,1-.27-1.41V351.84a4.51,4.51,0,0,0-.16-1,3.83,3.83,0,0,1-.13-1,1.21,1.21,0,0,1,.1-.52.79.79,0,0,1,.33-.4,2.18,2.18,0,0,1,.64-.25,6.33,6.33,0,0,1,1.08-.09,8.46,8.46,0,0,1,1.73.17,3.76,3.76,0,0,1,1.35.58,2.76,2.76,0,0,1,.89,1.13,4.32,4.32,0,0,1,.32,1.81V376H1160a3.06,3.06,0,0,1,1.15.23,3.1,3.1,0,0,1,1,.63,3.36,3.36,0,0,1,.69,1A3,3,0,0,1,1163.05,379.08Z"/>
              </g>
            </g>
          </g>
          <line class="cls-6" x1="647.8" y1="54.94" x2="647.8" y2="453.1"/>
          <g>
            <path class="cls-7" d="M260.73,496.72c-4.6,0-8.14.18-11.66,0-5-.32-10-.64-15-1.12-5.87-.57-11.71-1.29-17.51-2.27a242,242,0,0,1-25.5-5.71,261.05,261.05,0,0,1-42-15.83,250.31,250.31,0,0,1-36.67-21.69c-6.43-4.56-12.59-9.51-18.57-14.66a230.49,230.49,0,0,1-17.45-16.64,243.32,243.32,0,0,1-44.28-65.3,233.52,233.52,0,0,1-15.84-46.54q-2.23-9.71-3.55-19.6c-.84-6.36-1.55-12.71-1.89-19.11-.29-5.71-.72-11.41-.55-17.12.17-6,.4-12,1-18a240.6,240.6,0,0,1,6.52-37.88,228.81,228.81,0,0,1,11.47-33.87,256.11,256.11,0,0,1,12.33-24.91,237.91,237.91,0,0,1,18.57-27.86c4.46-5.81,9.23-11.36,14.18-16.77q5.92-6.47,12.32-12.46a251.32,251.32,0,0,1,62.11-42.68,256,256,0,0,1,44.91-16.71,237,237,0,0,1,23.43-5c5.41-.86,10.82-1.63,16.27-2.15,4.06-.38,8.13-.65,12.19-1,3.05-.23,6.1,0,9.12-.27a52.75,52.75,0,0,1,6.76-.25c5.34.16,10.7.24,16,.64,8.63.66,17.25,1.58,25.78,3.07a252.79,252.79,0,0,1,31.18,7.42A256.09,256.09,0,0,1,379.32,41a249.83,249.83,0,0,1,35.92,23.28A193.76,193.76,0,0,1,430.1,76.9c2.81,2.68,5.82,5.17,8.5,8,5.43,5.68,10.76,11.45,15.78,17.52A244.16,244.16,0,0,1,477,134.76a237.46,237.46,0,0,1,25.72,64.48c1.46,6.21,2.68,12.47,3.62,18.78.78,5.3,1.45,10.6,1.89,15.94.29,3.55.37,7.1.65,10.64a150.13,150.13,0,0,1,.17,16.7q-.27,8.19-1.11,16.39c-.59,5.79-1.32,11.57-2.32,17.29a239.11,239.11,0,0,1-41.51,98.34c-3.56,5-7.39,9.74-11.29,14.46a250.35,250.35,0,0,1-20,21.17,221.57,221.57,0,0,1-17.53,15,243.18,243.18,0,0,1-26,17.73,239.92,239.92,0,0,1-27.66,14.13c-7.48,3.19-15,6.14-22.78,8.67a246.08,246.08,0,0,1-30.45,7.87q-8.43,1.62-17,2.58c-6.13.68-12.26,1.18-18.42,1.58C268.47,496.79,264.07,496.49,260.73,496.72Zm-211.9-125c.12.25.17.38.25.51a235.6,235.6,0,0,0,38.61,48.92,241.19,241.19,0,0,0,75.82,50.24,250.18,250.18,0,0,0,69.4,17.88c5.25.59,10.54,1,15.82,1.16,7.83.2,15.67.28,23.51-.13s15.43-1.15,23.11-2.21c7.52-1,15-2.47,22.34-4.24a245,245,0,0,0,115-63.54,239.32,239.32,0,0,0,27-31.73c3.63-5.07,7-10.31,10.2-15.67.72-1.21.5-1.53-.81-1.4-.21,0-.42,0-.64,0-37.87.08-75.74,0-113.62.08q-98.61.12-197.23-.06c-35.66-.12-71.32,0-107,0A3.77,3.77,0,0,0,48.83,371.73Zm217.94-354L477.23,359.9a223,223,0,0,0,11-24.77,226.14,226.14,0,0,0,12.57-50.07q1.55-11.88,2-23.81a204.15,204.15,0,0,0-.48-22.53c-.46-6.7-1.17-13.35-2.15-20a211.67,211.67,0,0,0-6.57-29.56A232.45,232.45,0,0,0,470,135.42,243.3,243.3,0,0,0,439.58,95a239,239,0,0,0-29.39-26.69,244.58,244.58,0,0,0-46.35-28,247.52,247.52,0,0,0-41.57-14.82c-7.74-2-15.57-3.66-23.46-4.94-4.32-.7-8.67-1.28-13.05-1.66-2.65-.23-5.31-.51-8-.69C274.23,18,270.69,17.66,266.77,17.74ZM41.82,359.09c.35-.46.55-.69.71-.95q14.49-23.36,29-46.72,19.13-30.89,38.22-61.78,17.94-29,35.88-58,15.89-25.66,31.8-51.31,19.72-31.87,39.4-63.76,17.82-28.81,35.67-57.61c.19-.3.5-.7.42-1-.17-.49-.73-.24-1.11-.24-4.88.06-9.74.49-14.6.89-6.5.55-13,1.46-19.38,2.51A237.4,237.4,0,0,0,193,26.63,244.85,244.85,0,0,0,87.78,86.93,234.08,234.08,0,0,0,21,209a227.2,227.2,0,0,0-4.13,33.77c-.26,5.65-.42,11.32-.19,17,.33,8.24.88,16.43,1.91,24.61a223.28,223.28,0,0,0,4.23,23.24,232.31,232.31,0,0,0,12,36.44C36.93,349.11,39.17,354.07,41.82,359.09ZM259,170.36a3.66,3.66,0,0,1,.44.79c.51,2,1.87,2.34,3.79,2.34q44.88-.09,89.76-.05c.51,0,1.19.26,1.48-.21s-.27-1-.55-1.5q-7.12-11.58-14.25-23.13Q322.82,121.14,306,93.67,284.07,58,262.14,22.43c-.65-1.06-1.35-2.91-2.07-2.93-1.12,0-1.48,1.78-2.13,2.81q-13.89,22.35-27.72,44.74Q214.59,92.33,199,117.62q-16.71,27-33.42,54c-.3.48-1.07,1-.64,1.62s1.08.2,1.63.2c29.08,0,58.16,0,87.24.06,2.39,0,4.38-.08,4.9-2.94C258.69,170.49,258.84,170.46,259,170.36Zm98.85,7.8-.48.08v1.66q0,91.59,0,183.18c0,2.39-.37,2.2,2.17,2.2H470.19c.48,0,.95,0,1.42,0,1.22.11,1.21-.36.67-1.23-1.5-2.4-3-4.81-4.46-7.22q-17.6-28.57-35.19-57.15-18.15-29.52-36.26-59.05Q380,214,363.6,187.33C361.71,184.26,359.78,181.22,357.87,178.16ZM45.86,365a2.86,2.86,0,0,0,1.76.28q55.08,0,110.16,0c1.25,0,1.69-.24,1.69-1.62q0-90.09,0-180.19c0-.43.23-.94-.38-1.42ZM260,362.8a124.7,124.7,0,0,0,14.83-1.49,91.08,91.08,0,0,0,32.47-12.6,93.38,93.38,0,0,0,22.32-19.78c.6-.71.35-1.18,0-1.82q-4.37-8.94-8.71-17.91-8-16.47-16-32.95a2.26,2.26,0,0,0-2.39-1.49c-11.8-.09-23.59.24-35.38-.17-4.68-.16-9.37-.1-14.06-.11-12.12,0-24.24,0-36.35,0a2.48,2.48,0,0,0-2.71,1.65c-2.92,6.32-6,12.57-9,18.85L189.86,327c-.22.47-.37,1.18-.75,1.35-1,.42-.61.8-.17,1.32A89.19,89.19,0,0,0,203,343.39C219.49,356.06,238.12,362.55,260,362.8Zm-74.78-38.06c.33-.6.6-1,.82-1.49q3.93-8.31,7.86-16.63,8.74-18.37,17.52-36.73,12.89-27.07,25.76-54.16,7.86-16.51,15.76-33c.54-1.13.52-1.63-.9-1.48-3,.33-6,.68-9,1.2a88.25,88.25,0,0,0-30.56,11.48,90.52,90.52,0,0,0-23.13,19.72,91.7,91.7,0,0,0-13.74,22.25,89.46,89.46,0,0,0-7.25,29.79,90.58,90.58,0,0,0,1.08,21.77,88,88,0,0,0,9.68,27.63A76.24,76.24,0,0,0,185.22,324.74Zm79.29-143.35c.18.43.33.81.51,1.18,1.47,3,3,6.08,4.43,9.13q13.55,27.87,27.08,55.75,7.94,16.33,15.87,32.67,10.22,21,20.45,42c.72,1.48.75,1.48,1.68.08a90.11,90.11,0,0,0,15.33-49.74,87.29,87.29,0,0,0-1.07-14.24A89.62,89.62,0,0,0,341.53,234a91.06,91.06,0,0,0-23.21-30.84,92.17,92.17,0,0,0-24-15,89.1,89.1,0,0,0-24.56-6.57C268.08,181.4,266.35,180.89,264.51,181.39Zm-5.48.41c-.29.5-.43.7-.54.93q-5,10.64-10.09,21.28-10.89,22.89-21.79,45.76c-2.84,6-5.7,11.93-8.53,17.91-.83,1.75-.77,1.79,1.14,1.8,4.37,0,8.74,0,13.11.09,12.57.13,25.15-.14,37.72.18,10.11.25,20.22.1,30.33.12.38,0,.83.19,1.28-.34Q280.42,225.84,259,181.8Zm-93,114.93c-.4.39-.22.83-.22,1.21q0,32.71,0,65.43c0,1.36.43,1.64,1.7,1.64q33-.06,66.06,0c.22,0,.52.14.67-.15Q182.12,348.86,166.05,296.73ZM283.74,364.6c.26.61.68.38,1,.38q32.46,0,64.92,0c1.13,0,1.55-.25,1.55-1.48q-.06-31,0-62.08c0-.37.18-.84-.48-1.17a96.19,96.19,0,0,1-66.95,64.33ZM165.82,246.92c10.32-33.15,31.73-55.43,64.63-66.94a3.2,3.2,0,0,0-1.83-.27q-30.42,0-60.85,0c-1.66,0-2,.48-2,2q.07,32,0,64Zm121.83-66.85c31.43,10.89,52.41,32,63.19,63.34.53-.51.32-1.06.32-1.54,0-20.07,0-40.13,0-60.2,0-1.63-.44-2-2-2-20,.06-39.93,0-59.89,0A2,2,0,0,0,287.65,180.07Z"/>
            <path class="cls-8" d="M48.83,371.73a3.77,3.77,0,0,1,1.84-.2c35.67,0,71.33-.1,107,0q98.62.31,197.23.06c37.88-.05,75.75,0,113.62-.08.22,0,.43,0,.64,0,1.31-.13,1.53.19.81,1.4-3.2,5.36-6.57,10.6-10.2,15.67a239.32,239.32,0,0,1-27,31.73,245,245,0,0,1-115,63.54c-7.38,1.77-14.82,3.2-22.34,4.24-7.68,1.06-15.36,1.81-23.11,2.21s-15.68.33-23.51.13c-5.28-.13-10.57-.57-15.82-1.16a250.18,250.18,0,0,1-69.4-17.88,241.19,241.19,0,0,1-75.82-50.24,235.6,235.6,0,0,1-38.61-48.92C49,372.11,49,372,48.83,371.73Z"/>
            <path class="cls-8" d="M266.77,17.74c3.92-.08,7.46.26,11,.51,2.66.18,5.32.46,8,.69,4.38.38,8.73,1,13.05,1.66,7.89,1.28,15.72,2.91,23.46,4.94a247.52,247.52,0,0,1,41.57,14.82,244.58,244.58,0,0,1,46.35,28A239,239,0,0,1,439.58,95,243.3,243.3,0,0,1,470,135.42a232.45,232.45,0,0,1,23.55,53.75,211.67,211.67,0,0,1,6.57,29.56c1,6.64,1.69,13.29,2.15,20a204.15,204.15,0,0,1,.48,22.53q-.47,11.94-2,23.81a226.14,226.14,0,0,1-12.57,50.07,223,223,0,0,1-11,24.77Z"/>
            <path class="cls-8" d="M41.82,359.09c-2.65-5-4.89-10-7-15a232.31,232.31,0,0,1-12-36.44,223.28,223.28,0,0,1-4.23-23.24c-1-8.18-1.58-16.37-1.91-24.61-.23-5.69-.07-11.36.19-17A227.2,227.2,0,0,1,21,209,234.9,234.9,0,0,1,87.78,86.93,244.85,244.85,0,0,1,193,26.63a237.4,237.4,0,0,1,24.77-5.5c6.43-1.05,12.88-2,19.38-2.51,4.86-.4,9.72-.83,14.6-.89.38,0,.94-.25,1.11.24.08.25-.23.65-.42,1Q234.64,47.74,216.8,76.53q-19.71,31.88-39.4,63.76Q161.53,166,145.6,191.6q-18,29-35.88,58Q90.61,280.53,71.5,311.42q-14.46,23.37-29,46.72C42.37,358.4,42.17,358.63,41.82,359.09Z"/>
            <path class="cls-8" d="M259,170.36c-.18.1-.33.13-.34.19-.52,2.86-2.51,2.94-4.9,2.94-29.08-.07-58.16,0-87.24-.06-.55,0-1.29.31-1.63-.2s.34-1.14.64-1.62q16.68-27,33.42-54,15.65-25.28,31.25-50.57,13.85-22.38,27.72-44.74c.65-1,1-2.84,2.13-2.81.72,0,1.42,1.87,2.07,2.93Q284.07,58,306,93.67q16.88,27.45,33.72,54.93,7.11,11.57,14.25,23.13c.28.46.91.93.55,1.5s-1,.21-1.48.21q-44.88,0-89.76.05c-1.92,0-3.28-.31-3.79-2.34A3.66,3.66,0,0,0,259,170.36Z"/>
            <path class="cls-8" d="M357.87,178.16c1.91,3.06,3.84,6.1,5.73,9.17Q380,214,396.37,240.64q18.13,29.52,36.26,59.05,17.58,28.57,35.19,57.15c1.49,2.41,3,4.82,4.46,7.22.54.87.55,1.34-.67,1.23-.47,0-.94,0-1.42,0H359.57c-2.54,0-2.17.19-2.17-2.2q0-91.59,0-183.18v-1.66Z"/>
            <path class="cls-8" d="M45.86,365,159.05,182.08c.61.48.38,1,.38,1.42q0,90.11,0,180.19c0,1.38-.44,1.62-1.69,1.62q-55.08,0-110.16,0A2.86,2.86,0,0,1,45.86,365Z"/>
            <path class="cls-8" d="M260,362.8c-21.88-.25-40.51-6.74-57-19.41a89.19,89.19,0,0,1-14.09-13.72c-.44-.52-.78-.9.17-1.32.38-.17.53-.88.75-1.35l15.26-32.06c3-6.28,6-12.53,9-18.85a2.48,2.48,0,0,1,2.71-1.65c12.11.06,24.23,0,36.35,0,4.69,0,9.38-.05,14.06.11,11.79.41,23.58.08,35.38.17a2.26,2.26,0,0,1,2.39,1.49q7.93,16.5,16,32.95,4.35,9,8.71,17.91c.31.64.56,1.11,0,1.82a93.38,93.38,0,0,1-22.32,19.78,91.08,91.08,0,0,1-32.47,12.6A124.7,124.7,0,0,1,260,362.8Z"/>
            <path class="cls-8" d="M185.22,324.74a76.24,76.24,0,0,1-6.11-9.68,88,88,0,0,1-9.68-27.63,90.58,90.58,0,0,1-1.08-21.77,89.46,89.46,0,0,1,7.25-29.79,91.7,91.7,0,0,1,13.74-22.25,90.52,90.52,0,0,1,23.13-19.72A88.25,88.25,0,0,1,243,182.42c3-.52,6-.87,9-1.2,1.42-.15,1.44.35.9,1.48q-7.91,16.5-15.76,33-12.88,27.08-25.76,54.16-8.74,18.38-17.52,36.73Q190,314.93,186,323.25C185.82,323.71,185.55,324.14,185.22,324.74Z"/>
            <path class="cls-8" d="M264.51,181.39c1.84-.5,3.57,0,5.24.21a89.1,89.1,0,0,1,24.56,6.57,92.17,92.17,0,0,1,24,15A91.06,91.06,0,0,1,341.53,234a89.62,89.62,0,0,1,7.26,24.14,87.29,87.29,0,0,1,1.07,14.24,90.11,90.11,0,0,1-15.33,49.74c-.93,1.4-1,1.4-1.68-.08q-10.23-21-20.45-42-7.95-16.33-15.87-32.67Q283,219.58,269.45,191.7c-1.47-3-3-6.09-4.43-9.13C264.84,182.2,264.69,181.82,264.51,181.39Z"/>
            <path class="cls-8" d="M259,181.8q21.44,44.12,42.63,87.73c-.45.53-.9.34-1.28.34-10.11,0-20.22.13-30.33-.12-12.57-.32-25.15-.05-37.72-.18-4.37-.05-8.74-.06-13.11-.09-1.91,0-2-.05-1.14-1.8,2.83-6,5.69-11.94,8.53-17.91Q237.5,226.9,248.4,204q5.06-10.63,10.09-21.28C258.6,182.5,258.74,182.3,259,181.8Z"/>
            <path class="cls-8" d="M166.05,296.73q16,52.22,68.18,68.1c-.15.29-.45.15-.67.15q-33,0-66.06,0c-1.27,0-1.7-.28-1.7-1.64q.06-32.72,0-65.43C165.83,297.56,165.65,297.12,166.05,296.73Z"/>
            <path class="cls-8" d="M283.74,364.6a96.19,96.19,0,0,0,66.95-64.33c.66.33.48.8.48,1.17q0,31,0,62.08c0,1.23-.42,1.48-1.55,1.48q-32.46,0-64.92,0C284.42,365,284,365.21,283.74,364.6Z"/>
            <path class="cls-8" d="M165.82,246.92v-1.2q0-32,0-64c0-1.55.31-2,2-2q30.43.09,60.85,0a3.2,3.2,0,0,1,1.83.27C197.55,191.49,176.14,213.77,165.82,246.92Z"/>
            <path class="cls-8" d="M287.65,180.07a2,2,0,0,1,1.65-.36c20,0,39.92,0,59.89,0,1.58,0,2,.37,2,2-.06,20.07,0,40.13,0,60.2,0,.48.21,1-.32,1.54C340.06,212.07,319.08,191,287.65,180.07Z"/>
          </g>
        </g>
      </g>
    </g>
  </g>
</svg>