<?xml version="1.0" encoding="UTF-8" standalone="no"?>
<svg
   viewBox="0 0 1283.0987 508.03999"
   width="1283.0986"
   height="508.04001"
   version="1.1"
   id="svg76"
   sodipodi:docname="logos-uc.svg"
   inkscape:version="1.1.1 (3bf5ae0d25, 2021-09-20, custom)"
   xmlns:inkscape="http://www.inkscape.org/namespaces/inkscape"
   xmlns:sodipodi="http://sodipodi.sourceforge.net/DTD/sodipodi-0.dtd"
   xmlns="http://www.w3.org/2000/svg"
   xmlns:svg="http://www.w3.org/2000/svg">
  <sodipodi:namedview
     id="namedview78"
     pagecolor="#ffffff"
     bordercolor="#666666"
     borderopacity="1.0"
     inkscape:pageshadow="2"
     inkscape:pageopacity="0.0"
     inkscape:pagecheckerboard="0"
     showgrid="false"
     inkscape:zoom="0.87675993"
     inkscape:cx="639.2856"
     inkscape:cy="466.49029"
     inkscape:window-width="1920"
     inkscape:window-height="995"
     inkscape:window-x="0"
     inkscape:window-y="0"
     inkscape:window-maximized="1"
     inkscape:current-layer="svg76" />
  <defs
     id="defs4">
    <style
       id="style2">
      .cls-1 {
        font-size: 137px;
        font-family: Montserrat-Medium, Montserrat;
        font-weight: 500;
      }

      .cls-2 {
        fill: #42a9f7;
      }

      .cls-3 {
        fill: #fde041;
      }

      .cls-4, .cls-5 {
        fill: #fff;
      }

      .cls-4 {
        stroke: #171716;
        stroke-width: 7px;
      }

      .cls-4, .cls-6 {
        stroke-miterlimit: 10;
      }

      .cls-6 {
        fill: #6f7173;
        stroke: #181716;
        stroke-width: 4px;
      }

      .cls-7 {
        fill: #f6cc42;
      }

      .cls-8 {
        fill: #0e2268;
      }
    </style>
  </defs>
  <g
     id="Layer_2"
     data-name="Layer 2"
     transform="translate(-10.221434)">
    <g
       id="Dav-Collaboration_Image"
       data-name="Dav-Collaboration Image">
      <g
         id="g72">
        <g
           id="g70">
          <g
             id="g34">
            <circle
               class="cls-4"
               cx="1039.3"
               cy="254.02"
               r="250.52"
               id="circle6" />
            <g
               id="g32">
              <g
                 id="g14">
                <path
                   d="m 887.58,205.42 c 0,-13.07 0,-26.14 0,-39.21 0,-12.13 0.79,-24.23 2,-36.3 a 49.87,49.87 0 0 1 0.74,-5.17 q 1.74,-8.43 3.6,-16.82 a 18.8,18.8 0 0 1 1.32,-3.68 c 2,-4.34 5.41,-6.55 10.2,-6.39 a 21.72,21.72 0 0 1 4.71,0.76 74.83,74.83 0 0 1 26.46,12.39 70.72,70.72 0 0 1 20.63,24.11 148.35,148.35 0 0 1 12.15,30.89 c 2.93,11 4.3,22.26 2.8,33.65 a 86.93,86.93 0 0 1 -3,13.81 124.76,124.76 0 0 1 -10.36,24.89 c -3.38,6.09 -6.19,12.5 -10.07,18.31 -5.08,7.6 -10.14,15.22 -15.44,22.67 -4.1,5.75 -9.62,10.05 -15.62,13.71 a 21.06,21.06 0 0 1 -11,3.15 14.46,14.46 0 0 1 -14.31,-10.19 47.22,47.22 0 0 1 -2.14,-12.64 q -1.31,-26.1 -2.46,-52.21 c -0.24,-5.22 -0.27,-10.45 -0.39,-15.68 z m 31,-11.16 h -0.15 q 0,21.57 0,43.13 c 0,5.23 0.08,10.45 0.18,15.68 0,1.21 0,2.67 1.33,3.23 1.33,0.56 2.49,-0.49 3.35,-1.45 a 69,69 0 0 0 4.44,-5.36 131,131 0 0 0 10.1,-17 100.25,100.25 0 0 0 11.77,-43.34 c 0.2,-5.72 -0.75,-11.28 -1.73,-16.86 -2.7,-15.48 -10.77,-27.84 -22.06,-38.37 a 10,10 0 0 0 -1.57,-1.16 5.9,5.9 0 0 0 -1.38,-0.62 1.72,1.72 0 0 0 -2.31,1.06 8.09,8.09 0 0 0 -0.52,2.53 c -0.29,5.3 -0.66,10.59 -0.77,15.88 -0.26,14.19 -0.41,28.39 -0.63,42.65 z"
                   id="path8" />
                <path
                   d="m 1159.22,239.92 a 3.23,3.23 0 0 0 1.75,-2.59 c 0.68,-2.9 1.45,-5.79 1.85,-8.73 a 231.41,231.41 0 0 1 5.21,-25.82 c 0.58,-2.25 1.07,-4.53 1.45,-6.82 2.13,-12.9 4.2,-25.8 6.32,-38.7 0.89,-5.44 2,-10.86 2.78,-16.31 0.93,-6.18 1.63,-12.39 2.55,-18.56 0.43,-2.87 1.08,-5.71 1.77,-8.53 a 14.91,14.91 0 0 1 1.43,-3.63 8.82,8.82 0 0 1 8,-4.82 c 7.25,-0.19 12.42,4.68 12.4,11.93 a 50.47,50.47 0 0 1 -1,9.07 q -3.51,18.51 -7.24,37 c -1.68,8.32 -3.53,16.62 -5.3,24.92 -0.06,0.29 -0.14,0.57 -0.18,0.85 -2.45,16.22 -5.94,32.28 -7.34,48.67 -0.35,4.1 -1.35,8.16 -2.05,12.24 q -3.19,18.68 -6.42,37.35 a 41.56,41.56 0 0 1 -1.45,5.92 c -1.81,5.48 -5.58,8.68 -11.35,9.45 a 21,21 0 0 1 -7.58,-0.28 14.32,14.32 0 0 1 -10,-7.4 c -3.73,-7.15 -7.34,-14.35 -9.08,-22.33 -0.7,-3.19 -1.78,-6.29 -2.74,-9.41 -3.66,-12 -6.78,-24 -9.54,-36.22 -0.63,-2.76 -1.6,-5.44 -2.32,-8.17 q -0.91,-3.48 -1.63,-7 -2.9,-14.07 -5.7,-28.17 c -0.47,-2.34 -0.81,-4.72 -1.24,-7.07 -1.14,-6.14 -2.38,-12.26 -3.43,-18.41 -1.3,-7.59 -2.5,-15.19 -3.66,-22.8 -1.2,-7.89 -2.3,-15.8 -3.42,-23.71 a 20.73,20.73 0 0 1 -0.27,-3.68 9,9 0 0 1 7.75,-8.91 c 5,-0.83 9,1.12 12.25,4.71 a 29.68,29.68 0 0 1 6.25,10.39 195.61,195.61 0 0 1 7.72,29.47 c 0.73,4.21 2,8.33 2.92,12.51 1.87,8.21 3.69,16.43 5.55,24.65 0.7,3.11 1.44,6.22 2.17,9.33 1.45,6.22 2.89,12.45 4.37,18.66 q 2.84,11.87 5.73,23.72 a 47.22,47.22 0 0 0 1.43,4.8 18.25,18.25 0 0 0 1.29,2.43 z"
                   id="path10" />
                <path
                   d="m 988.87,276.46 c 0.48,-5.79 1.06,-11.57 1.43,-17.36 0.4,-6.16 0.49,-12.34 0.9,-18.49 0.74,-11.3 1.38,-22.62 2.51,-33.88 1.61,-16.11 3.65,-32.18 6.27,-48.16 1.86,-11.38 4.15,-22.7 6,-34.09 1.07,-6.37 1.94,-12.77 3.32,-19.09 a 36.27,36.27 0 0 1 3.16,-9 c 2.38,-4.58 6.48,-6.39 11.48,-5.16 a 14.39,14.39 0 0 1 6.55,3.73 c 5.57,5.36 10.1,11.47 12.58,18.84 3.46,10.25 6.69,20.58 10,30.88 1.17,3.67 2.23,7.37 3.29,11.07 0.73,2.58 1.44,5.17 2,7.79 1.47,6.36 2.8,12.76 4.32,19.11 1.72,7.21 3.59,14.37 5.36,21.56 1,3.88 1.8,7.78 2.73,11.66 q 4,16.84 8.1,33.66 c 1.65,6.78 3.41,13.52 5,20.3 a 43.6,43.6 0 0 1 1.12,7.09 c 0.68,10.14 -7.55,12.81 -13.72,10.72 -5.89,-2 -9.73,-6.24 -12,-11.86 -1.57,-3.9 -2.77,-7.95 -4.08,-11.95 -2.44,-7.38 -4.87,-14.75 -7.23,-22.15 -3.87,-12.1 -7.5,-24.27 -10.47,-36.64 -0.47,-2 -0.74,-4 -1.19,-6 -1.16,-5 -3.34,-6.27 -8.21,-4.83 -2.43,0.72 -4.83,1.55 -7.25,2.32 -6,1.92 -9.21,6 -9.66,12.3 -0.64,9 -1.38,17.93 -1.54,26.95 -0.27,15.09 -1,30.18 -1.61,45.27 a 29.42,29.42 0 0 1 -1.22,7.27 9.33,9.33 0 0 1 -9.42,6.66 7.78,7.78 0 0 1 -7.66,-5.39 24.37,24.37 0 0 1 -1.07,-6 c -0.18,-2.38 0,-4.78 0,-7.17 z M 1021,139.1 c -0.34,0.34 -0.79,0.62 -1,1 a 10.64,10.64 0 0 0 -0.66,2.3 c -0.69,4.14 -1.49,8.28 -2,12.45 -0.78,6.33 -1.38,12.68 -2,19 a 12.14,12.14 0 0 0 0.14,3.24 3.74,3.74 0 0 0 3.32,3.28 c 5.64,0.88 11.14,-2.65 9.93,-9.38 -1,-5.35 -1.7,-10.74 -2.77,-16.07 -0.88,-4.4 -2.07,-8.74 -3.19,-13.09 A 3.82,3.82 0 0 0 1021,139.1 Z"
                   id="path12" />
              </g>
              <rect
                 x="884.98999"
                 y="333.14999"
                 width="310.16"
                 height="65.889999"
                 id="rect16" />
              <g
                 id="g30">
                <path
                   class="cls-5"
                   d="m 936.82,358.1 a 3.75,3.75 0 0 1 -0.68,0 2.3,2.3 0 0 1 -0.66,-0.17 3.66,3.66 0 0 1 -0.67,-0.36 6,6 0 0 1 -0.73,-0.61 12.72,12.72 0 0 0 -2.5,-2 5.27,5.27 0 0 0 -2.74,-0.7 6,6 0 0 0 -1.62,0.24 5.37,5.37 0 0 0 -1.5,0.67 3.77,3.77 0 0 0 -1.1,1.08 2.7,2.7 0 0 0 -0.44,1.47 2.54,2.54 0 0 0 0.71,1.73 8,8 0 0 0 1.89,1.45 c 0.79,0.44 1.68,0.88 2.67,1.31 0.99,0.43 2,0.9 3,1.38 1,0.48 2,1 3,1.57 a 14.32,14.32 0 0 1 2.66,1.94 8.73,8.73 0 0 1 1.9,2.47 7.06,7.06 0 0 1 0.69,3.19 8,8 0 0 1 -1.07,4.15 9.92,9.92 0 0 1 -2.79,3.05 13.41,13.41 0 0 1 -3.89,1.9 14.83,14.83 0 0 1 -4.36,0.66 15.73,15.73 0 0 1 -4.66,-0.63 12,12 0 0 1 -3.41,-1.64 8.52,8.52 0 0 1 -2.21,-2.24 7,7 0 0 1 -1.07,-2.43 3.43,3.43 0 0 1 0.05,-1.2 2.78,2.78 0 0 1 0.46,-1 2.46,2.46 0 0 1 0.84,-0.72 2.7,2.7 0 0 1 1.24,-0.27 2.83,2.83 0 0 1 1.35,0.35 7,7 0 0 1 1.36,1 4.82,4.82 0 0 0 1,1.14 8.12,8.12 0 0 0 1.41,1 8.82,8.82 0 0 0 1.74,0.66 7.22,7.22 0 0 0 1.92,0.25 7.73,7.73 0 0 0 1.95,-0.25 6.54,6.54 0 0 0 1.78,-0.73 4.54,4.54 0 0 0 1.3,-1.2 2.75,2.75 0 0 0 0.51,-1.67 2.46,2.46 0 0 0 -0.69,-1.71 7.92,7.92 0 0 0 -1.8,-1.4 25.28,25.28 0 0 0 -2.55,-1.26 c -1,-0.4 -1.94,-0.83 -3,-1.29 -1.06,-0.46 -2,-1 -2.94,-1.52 a 12.58,12.58 0 0 1 -2.55,-1.91 8.81,8.81 0 0 1 -1.8,-2.48 7.11,7.11 0 0 1 -0.7,-3.23 8.21,8.21 0 0 1 0.83,-3.73 8.47,8.47 0 0 1 2.3,-2.89 10.62,10.62 0 0 1 3.49,-1.87 13.76,13.76 0 0 1 4.4,-0.67 11.82,11.82 0 0 1 2.4,0.26 14.55,14.55 0 0 1 2.41,0.73 16.12,16.12 0 0 1 2.2,1.1 11.66,11.66 0 0 1 1.8,1.37 7,7 0 0 1 1.24,1.56 3.42,3.42 0 0 1 0.43,1.62 2.82,2.82 0 0 1 -0.23,1.25 2.23,2.23 0 0 1 -0.63,0.79 2.61,2.61 0 0 1 -0.92,0.43 5.26,5.26 0 0 1 -1.02,0.01 z"
                   id="path18" />
                <path
                   class="cls-5"
                   d="m 978.86,358.44 a 13.12,13.12 0 0 0 -3.45,-2.55 9.53,9.53 0 0 0 -4.27,-0.93 10.37,10.37 0 0 0 -4.15,0.84 10.58,10.58 0 0 0 -3.38,2.33 11.12,11.12 0 0 0 -2.28,3.43 10.79,10.79 0 0 0 0,8.3 11.11,11.11 0 0 0 2.29,3.41 10.9,10.9 0 0 0 3.39,2.31 10,10 0 0 0 4.13,0.85 9.15,9.15 0 0 0 4.76,-1.23 13.83,13.83 0 0 0 1.94,-1.32 c 0.61,-0.49 1.22,-1 1.85,-1.58 a 4,4 0 0 1 0.83,-0.38 3,3 0 0 1 0.92,-0.14 3.1,3.1 0 0 1 0.92,0.13 2.65,2.65 0 0 1 0.85,0.44 2.92,2.92 0 0 1 0.91,1 2.68,2.68 0 0 1 0.33,1.31 3.46,3.46 0 0 1 -0.21,1.18 3.31,3.31 0 0 1 -0.72,1.07 22.69,22.69 0 0 1 -2.63,2.52 13.29,13.29 0 0 1 -2.8,1.74 13.89,13.89 0 0 1 -3.18,1 20,20 0 0 1 -3.77,0.33 16.38,16.38 0 0 1 -6.54,-1.33 16.73,16.73 0 0 1 -5.35,-3.61 17,17 0 0 1 -3.61,-5.34 16.35,16.35 0 0 1 -1.32,-6.55 16.81,16.81 0 0 1 0.6,-4.44 17,17 0 0 1 1.7,-4 17.36,17.36 0 0 1 2.63,-3.4 16.73,16.73 0 0 1 11.89,-4.93 20.71,20.71 0 0 1 3.42,0.27 14.13,14.13 0 0 1 3.05,0.9 12.74,12.74 0 0 1 2.8,1.61 18.26,18.26 0 0 1 2.66,2.4 3.46,3.46 0 0 1 0.92,2.22 2.87,2.87 0 0 1 -1,2.23 3,3 0 0 1 -0.84,0.54 2.58,2.58 0 0 1 -1,0.24 3.17,3.17 0 0 1 -1.12,-0.16 3.87,3.87 0 0 1 -1.17,-0.71 z"
                   id="path20" />
                <path
                   class="cls-5"
                   d="m 1027.87,379.2 a 3.18,3.18 0 0 1 -0.25,1.28 3.28,3.28 0 0 1 -0.63,1 3,3 0 0 1 -2.21,0.94 3,3 0 0 1 -1.25,-0.26 2.93,2.93 0 0 1 -1,-0.71 3.17,3.17 0 0 1 -0.63,-1 3.69,3.69 0 0 1 -0.22,-1.25 v -10.12 h -15.57 v 10.12 a 3.69,3.69 0 0 1 -0.22,1.25 3.33,3.33 0 0 1 -0.62,1 2.65,2.65 0 0 1 -1,0.71 3.16,3.16 0 0 1 -1.29,0.26 3,3 0 0 1 -1.26,-0.26 2.94,2.94 0 0 1 -1.58,-1.76 3.66,3.66 0 0 1 -0.22,-1.23 v -27.09 a 4.59,4.59 0 0 0 -0.16,-1 3.73,3.73 0 0 1 -0.12,-1 1.74,1.74 0 0 1 0.07,-0.53 0.78,0.78 0 0 1 0.31,-0.39 1.57,1.57 0 0 1 0.62,-0.25 5.14,5.14 0 0 1 1.07,-0.09 8.72,8.72 0 0 1 1.76,0.16 4.25,4.25 0 0 1 1.38,0.5 2.68,2.68 0 0 1 0.9,1 3,3 0 0 1 0.32,1.46 v 11 h 15.57 v -10.86 a 7.25,7.25 0 0 0 -0.16,-1 3.73,3.73 0 0 1 -0.12,-1 1.28,1.28 0 0 1 0.09,-0.53 0.75,0.75 0 0 1 0.32,-0.39 1.73,1.73 0 0 1 0.65,-0.25 5.27,5.27 0 0 1 1.07,-0.09 9.29,9.29 0 0 1 1.61,0.13 4,4 0 0 1 1.38,0.48 2.67,2.67 0 0 1 1,0.94 3,3 0 0 1 0.36,1.53 z"
                   id="path22" />
                <path
                   class="cls-5"
                   d="m 1043,365.63 a 16.76,16.76 0 0 1 2.31,-8.46 16.66,16.66 0 0 1 2.62,-3.4 17.48,17.48 0 0 1 3.41,-2.64 17,17 0 0 1 4,-1.69 16.88,16.88 0 0 1 8.92,0 17.45,17.45 0 0 1 4,1.69 17.06,17.06 0 0 1 3.39,2.64 16.41,16.41 0 0 1 2.64,3.4 17,17 0 0 1 1.7,4 16.88,16.88 0 0 1 0,8.92 17,17 0 0 1 -1.7,4 17.18,17.18 0 0 1 -6,6 17,17 0 0 1 -4,1.7 16.84,16.84 0 0 1 -11,-0.72 17.17,17.17 0 0 1 -5.35,-3.61 17,17 0 0 1 -3.6,-5.35 16.17,16.17 0 0 1 -1.34,-6.48 z m 6.18,0.05 a 10.36,10.36 0 0 0 0.83,4.15 11,11 0 0 0 2.28,3.41 10.59,10.59 0 0 0 3.39,2.32 10.51,10.51 0 0 0 8.28,0 10.79,10.79 0 0 0 3.39,-2.33 11.43,11.43 0 0 0 2.29,-3.44 10.62,10.62 0 0 0 0.83,-4.16 10.4,10.4 0 0 0 -0.83,-4.13 11.25,11.25 0 0 0 -2.29,-3.4 10.93,10.93 0 0 0 -3.39,-2.32 10.51,10.51 0 0 0 -8.28,0 10.46,10.46 0 0 0 -3.39,2.33 11.18,11.18 0 0 0 -2.28,3.43 10.35,10.35 0 0 0 -0.87,4.14 z"
                   id="path24" />
                <path
                   class="cls-5"
                   d="m 1090.25,365.63 a 16.62,16.62 0 0 1 2.3,-8.46 17.07,17.07 0 0 1 2.63,-3.4 17.48,17.48 0 0 1 3.41,-2.64 16.84,16.84 0 0 1 4,-1.69 16.88,16.88 0 0 1 8.92,0 16.61,16.61 0 0 1 7.41,4.33 16.76,16.76 0 0 1 2.64,3.4 17,17 0 0 1 1.7,4 16.88,16.88 0 0 1 0,8.92 16.71,16.71 0 0 1 -4.34,7.42 16.86,16.86 0 0 1 -7.41,4.33 16.84,16.84 0 0 1 -11,-0.72 16.93,16.93 0 0 1 -9,-9 16.33,16.33 0 0 1 -1.26,-6.49 z m 6.18,0.05 a 10.36,10.36 0 0 0 0.83,4.15 10.8,10.8 0 0 0 2.28,3.41 10.55,10.55 0 0 0 3.38,2.32 10.53,10.53 0 0 0 8.29,0 10.64,10.64 0 0 0 3.38,-2.33 11.07,11.07 0 0 0 2.29,-3.44 10.45,10.45 0 0 0 0.84,-4.16 10.24,10.24 0 0 0 -0.84,-4.13 10.89,10.89 0 0 0 -2.29,-3.4 10.77,10.77 0 0 0 -3.38,-2.32 10.53,10.53 0 0 0 -8.29,0 10.42,10.42 0 0 0 -3.38,2.33 11,11 0 0 0 -2.28,3.43 10.35,10.35 0 0 0 -0.83,4.14 z"
                   id="path26" />
                <path
                   class="cls-5"
                   d="m 1163.05,379.08 a 3.18,3.18 0 0 1 -0.23,1.26 3.1,3.1 0 0 1 -0.63,1 2.71,2.71 0 0 1 -0.91,0.63 2.64,2.64 0 0 1 -1.12,0.23 h -17.27 a 3.46,3.46 0 0 1 -1.39,-0.32 3.24,3.24 0 0 1 -1.08,-0.76 3.18,3.18 0 0 1 -0.72,-1.12 3.62,3.62 0 0 1 -0.27,-1.41 v -26.75 a 4.51,4.51 0 0 0 -0.16,-1 3.83,3.83 0 0 1 -0.13,-1 1.21,1.21 0 0 1 0.1,-0.52 0.79,0.79 0 0 1 0.33,-0.4 2.18,2.18 0 0 1 0.64,-0.25 6.33,6.33 0 0 1 1.08,-0.09 8.46,8.46 0 0 1 1.73,0.17 3.76,3.76 0 0 1 1.35,0.58 2.76,2.76 0 0 1 0.89,1.13 4.32,4.32 0 0 1 0.32,1.81 V 376 H 1160 a 3.06,3.06 0 0 1 1.15,0.23 3.1,3.1 0 0 1 1,0.63 3.36,3.36 0 0 1 0.69,1 3,3 0 0 1 0.21,1.22 z"
                   id="path28" />
              </g>
            </g>
          </g>
          <line
             class="cls-6"
             x1="647.79999"
             y1="54.939999"
             x2="647.79999"
             y2="453.10001"
             id="line36" />
          <g
             id="g68">
            <path
               class="cls-7"
               d="m 260.73,496.72 c -4.6,0 -8.14,0.18 -11.66,0 -5,-0.32 -10,-0.64 -15,-1.12 -5.87,-0.57 -11.71,-1.29 -17.51,-2.27 a 242,242 0 0 1 -25.5,-5.71 261.05,261.05 0 0 1 -42,-15.83 250.31,250.31 0 0 1 -36.67,-21.69 C 105.96,445.54 99.8,440.59 93.82,435.44 A 230.49,230.49 0 0 1 76.37,418.8 243.32,243.32 0 0 1 32.09,353.5 233.52,233.52 0 0 1 16.25,306.96 q -2.23,-9.71 -3.55,-19.6 c -0.84,-6.36 -1.55,-12.71 -1.89,-19.11 -0.29,-5.71 -0.72,-11.41 -0.55,-17.12 0.17,-6 0.4,-12 1,-18 a 240.6,240.6 0 0 1 6.52,-37.88 228.81,228.81 0 0 1 11.47,-33.87 256.11,256.11 0 0 1 12.33,-24.91 237.91,237.91 0 0 1 18.57,-27.86 c 4.46,-5.81 9.23,-11.36 14.18,-16.77 q 5.92,-6.47 12.32,-12.46 a 251.32,251.32 0 0 1 62.11,-42.68 256,256 0 0 1 44.91,-16.71 237,237 0 0 1 23.43,-5 c 5.41,-0.86 10.82,-1.63 16.27,-2.15 4.06,-0.38 8.13,-0.65 12.19,-1 3.05,-0.23 6.1,0 9.12,-0.27 a 52.75,52.75 0 0 1 6.76,-0.25 c 5.34,0.16 10.7,0.24 16,0.64 8.63,0.66 17.25,1.58 25.78,3.07 A 252.79,252.79 0 0 1 334.4,22.45 256.09,256.09 0 0 1 379.32,41 249.83,249.83 0 0 1 415.24,64.28 193.76,193.76 0 0 1 430.1,76.9 c 2.81,2.68 5.82,5.17 8.5,8 5.43,5.68 10.76,11.45 15.78,17.52 a 244.16,244.16 0 0 1 22.62,32.34 237.46,237.46 0 0 1 25.72,64.48 c 1.46,6.21 2.68,12.47 3.62,18.78 0.78,5.3 1.45,10.6 1.89,15.94 0.29,3.55 0.37,7.1 0.65,10.64 a 150.13,150.13 0 0 1 0.17,16.7 q -0.27,8.19 -1.11,16.39 c -0.59,5.79 -1.32,11.57 -2.32,17.29 a 239.11,239.11 0 0 1 -41.51,98.34 c -3.56,5 -7.39,9.74 -11.29,14.46 a 250.35,250.35 0 0 1 -20,21.17 221.57,221.57 0 0 1 -17.53,15 243.18,243.18 0 0 1 -26,17.73 239.92,239.92 0 0 1 -27.66,14.13 c -7.48,3.19 -15,6.14 -22.78,8.67 a 246.08,246.08 0 0 1 -30.45,7.87 q -8.43,1.62 -17,2.58 c -6.13,0.68 -12.26,1.18 -18.42,1.58 -4.51,0.28 -8.91,-0.02 -12.25,0.21 z m -211.9,-125 c 0.12,0.25 0.17,0.38 0.25,0.51 a 235.6,235.6 0 0 0 38.61,48.92 241.19,241.19 0 0 0 75.82,50.24 250.18,250.18 0 0 0 69.4,17.88 c 5.25,0.59 10.54,1 15.82,1.16 7.83,0.2 15.67,0.28 23.51,-0.13 7.84,-0.41 15.43,-1.15 23.11,-2.21 7.52,-1 15,-2.47 22.34,-4.24 a 245,245 0 0 0 115,-63.54 239.32,239.32 0 0 0 27,-31.73 c 3.63,-5.07 7,-10.31 10.2,-15.67 0.72,-1.21 0.5,-1.53 -0.81,-1.4 -0.21,0 -0.42,0 -0.64,0 -37.87,0.08 -75.74,0 -113.62,0.08 q -98.61,0.12 -197.23,-0.06 c -35.66,-0.12 -71.32,0 -107,0 a 3.77,3.77 0 0 0 -1.76,0.2 z m 217.94,-354 210.46,342.18 a 223,223 0 0 0 11,-24.77 226.14,226.14 0 0 0 12.57,-50.07 q 1.55,-11.88 2,-23.81 a 204.15,204.15 0 0 0 -0.48,-22.53 c -0.46,-6.7 -1.17,-13.35 -2.15,-20 A 211.67,211.67 0 0 0 493.6,189.16 232.45,232.45 0 0 0 470,135.42 243.3,243.3 0 0 0 439.58,95 239,239 0 0 0 410.19,68.31 244.58,244.58 0 0 0 363.84,40.31 247.52,247.52 0 0 0 322.27,25.49 c -7.74,-2 -15.57,-3.66 -23.46,-4.94 -4.32,-0.7 -8.67,-1.28 -13.05,-1.66 -2.65,-0.23 -5.31,-0.51 -8,-0.69 -3.53,-0.2 -7.07,-0.54 -10.99,-0.46 z M 41.82,359.09 c 0.35,-0.46 0.55,-0.69 0.71,-0.95 q 14.49,-23.36 29,-46.72 19.13,-30.89 38.22,-61.78 17.94,-29 35.88,-58 15.89,-25.66 31.8,-51.31 19.72,-31.87 39.4,-63.76 17.82,-28.81 35.67,-57.61 c 0.19,-0.3 0.5,-0.7 0.42,-1 -0.17,-0.49 -0.73,-0.24 -1.11,-0.24 -4.88,0.06 -9.74,0.49 -14.6,0.89 -6.5,0.55 -13,1.46 -19.38,2.51 A 237.4,237.4 0 0 0 193,26.63 244.85,244.85 0 0 0 87.78,86.93 234.08,234.08 0 0 0 21,209 227.2,227.2 0 0 0 16.87,242.77 c -0.26,5.65 -0.42,11.32 -0.19,17 0.33,8.24 0.88,16.43 1.91,24.61 a 223.28,223.28 0 0 0 4.23,23.24 232.31,232.31 0 0 0 12,36.44 c 2.11,5.05 4.35,10.01 7,15.03 z M 259,170.36 a 3.66,3.66 0 0 1 0.44,0.79 c 0.51,2 1.87,2.34 3.79,2.34 q 44.88,-0.09 89.76,-0.05 c 0.51,0 1.19,0.26 1.48,-0.21 0.29,-0.47 -0.27,-1 -0.55,-1.5 Q 346.8,160.15 339.67,148.6 322.82,121.14 306,93.67 284.07,58 262.14,22.43 c -0.65,-1.06 -1.35,-2.91 -2.07,-2.93 -1.12,0 -1.48,1.78 -2.13,2.81 q -13.89,22.35 -27.72,44.74 -15.63,25.28 -31.22,50.57 -16.71,27 -33.42,54 c -0.3,0.48 -1.07,1 -0.64,1.62 0.43,0.62 1.08,0.2 1.63,0.2 29.08,0 58.16,0 87.24,0.06 2.39,0 4.38,-0.08 4.9,-2.94 -0.02,-0.07 0.13,-0.1 0.29,-0.2 z m 98.85,7.8 -0.48,0.08 v 1.66 q 0,91.59 0,183.18 c 0,2.39 -0.37,2.2 2.17,2.2 h 110.65 c 0.48,0 0.95,0 1.42,0 1.22,0.11 1.21,-0.36 0.67,-1.23 -1.5,-2.4 -3,-4.81 -4.46,-7.22 Q 450.22,328.26 432.63,299.68 414.48,270.16 396.37,240.63 380,214 363.6,187.33 c -1.89,-3.07 -3.82,-6.11 -5.73,-9.17 z M 45.86,365 a 2.86,2.86 0 0 0 1.76,0.28 q 55.08,0 110.16,0 c 1.25,0 1.69,-0.24 1.69,-1.62 q 0,-90.09 0,-180.19 c 0,-0.43 0.23,-0.94 -0.38,-1.42 z M 260,362.8 a 124.7,124.7 0 0 0 14.83,-1.49 91.08,91.08 0 0 0 32.47,-12.6 93.38,93.38 0 0 0 22.32,-19.78 c 0.6,-0.71 0.35,-1.18 0,-1.82 q -4.37,-8.94 -8.71,-17.91 -8,-16.47 -16,-32.95 a 2.26,2.26 0 0 0 -2.39,-1.49 c -11.8,-0.09 -23.59,0.24 -35.38,-0.17 -4.68,-0.16 -9.37,-0.1 -14.06,-0.11 -12.12,0 -24.24,0 -36.35,0 a 2.48,2.48 0 0 0 -2.71,1.65 c -2.92,6.32 -6,12.57 -9,18.85 L 189.86,327 c -0.22,0.47 -0.37,1.18 -0.75,1.35 -1,0.42 -0.61,0.8 -0.17,1.32 A 89.19,89.19 0 0 0 203,343.39 c 16.49,12.67 35.12,19.16 57,19.41 z m -74.78,-38.06 c 0.33,-0.6 0.6,-1 0.82,-1.49 q 3.93,-8.31 7.86,-16.63 8.74,-18.37 17.52,-36.73 12.89,-27.07 25.76,-54.16 7.86,-16.51 15.76,-33 c 0.54,-1.13 0.52,-1.63 -0.9,-1.48 -3,0.33 -6,0.68 -9,1.2 a 88.25,88.25 0 0 0 -30.56,11.48 90.52,90.52 0 0 0 -23.13,19.72 91.7,91.7 0 0 0 -13.74,22.25 89.46,89.46 0 0 0 -7.25,29.79 90.58,90.58 0 0 0 1.08,21.77 88,88 0 0 0 9.68,27.63 76.24,76.24 0 0 0 6.1,9.65 z m 79.29,-143.35 c 0.18,0.43 0.33,0.81 0.51,1.18 1.47,3 3,6.08 4.43,9.13 q 13.55,27.87 27.08,55.75 7.94,16.33 15.87,32.67 10.22,21 20.45,42 c 0.72,1.48 0.75,1.48 1.68,0.08 a 90.11,90.11 0 0 0 15.33,-49.74 87.29,87.29 0 0 0 -1.07,-14.24 89.62,89.62 0 0 0 -7.26,-24.22 91.06,91.06 0 0 0 -23.21,-30.84 92.17,92.17 0 0 0 -24,-15 89.1,89.1 0 0 0 -24.56,-6.57 c -1.68,-0.19 -3.41,-0.7 -5.25,-0.2 z m -5.48,0.41 c -0.29,0.5 -0.43,0.7 -0.54,0.93 q -5,10.64 -10.09,21.28 -10.89,22.89 -21.79,45.76 c -2.84,6 -5.7,11.93 -8.53,17.91 -0.83,1.75 -0.77,1.79 1.14,1.8 4.37,0 8.74,0 13.11,0.09 12.57,0.13 25.15,-0.14 37.72,0.18 10.11,0.25 20.22,0.1 30.33,0.12 0.38,0 0.83,0.19 1.28,-0.34 Q 280.42,225.84 259,181.8 Z m -93,114.93 c -0.4,0.39 -0.22,0.83 -0.22,1.21 q 0,32.71 0,65.43 c 0,1.36 0.43,1.64 1.7,1.64 q 33,-0.06 66.06,0 c 0.22,0 0.52,0.14 0.67,-0.15 q -52.12,-16 -68.19,-68.13 z m 117.71,67.87 c 0.26,0.61 0.68,0.38 1,0.38 q 32.46,0 64.92,0 c 1.13,0 1.55,-0.25 1.55,-1.48 q -0.06,-31 0,-62.08 c 0,-0.37 0.18,-0.84 -0.48,-1.17 a 96.19,96.19 0 0 1 -66.95,64.33 z M 165.82,246.92 c 10.32,-33.15 31.73,-55.43 64.63,-66.94 a 3.2,3.2 0 0 0 -1.83,-0.27 q -30.42,0 -60.85,0 c -1.66,0 -2,0.48 -2,2 q 0.07,32 0,64 z m 121.83,-66.85 c 31.43,10.89 52.41,32 63.19,63.34 0.53,-0.51 0.32,-1.06 0.32,-1.54 0,-20.07 0,-40.13 0,-60.2 0,-1.63 -0.44,-2 -2,-2 -20,0.06 -39.93,0 -59.89,0 a 2,2 0 0 0 -1.62,0.4 z"
               id="path38" />
            <path
               class="cls-8"
               d="m 48.83,371.73 a 3.77,3.77 0 0 1 1.84,-0.2 c 35.67,0 71.33,-0.1 107,0 q 98.62,0.31 197.23,0.06 c 37.88,-0.05 75.75,0 113.62,-0.08 0.22,0 0.43,0 0.64,0 1.31,-0.13 1.53,0.19 0.81,1.4 -3.2,5.36 -6.57,10.6 -10.2,15.67 a 239.32,239.32 0 0 1 -27,31.73 245,245 0 0 1 -115,63.54 c -7.38,1.77 -14.82,3.2 -22.34,4.24 -7.68,1.06 -15.36,1.81 -23.11,2.21 -7.75,0.4 -15.68,0.33 -23.51,0.13 -5.28,-0.13 -10.57,-0.57 -15.82,-1.16 A 250.18,250.18 0 0 1 163.59,471.39 241.19,241.19 0 0 1 87.77,421.15 235.6,235.6 0 0 1 49.16,372.23 C 49,372.11 49,372 48.83,371.73 Z"
               id="path40" />
            <path
               class="cls-8"
               d="m 266.77,17.74 c 3.92,-0.08 7.46,0.26 11,0.51 2.66,0.18 5.32,0.46 8,0.69 4.38,0.38 8.73,1 13.05,1.66 7.89,1.28 15.72,2.91 23.46,4.94 a 247.52,247.52 0 0 1 41.57,14.82 244.58,244.58 0 0 1 46.35,28 239,239 0 0 1 29.38,26.64 243.3,243.3 0 0 1 30.42,40.42 232.45,232.45 0 0 1 23.55,53.75 211.67,211.67 0 0 1 6.57,29.56 c 1,6.64 1.69,13.29 2.15,20 a 204.15,204.15 0 0 1 0.48,22.53 q -0.47,11.94 -2,23.81 a 226.14,226.14 0 0 1 -12.57,50.07 223,223 0 0 1 -11,24.77 z"
               id="path42" />
            <path
               class="cls-8"
               d="m 41.82,359.09 c -2.65,-5 -4.89,-10 -7,-15 a 232.31,232.31 0 0 1 -12,-36.44 223.28,223.28 0 0 1 -4.23,-23.24 c -1,-8.18 -1.58,-16.37 -1.91,-24.61 -0.23,-5.69 -0.07,-11.36 0.19,-17 A 227.2,227.2 0 0 1 21,209 234.9,234.9 0 0 1 87.78,86.93 244.85,244.85 0 0 1 193,26.63 a 237.4,237.4 0 0 1 24.77,-5.5 c 6.43,-1.05 12.88,-2 19.38,-2.51 4.86,-0.4 9.72,-0.83 14.6,-0.89 0.38,0 0.94,-0.25 1.11,0.24 0.08,0.25 -0.23,0.65 -0.42,1 q -17.8,28.77 -35.64,57.56 -19.71,31.88 -39.4,63.76 -15.87,25.71 -31.8,51.31 -18,29 -35.88,58 -19.11,30.93 -38.22,61.82 -14.46,23.37 -29,46.72 c -0.13,0.26 -0.33,0.49 -0.68,0.95 z"
               id="path44" />
            <path
               class="cls-8"
               d="m 259,170.36 c -0.18,0.1 -0.33,0.13 -0.34,0.19 -0.52,2.86 -2.51,2.94 -4.9,2.94 -29.08,-0.07 -58.16,0 -87.24,-0.06 -0.55,0 -1.29,0.31 -1.63,-0.2 -0.34,-0.51 0.34,-1.14 0.64,-1.62 q 16.68,-27 33.42,-54 Q 214.6,92.33 230.2,67.04 244.05,44.66 257.92,22.3 c 0.65,-1 1,-2.84 2.13,-2.81 0.72,0 1.42,1.87 2.07,2.93 Q 284.07,58 306,93.67 q 16.88,27.45 33.72,54.93 7.11,11.57 14.25,23.13 c 0.28,0.46 0.91,0.93 0.55,1.5 -0.36,0.57 -1,0.21 -1.48,0.21 q -44.88,0 -89.76,0.05 c -1.92,0 -3.28,-0.31 -3.79,-2.34 A 3.66,3.66 0 0 0 259,170.36 Z"
               id="path46" />
            <path
               class="cls-8"
               d="m 357.87,178.16 c 1.91,3.06 3.84,6.1 5.73,9.17 q 16.4,26.67 32.77,53.31 18.13,29.52 36.26,59.05 17.58,28.57 35.19,57.15 c 1.49,2.41 3,4.82 4.46,7.22 0.54,0.87 0.55,1.34 -0.67,1.23 -0.47,0 -0.94,0 -1.42,0 H 359.57 c -2.54,0 -2.17,0.19 -2.17,-2.2 q 0,-91.59 0,-183.18 v -1.66 z"
               id="path48" />
            <path
               class="cls-8"
               d="M 45.86,365 159.05,182.08 c 0.61,0.48 0.38,1 0.38,1.42 q 0,90.11 0,180.19 c 0,1.38 -0.44,1.62 -1.69,1.62 q -55.08,0 -110.16,0 A 2.86,2.86 0 0 1 45.86,365 Z"
               id="path50" />
            <path
               class="cls-8"
               d="m 260,362.8 c -21.88,-0.25 -40.51,-6.74 -57,-19.41 a 89.19,89.19 0 0 1 -14.09,-13.72 c -0.44,-0.52 -0.78,-0.9 0.17,-1.32 0.38,-0.17 0.53,-0.88 0.75,-1.35 l 15.26,-32.06 c 3,-6.28 6,-12.53 9,-18.85 a 2.48,2.48 0 0 1 2.71,-1.65 c 12.11,0.06 24.23,0 36.35,0 4.69,0 9.38,-0.05 14.06,0.11 11.79,0.41 23.58,0.08 35.38,0.17 a 2.26,2.26 0 0 1 2.39,1.49 q 7.93,16.5 16,32.95 4.35,9 8.71,17.91 c 0.31,0.64 0.56,1.11 0,1.82 a 93.38,93.38 0 0 1 -22.32,19.78 91.08,91.08 0 0 1 -32.47,12.6 124.7,124.7 0 0 1 -14.9,1.53 z"
               id="path52" />
            <path
               class="cls-8"
               d="m 185.22,324.74 a 76.24,76.24 0 0 1 -6.11,-9.68 88,88 0 0 1 -9.68,-27.63 90.58,90.58 0 0 1 -1.08,-21.77 89.46,89.46 0 0 1 7.25,-29.79 91.7,91.7 0 0 1 13.74,-22.25 90.52,90.52 0 0 1 23.13,-19.72 88.25,88.25 0 0 1 30.53,-11.48 c 3,-0.52 6,-0.87 9,-1.2 1.42,-0.15 1.44,0.35 0.9,1.48 q -7.91,16.5 -15.76,33 -12.88,27.08 -25.76,54.16 -8.74,18.38 -17.52,36.73 -3.86,8.34 -7.86,16.66 c -0.18,0.46 -0.45,0.89 -0.78,1.49 z"
               id="path54" />
            <path
               class="cls-8"
               d="m 264.51,181.39 c 1.84,-0.5 3.57,0 5.24,0.21 a 89.1,89.1 0 0 1 24.56,6.57 92.17,92.17 0 0 1 24,15 91.06,91.06 0 0 1 23.22,30.83 89.62,89.62 0 0 1 7.26,24.14 87.29,87.29 0 0 1 1.07,14.24 90.11,90.11 0 0 1 -15.33,49.74 c -0.93,1.4 -1,1.4 -1.68,-0.08 q -10.23,-21 -20.45,-42 -7.95,-16.33 -15.87,-32.67 Q 283,219.58 269.45,191.7 c -1.47,-3 -3,-6.09 -4.43,-9.13 -0.18,-0.37 -0.33,-0.75 -0.51,-1.18 z"
               id="path56" />
            <path
               class="cls-8"
               d="m 259,181.8 q 21.44,44.12 42.63,87.73 c -0.45,0.53 -0.9,0.34 -1.28,0.34 -10.11,0 -20.22,0.13 -30.33,-0.12 -12.57,-0.32 -25.15,-0.05 -37.72,-0.18 -4.37,-0.05 -8.74,-0.06 -13.11,-0.09 -1.91,0 -2,-0.05 -1.14,-1.8 2.83,-6 5.69,-11.94 8.53,-17.91 Q 237.5,226.9 248.4,204 q 5.06,-10.63 10.09,-21.28 c 0.11,-0.22 0.25,-0.42 0.51,-0.92 z"
               id="path58" />
            <path
               class="cls-8"
               d="m 166.05,296.73 q 16,52.22 68.18,68.1 c -0.15,0.29 -0.45,0.15 -0.67,0.15 q -33,0 -66.06,0 c -1.27,0 -1.7,-0.28 -1.7,-1.64 q 0.06,-32.72 0,-65.43 c 0.03,-0.35 -0.15,-0.79 0.25,-1.18 z"
               id="path60" />
            <path
               class="cls-8"
               d="m 283.74,364.6 a 96.19,96.19 0 0 0 66.95,-64.33 c 0.66,0.33 0.48,0.8 0.48,1.17 q 0,31 0,62.08 c 0,1.23 -0.42,1.48 -1.55,1.48 q -32.46,0 -64.92,0 c -0.28,0 -0.7,0.21 -0.96,-0.4 z"
               id="path62" />
            <path
               class="cls-8"
               d="m 165.82,246.92 v -1.2 q 0,-32 0,-64 c 0,-1.55 0.31,-2 2,-2 q 30.43,0.09 60.85,0 a 3.2,3.2 0 0 1 1.83,0.27 c -32.95,11.5 -54.36,33.78 -64.68,66.93 z"
               id="path64" />
            <path
               class="cls-8"
               d="m 287.65,180.07 a 2,2 0 0 1 1.65,-0.36 c 20,0 39.92,0 59.89,0 1.58,0 2,0.37 2,2 -0.06,20.07 0,40.13 0,60.2 0,0.48 0.21,1 -0.32,1.54 C 340.06,212.07 319.08,191 287.65,180.07 Z"
               id="path66" />
          </g>
        </g>
      </g>
    </g>
  </g>
</svg>
